<svg width="800" height="800" viewBox="0 0 800 800" fill="none" xmlns="http://www.w3.org/2000/svg">
<path d="M267.504 115.072C267.504 115.072 146.272 176.832 85.8081 272C25.3441 367.168 30.1281 489.6 103.6 580.48C177.072 671.36 317.504 659.424 435.088 716.992C552.672 774.56 682.4 762.704 738 640.736C793.6 518.768 709.76 473.184 695.36 332.032C680.96 190.88 553.712 -15.8081 267.504 115.072Z" fill="#FF6F61"/>
<path opacity="0.7" d="M267.504 115.072C267.504 115.072 146.272 176.832 85.8081 272C25.3441 367.168 30.1281 489.6 103.6 580.48C177.072 671.36 317.504 659.424 435.088 716.992C552.672 774.56 682.4 762.704 738 640.736C793.6 518.768 709.76 473.184 695.36 332.032C680.96 190.88 553.712 -15.8081 267.504 115.072Z" fill="white"/>
<path d="M197.6 605.568C202.4 603.968 210.912 596.144 210.912 596.128C210.912 596.112 204.064 592.144 203.6 591.952C198.208 589.68 186.448 588.464 182.176 593.44C181.5 594.287 181.009 595.265 180.733 596.313C180.458 597.36 180.404 598.454 180.576 599.523C180.748 600.593 181.141 601.615 181.731 602.523C182.32 603.432 183.093 604.207 184 604.8C187.776 607.488 193.44 606.912 197.6 605.568Z" fill="#9C9C9C"/>
<path d="M286.256 530.144C286.368 530.144 282.736 523.056 282.448 522.624C279.248 517.824 270.064 510.256 263.76 512.048C262.721 512.375 261.762 512.917 260.945 513.638C260.129 514.359 259.473 515.244 259.02 516.236C258.568 517.227 258.329 518.302 258.318 519.391C258.308 520.481 258.527 521.56 258.96 522.56C260.672 526.848 265.712 529.504 269.936 530.672C274.896 532.048 286.24 530.16 286.256 530.144Z" fill="#9C9C9C"/>
<path d="M222.704 627.824C226.832 625.12 232.528 616.08 232.976 615.36C238.14 618.628 243.518 621.547 249.072 624.096C252.272 625.6 255.6 627.024 258.928 628.4C257.328 627.984 255.872 627.648 255.728 627.616C249.92 626.848 238.256 628.784 235.456 634.704C235.017 635.704 234.794 636.785 234.802 637.878C234.81 638.97 235.048 640.048 235.501 641.042C235.954 642.035 236.612 642.922 237.431 643.644C238.251 644.366 239.213 644.907 240.256 645.232C244.608 646.832 249.856 644.736 253.584 642.336C257.312 639.936 262.304 632.272 263.6 630.24L267.44 631.84C273.6 634.288 279.744 636.64 285.712 639.264C287.808 640.16 289.84 641.136 291.888 642.08C290.448 641.728 289.248 641.44 289.056 641.424C283.248 640.656 271.6 642.592 268.784 648.512C268.345 649.511 268.122 650.591 268.13 651.682C268.138 652.773 268.377 653.85 268.83 654.843C269.283 655.835 269.941 656.721 270.76 657.441C271.579 658.162 272.542 658.701 273.584 659.024C277.952 660.624 283.264 658.528 286.912 656.128C290.56 653.728 295.136 646.816 296.704 644.416C298.752 645.456 300.816 646.496 302.768 647.616C304.08 648.4 305.408 649.056 306.688 649.92L310.496 652.368C312.848 653.968 315.296 655.696 317.568 657.36C319.168 658.512 320.64 659.632 322.144 660.752C320.064 659.84 315.952 658.112 315.584 658.016C309.968 656.416 298.144 656.528 294.48 661.952C293.893 662.87 293.506 663.902 293.345 664.979C293.184 666.057 293.252 667.157 293.545 668.206C293.838 669.256 294.349 670.232 295.045 671.07C295.741 671.909 296.606 672.591 297.584 673.072C301.648 675.264 307.184 674.048 311.2 672.224C315.568 670.224 322.4 662.496 323.168 661.52C325.648 663.392 328.048 665.232 330.272 667.008C336.768 672.144 342.176 676.768 346.272 680.384L349.472 677.472C345.184 673.856 339.456 669.152 332.56 663.936C330.048 662.032 327.328 660.032 324.56 658.016C326.037 655.06 327.34 652.02 328.464 648.912C333.376 649.408 342.624 646.864 343.824 646.528C344.864 649.456 345.84 652.32 346.72 655.024C349.248 662.752 351.184 669.424 352.608 674.72L356.192 671.52C354.704 666.576 352.784 660.544 350.4 653.744C349.36 650.768 348.192 647.616 346.944 644.384C348.048 643.76 356.944 638.576 359.744 634.672C362.288 631.12 364.544 625.888 363.168 621.456C362.878 620.408 362.37 619.432 361.679 618.592C360.988 617.752 360.129 617.066 359.156 616.579C358.184 616.092 357.12 615.815 356.033 615.764C354.946 615.714 353.861 615.893 352.848 616.288C346.816 618.864 344.416 630.432 344.944 636.256C344.944 636.608 345.744 640.304 346.256 642.656C345.744 641.328 345.264 640.048 344.656 638.704C343.6 636.016 342.464 633.376 341.264 630.528C340.624 629.168 340 627.808 339.344 626.432C338.688 625.056 337.92 623.664 337.2 622.256C335.488 619.056 333.584 615.856 331.584 612.656C333.936 611.728 342.208 608.304 345.28 605.168C348.352 602.032 351.36 597.168 350.656 592.64C350.532 591.559 350.182 590.516 349.628 589.579C349.075 588.642 348.33 587.833 347.442 587.203C346.554 586.574 345.544 586.138 344.477 585.925C343.409 585.713 342.309 585.727 341.248 585.968C334.848 587.568 330.768 598.672 330.416 604.512C330.416 604.864 330.608 609.088 330.768 611.408C329.552 609.52 328.352 607.632 327.072 605.76C323.36 600.368 319.424 595.024 315.536 589.68C314.336 588.08 313.168 586.4 312 584.752C312.832 584.432 322.752 580.576 326.192 577.072C329.248 573.872 332.272 569.072 331.584 564.528C331.458 563.446 331.106 562.403 330.551 561.466C329.995 560.529 329.249 559.72 328.36 559.09C327.471 558.461 326.459 558.026 325.391 557.813C324.323 557.601 323.222 557.615 322.16 557.856C315.76 559.456 311.68 570.56 311.328 576.4C311.328 576.848 311.616 582.912 311.776 584.4C309.184 580.768 306.64 577.136 304.272 573.456C301.044 568.506 298.147 563.348 295.6 558.016C295.984 557.872 306.352 553.888 309.872 550.288C312.928 547.088 315.952 542.288 315.264 537.76C315.14 536.679 314.79 535.636 314.236 534.699C313.683 533.762 312.938 532.953 312.05 532.323C311.162 531.694 310.152 531.258 309.085 531.045C308.017 530.833 306.917 530.847 305.856 531.088C299.456 532.688 295.376 543.792 295.024 549.632C295.024 550.016 295.232 554.64 295.392 556.832L295.04 556.928C292.606 551.498 290.667 545.859 289.248 540.08C288.432 536.88 287.824 533.824 287.296 530.832C289.296 530.288 298.496 527.712 301.984 524.816C305.472 521.92 308.896 517.568 308.72 512.944C308.711 511.855 308.474 510.781 308.023 509.79C307.572 508.798 306.919 507.913 306.104 507.191C305.29 506.468 304.333 505.925 303.295 505.596C302.257 505.266 301.162 505.159 300.08 505.28C293.6 506.192 288.272 516.752 287.28 522.528C287.28 522.832 287.024 526.08 286.912 528.448C286.704 527.088 286.448 525.696 286.272 524.384C285.584 519.472 285.248 514.944 284.976 510.928C284.848 508.64 284.784 506.56 284.736 504.624C286.416 503.024 293.168 496.624 294.928 492.576C296.688 488.528 297.728 482.976 295.44 478.944C294.933 477.979 294.229 477.132 293.373 476.457C292.517 475.782 291.529 475.296 290.472 475.029C289.415 474.761 288.314 474.72 287.241 474.906C286.167 475.093 285.144 475.504 284.24 476.112C278.896 479.92 279.04 491.744 280.816 497.328C280.976 497.808 284.224 505.072 284.32 504.992L284.416 504.896C284.416 506.752 284.416 508.752 284.544 510.944C284.72 514.976 284.944 519.536 285.536 524.48C286.113 529.807 287 535.096 288.192 540.32C289.498 546.185 291.329 551.92 293.664 557.456L293.76 557.648C292.512 556.192 288.88 552.24 288.56 551.968C284.144 548.128 273.344 543.312 267.76 546.704C266.843 547.292 266.061 548.066 265.463 548.977C264.866 549.887 264.468 550.914 264.294 551.989C264.121 553.064 264.176 554.163 264.456 555.216C264.736 556.268 265.235 557.249 265.92 558.096C268.704 561.792 274.256 563.024 278.64 563.04C283.568 563.04 293.296 558.64 294.08 558.24C296.586 563.818 299.462 569.222 302.688 574.416C304.544 577.44 306.512 580.448 308.528 583.424C307.408 582.208 306.4 581.12 306.24 580.976C301.824 577.152 291.024 572.32 285.44 575.712C284.523 576.3 283.741 577.074 283.143 577.985C282.546 578.895 282.148 579.922 281.974 580.997C281.801 582.072 281.856 583.171 282.136 584.224C282.416 585.276 282.915 586.257 283.6 587.104C286.368 590.816 291.936 592.032 296.32 592.048C300.704 592.064 309.12 588.464 311.328 587.488C312.112 588.624 312.928 589.776 313.68 590.912C317.456 596.336 321.248 601.76 324.88 607.168C326.144 609.088 327.312 611.008 328.48 612.928C327.488 611.84 326.64 610.944 326.496 610.816C322.08 606.976 311.28 602.16 305.696 605.552C304.78 606.141 303.999 606.916 303.404 607.828C302.808 608.739 302.411 609.765 302.239 610.84C302.067 611.915 302.123 613.015 302.405 614.066C302.686 615.118 303.186 616.099 303.872 616.944C306.64 620.64 312.208 621.872 316.576 621.888C320.944 621.904 328.576 618.688 331.2 617.504C332.352 619.504 333.504 621.504 334.512 623.504C335.184 624.88 335.92 626.16 336.496 627.584C337.072 629.008 337.728 630.368 338.32 631.728C339.392 634.416 340.496 637.168 341.52 639.808C342.208 641.632 342.832 643.392 343.456 645.152C342.24 643.232 339.744 639.536 339.504 639.248C336.017 635.442 331.609 632.599 326.704 630.992C326.34 630.548 325.932 630.14 325.488 629.776C324.669 629.06 323.709 628.523 322.669 628.202C321.629 627.881 320.534 627.782 319.453 627.912C318.373 628.042 317.332 628.397 316.398 628.955C315.464 629.514 314.658 630.262 314.032 631.152C310.416 636.624 314.8 647.6 318.464 652.176C318.672 652.448 321.344 655.104 323.056 656.752L319.44 654.4C317.088 652.8 314.64 651.2 312.112 649.456L308.256 647.088C306.976 646.272 305.536 645.568 304.16 644.8C300.96 643.072 297.616 641.472 294.224 640C295.664 637.936 300.624 630.528 301.504 626.208C302.384 621.888 302.176 616.224 299.088 612.784C298.386 611.952 297.518 611.276 296.538 610.802C295.558 610.327 294.49 610.064 293.402 610.029C292.314 609.994 291.231 610.189 290.223 610.6C289.215 611.011 288.305 611.63 287.552 612.416C283.152 617.216 285.824 628.784 288.736 633.856C288.928 634.176 291.424 637.568 292.848 639.408C290.8 638.512 288.752 637.6 286.656 636.752C280.576 634.304 274.352 631.952 268.16 629.696C266.256 628.992 264.368 628.256 262.48 627.536C263.008 626.816 269.152 618.128 270.08 613.296C270.912 609.008 270.768 603.312 267.664 599.872C266.962 599.04 266.094 598.364 265.114 597.89C264.134 597.415 263.066 597.152 261.978 597.117C260.89 597.082 259.807 597.277 258.799 597.688C257.791 598.099 256.881 598.718 256.128 599.504C251.728 604.304 254.4 615.872 257.328 620.944C257.536 621.328 261.152 626.208 262.128 627.344C257.968 625.744 253.84 624.144 249.824 622.368C244.403 620.02 239.143 617.316 234.08 614.272C234.32 613.936 240.784 604.896 241.728 599.952C242.544 595.664 242.4 589.968 239.312 586.528C238.61 585.696 237.742 585.02 236.762 584.546C235.782 584.071 234.714 583.808 233.626 583.773C232.538 583.738 231.455 583.933 230.447 584.344C229.439 584.755 228.529 585.374 227.776 586.16C223.376 590.96 226.048 602.528 228.96 607.6C229.152 607.936 231.904 611.664 233.264 613.408L233.008 613.68C227.989 610.487 223.266 606.851 218.896 602.816C216.448 600.624 214.24 598.4 212.144 596.176C213.52 594.576 219.728 587.424 221.088 583.056C222.448 578.688 222.848 573.2 220.16 569.456C219.55 568.554 218.757 567.79 217.833 567.214C216.909 566.638 215.874 566.262 214.796 566.111C213.717 565.96 212.619 566.038 211.573 566.338C210.526 566.639 209.554 567.156 208.72 567.856C203.824 572.208 205.216 583.952 207.552 589.312C207.68 589.6 209.312 592.416 210.528 594.448C209.6 593.44 208.624 592.416 207.744 591.424C204.544 587.712 201.68 584.112 199.248 580.896C197.872 579.056 196.672 577.376 195.552 575.792C196.112 573.552 198.224 564.512 197.424 560.112C196.624 555.712 194.448 550.512 190.32 548.464C189.367 547.94 188.315 547.623 187.231 547.532C186.147 547.442 185.057 547.581 184.03 547.94C183.004 548.3 182.065 548.871 181.274 549.617C180.483 550.364 179.858 551.268 179.44 552.272C177.088 558.384 183.728 568.16 188.272 571.84C188.672 572.16 195.392 576.416 195.424 576.304C195.427 576.256 195.427 576.208 195.424 576.16C196.464 577.76 197.6 579.36 198.864 581.152C201.232 584.352 203.952 588.096 207.168 591.888C210.593 596.015 214.252 599.941 218.128 603.648C222.456 607.786 227.141 611.533 232.128 614.848L232.32 614.96C230.48 614.432 225.264 613.136 224.848 613.088C219.04 612.32 207.392 614.256 204.576 620.176C204.137 621.176 203.914 622.257 203.922 623.35C203.93 624.442 204.168 625.52 204.621 626.514C205.074 627.507 205.732 628.394 206.551 629.116C207.371 629.838 208.333 630.379 209.376 630.704C213.744 632.272 219.056 630.24 222.704 627.824Z" fill="#9C9C9C"/>
<path d="M522.048 221.936C525.472 227.664 537.808 236.064 537.824 236.064C537.84 236.064 540.896 226.256 541.024 225.6C542.336 218.128 540.48 202.896 533.024 198.928C531.757 198.303 530.373 197.952 528.961 197.897C527.549 197.842 526.142 198.085 524.83 198.611C523.519 199.136 522.332 199.931 521.348 200.945C520.365 201.959 519.605 203.169 519.12 204.496C516.8 210.064 519.136 217.072 522.048 221.936Z" fill="#9C9C9C"/>
<path d="M643.024 312.4C643.024 312.544 651.024 305.904 651.456 305.424C656.688 299.904 663.536 286.224 659.456 278.72C658.744 277.499 657.783 276.442 656.635 275.618C655.487 274.793 654.179 274.22 652.795 273.934C651.41 273.649 649.982 273.659 648.602 273.962C647.221 274.266 645.921 274.856 644.784 275.696C639.84 279.104 637.936 286.24 637.664 291.904C637.36 298.56 643.024 312.384 643.024 312.4Z" fill="#9C9C9C"/>
<path d="M501.104 260.128C505.728 264.56 518.816 269.168 519.856 269.52C517.216 277.001 515.078 284.65 513.456 292.416C512.48 296.928 511.632 301.52 510.848 306.128C510.848 303.968 510.848 302.032 510.848 301.76C510.144 294.208 504.336 280 496.032 278.16C494.644 277.89 493.215 277.915 491.838 278.234C490.46 278.553 489.166 279.159 488.038 280.012C486.91 280.865 485.975 281.946 485.293 283.184C484.611 284.423 484.198 285.791 484.08 287.2C483.376 293.168 487.504 299.312 491.6 303.2C495.696 307.088 506.832 311.344 509.776 312.4C509.488 314.16 509.184 315.936 508.912 317.696C507.584 326.192 506.304 334.672 504.784 342.96C504.256 345.872 503.616 348.736 502.992 351.6C502.992 349.68 502.992 348.064 502.992 347.824C502.288 340.256 496.48 326.064 488.176 324.208C486.788 323.94 485.359 323.968 483.983 324.289C482.606 324.61 481.313 325.218 480.187 326.072C479.061 326.927 478.127 328.009 477.447 329.248C476.767 330.487 476.356 331.855 476.24 333.264C475.536 339.216 479.648 345.36 483.744 349.264C487.84 353.168 497.904 356.976 501.344 358.256C500.624 361.168 499.904 364.08 499.072 366.864C498.448 368.752 498 370.608 497.28 372.48L495.264 378C493.872 381.456 492.448 385.04 490.992 388.4C490 390.72 489.008 392.928 488.016 395.152C488.576 392.256 489.616 386.56 489.616 386.08C490.064 378.496 486.416 363.584 478.544 360.48C477.212 360.003 475.795 359.812 474.385 359.919C472.974 360.026 471.602 360.43 470.358 361.103C469.114 361.777 468.026 362.705 467.165 363.827C466.304 364.949 465.689 366.24 465.36 367.616C463.76 373.392 466.96 380.096 470.352 384.592C474.16 389.552 485.888 395.888 487.36 396.672C485.76 400.336 484.064 403.904 482.464 407.232C477.824 416.944 473.536 425.104 470.144 431.36L474.768 434.656C478.128 428.256 482.416 419.6 487.024 409.36C488.72 405.632 490.464 401.616 492.208 397.472C496.37 398.5 500.592 399.275 504.848 399.792C505.648 406.192 511.52 417.136 512.288 418.544C508.88 420.704 505.552 422.768 502.368 424.656C493.328 430.096 485.376 434.48 479.152 437.792L484.192 441.392C490.032 438.096 497.104 433.936 504.992 428.96C508.464 426.784 512.128 424.384 515.856 421.888C516.96 423.104 526.08 432.864 531.856 435.296C537.088 437.488 544.352 438.848 549.552 435.824C550.799 435.16 551.893 434.24 552.76 433.124C553.628 432.008 554.25 430.722 554.587 429.349C554.924 427.977 554.967 426.549 554.714 425.158C554.462 423.768 553.918 422.446 553.12 421.28C548.128 414.384 532.8 414.688 525.568 417.04C525.152 417.184 520.688 419.2 517.904 420.528C519.424 419.504 520.912 418.512 522.464 417.44C525.552 415.328 528.576 413.136 531.824 410.8L536.464 407.2C538.064 406.016 539.552 404.592 541.12 403.28C544.688 400.176 548.16 396.88 551.568 393.424C553.424 396.112 560.144 405.6 564.992 408.576C569.84 411.552 576.816 413.984 582.4 411.776C583.734 411.308 584.954 410.563 585.981 409.592C587.008 408.621 587.819 407.444 588.361 406.138C588.903 404.832 589.164 403.427 589.126 402.014C589.089 400.601 588.754 399.211 588.144 397.936C584.256 390.368 569.04 388.336 561.552 389.568C561.088 389.648 555.808 391.168 552.928 392C554.96 389.936 557.008 387.872 558.992 385.696C564.752 379.456 570.384 372.896 576.016 366.496C577.744 364.512 579.504 362.56 581.232 360.608C581.888 361.568 589.616 373.008 595.056 376.352C599.856 379.312 606.88 381.76 612.48 379.552C613.812 379.082 615.031 378.337 616.056 377.364C617.082 376.392 617.891 375.215 618.431 373.91C618.972 372.604 619.231 371.199 619.192 369.787C619.154 368.375 618.819 366.986 618.208 365.712C614.32 358.144 599.104 356.112 591.616 357.344C591.056 357.424 583.456 359.584 581.552 360.224C585.392 355.904 589.248 351.632 593.232 347.568C598.573 342.064 604.265 336.912 610.272 332.144C610.576 332.592 618.592 344.576 624.16 348C628.96 350.96 635.984 353.392 641.584 351.2C642.916 350.73 644.135 349.985 645.16 349.012C646.186 348.04 646.995 346.863 647.535 345.558C648.076 344.252 648.335 342.847 648.296 341.435C648.258 340.023 647.923 338.634 647.312 337.36C643.424 329.792 628.208 327.76 620.72 329.008C620.224 329.008 614.448 330.72 611.712 331.552L611.488 331.12C617.668 326.486 624.249 322.411 631.152 318.944C634.928 316.992 638.64 315.344 642.352 313.808C643.616 316.192 649.52 327.024 654.192 330.656C658.864 334.288 665.392 337.328 671.152 335.76C672.527 335.439 673.82 334.833 674.945 333.98C676.071 333.127 677.005 332.046 677.685 330.809C678.366 329.571 678.778 328.204 678.896 326.797C679.014 325.39 678.834 323.973 678.368 322.64C675.328 314.64 660.448 310.992 652.864 311.44C652.448 311.44 648.272 312.16 645.248 312.688C646.848 312.032 648.608 311.312 650.208 310.704C656.224 308.416 661.856 306.688 666.88 305.2C669.728 304.368 672.336 303.6 674.768 303.056C677.232 304.752 687.232 311.456 692.96 312.496C698.688 313.536 705.936 313.28 710.352 309.216C711.426 308.297 712.294 307.162 712.9 305.886C713.506 304.609 713.836 303.219 713.869 301.806C713.902 300.394 713.638 298.99 713.092 297.686C712.547 296.382 711.733 295.208 710.704 294.24C704.304 288.592 689.44 292.176 682.896 296.016C682.32 296.352 674.08 302.576 674.208 302.672L674.352 302.768C672 303.312 669.472 303.936 666.72 304.656C661.68 306.048 655.968 307.664 649.888 309.824C643.307 312.117 636.864 314.788 630.592 317.824C623.553 321.171 616.823 325.133 610.48 329.664L610.272 329.84C611.744 327.84 615.712 322.112 615.968 321.632C619.552 314.928 622.544 299.888 616.64 293.76C615.628 292.774 614.42 292.011 613.095 291.521C611.77 291.031 610.357 290.824 608.947 290.915C607.536 291.005 606.161 291.39 604.909 292.046C603.658 292.701 602.557 293.612 601.68 294.72C597.808 299.312 597.856 306.704 599.104 312.24C600.512 318.48 608.88 329.536 609.552 330.416C603.218 335.194 597.21 340.39 591.568 345.968C588.256 349.168 585.04 352.56 581.84 355.968C583.072 354.192 584.144 352.592 584.272 352.352C587.856 345.664 590.848 330.608 584.944 324.496C583.936 323.505 582.73 322.739 581.406 322.246C580.081 321.753 578.668 321.545 577.257 321.636C575.847 321.726 574.472 322.113 573.221 322.772C571.971 323.43 570.873 324.345 570 325.456C566.112 330.032 566.16 337.424 567.408 342.96C568.656 348.496 575.632 358.16 577.504 360.656L573.856 364.608C568.064 371.008 562.32 377.328 556.48 383.392C554.432 385.536 552.32 387.568 550.224 389.616C551.312 388.016 552.224 386.704 552.336 386.416C555.92 379.728 558.912 364.672 553.008 358.56C551.998 357.57 550.792 356.804 549.467 356.312C548.142 355.819 546.728 355.61 545.318 355.699C543.907 355.788 542.531 356.173 541.278 356.828C540.026 357.484 538.925 358.395 538.048 359.504C534.176 364.096 534.224 371.488 535.472 377.024C536.72 382.56 543.008 391.28 545.232 394.272C543.024 396.288 540.816 398.32 538.576 400.192C536.976 401.424 535.616 402.72 533.984 403.888L529.264 407.376C526.192 409.504 523.024 411.696 519.968 413.696C517.84 415.088 515.808 416.384 513.744 417.696C515.824 415.584 519.792 411.376 520.144 410.992C523.949 405.496 526.285 399.118 526.928 392.464C527.38 391.872 527.776 391.24 528.112 390.576C528.783 389.332 529.184 387.96 529.29 386.55C529.397 385.141 529.205 383.724 528.728 382.393C528.251 381.063 527.5 379.847 526.523 378.825C525.546 377.804 524.364 376.999 523.056 376.464C515.056 373.472 502.464 382.176 497.744 388.128C497.456 388.48 494.864 392.624 493.264 395.264C493.968 393.568 494.672 391.936 495.376 390.176C496.784 386.72 498.096 383.232 499.504 379.472C500.128 377.632 500.768 375.776 501.392 373.904C502.016 372.032 502.528 370.032 503.12 368.08C504.384 363.504 505.44 358.832 506.4 354.08C509.424 355.312 520.256 359.52 525.952 359.328C531.648 359.136 538.752 357.312 542.256 352.4C543.108 351.272 543.713 349.978 544.031 348.601C544.35 347.225 544.375 345.796 544.105 344.409C543.834 343.022 543.275 341.707 542.463 340.551C541.651 339.394 540.605 338.421 539.392 337.696C531.984 333.52 518.176 340.224 512.608 345.376C512.256 345.712 508.672 349.856 506.752 352.176C507.296 349.328 507.872 346.48 508.352 343.568C509.696 335.168 510.8 326.64 511.952 318.128C512.288 315.52 512.672 312.928 513.04 310.336C514.112 310.784 526.88 316.064 533.264 315.84C538.928 315.648 546.064 313.824 549.552 308.912C550.405 307.785 551.01 306.492 551.33 305.116C551.65 303.74 551.676 302.312 551.408 300.925C551.139 299.538 550.581 298.223 549.771 297.066C548.96 295.908 547.915 294.935 546.704 294.208C539.28 290.048 525.472 296.736 519.904 301.904C519.488 302.288 514.336 308.304 513.104 309.904C513.92 304.192 514.704 298.496 515.856 292.912C517.291 285.367 519.21 277.923 521.6 270.624C522.096 270.832 535.392 276.416 541.936 276.192C547.6 275.984 554.736 274.176 558.224 269.264C559.077 268.136 559.683 266.841 560.003 265.464C560.323 264.087 560.349 262.657 560.08 261.269C559.812 259.881 559.254 258.565 558.444 257.406C557.633 256.247 556.588 255.272 555.376 254.544C547.952 250.384 534.16 257.072 528.576 262.24C528.208 262.576 524.288 267.136 522.464 269.344L522.048 269.104C524.615 261.834 527.827 254.809 531.648 248.112C533.728 244.4 535.904 240.96 538.048 237.664C540.416 238.96 551.312 244.736 557.248 245.2C562.912 245.616 570.224 244.592 574.208 240.096C575.178 239.069 575.921 237.849 576.389 236.516C576.857 235.182 577.038 233.765 576.922 232.357C576.806 230.949 576.394 229.581 575.714 228.342C575.035 227.104 574.101 226.022 572.976 225.168C566.064 220.208 551.616 225.344 545.504 229.872C545.184 230.112 542.08 232.976 539.856 235.104C540.864 233.632 541.888 232.096 542.896 230.704C546.64 225.488 550.4 220.928 553.744 216.912C555.68 214.656 557.472 212.64 559.152 210.784C562.144 210.784 574.192 210.912 579.536 208.624C584.88 206.336 590.736 202.112 592.24 196.288C592.629 194.927 592.726 193.499 592.526 192.098C592.325 190.696 591.831 189.353 591.076 188.156C590.321 186.958 589.322 185.933 588.144 185.148C586.966 184.363 585.636 183.836 584.24 183.6C575.824 182.384 565.36 193.616 562.016 200.432C561.728 201.024 558.288 210.768 558.432 210.768H558.624C557.024 212.528 555.184 214.432 553.296 216.56C549.856 220.496 545.984 224.992 542.096 230.144C537.856 235.667 533.94 241.431 530.368 247.408C526.346 254.083 522.924 261.103 520.144 268.384L520.048 268.656C520.192 266.16 520.32 259.2 520.272 258.656C519.568 251.088 513.76 236.896 505.456 235.056C504.069 234.788 502.642 234.815 501.266 235.136C499.891 235.456 498.598 236.062 497.472 236.915C496.347 237.767 495.413 238.848 494.732 240.085C494.051 241.322 493.638 242.689 493.52 244.096C492.896 250.064 497.008 256.208 501.104 260.128Z" fill="#9C9C9C"/>
<path d="M597.872 541.776V536.416C597.872 508.816 632.816 507.616 632.816 487.968C632.816 479.44 625.872 473.872 615.536 473.872C604.224 473.872 597.072 480.032 597.072 488.768V490.96C597.072 493.136 595.888 494.16 593.696 494.16L572.464 493.36C570.48 493.36 569.088 492.368 569.088 490.992V488.8C569.088 464.8 588.144 448.304 616.144 448.304C643.536 448.304 661.2 463.792 661.2 487.008C661.2 519.968 625.664 520.176 625.664 538.208V541.776C625.718 542.232 625.668 542.695 625.517 543.129C625.367 543.563 625.119 543.958 624.795 544.283C624.47 544.608 624.075 544.855 623.641 545.005C623.207 545.156 622.744 545.206 622.288 545.152H601.248C600.792 545.206 600.329 545.156 599.895 545.005C599.461 544.855 599.066 544.608 598.741 544.283C598.416 543.958 598.169 543.563 598.019 543.129C597.868 542.695 597.818 542.232 597.872 541.776ZM596.08 573.776C596.08 565.04 603.824 557.888 613.152 557.888C622.096 557.888 630.032 565.04 630.032 573.776C630.032 582.512 622.032 589.664 612.96 589.664C603.888 589.664 596.08 582.48 596.08 573.744V573.776Z" fill="#263238"/>
<path d="M178.352 314.416V309.76C178.352 285.76 208.752 284.752 208.752 267.68C208.752 260.256 202.72 255.44 193.76 255.44C183.92 255.44 177.76 260.784 177.76 268.368V270.272C177.76 272.16 176.736 273.024 174.832 273.024L156.384 272.336C154.656 272.336 153.456 271.472 153.456 270.272V268.368C153.456 247.568 170 233.168 194.32 233.168C218.112 233.168 233.472 246.624 233.472 266.768C233.472 295.392 202.592 295.568 202.592 311.264V314.368C202.638 314.764 202.594 315.165 202.463 315.541C202.333 315.917 202.118 316.259 201.837 316.541C201.555 316.822 201.213 317.036 200.837 317.167C200.461 317.298 200.06 317.342 199.664 317.296H181.28C180.889 317.341 180.493 317.298 180.12 317.169C179.748 317.041 179.409 316.831 179.128 316.555C178.847 316.279 178.632 315.944 178.498 315.574C178.363 315.203 178.314 314.808 178.352 314.416ZM176.752 342.176C176.752 334.592 183.472 328.384 191.568 328.384C199.328 328.384 206.24 334.592 206.24 342.176C206.24 349.76 199.328 355.968 191.408 355.968C187.646 356.063 183.998 354.666 181.262 352.082C178.525 349.499 176.921 345.938 176.8 342.176H176.752Z" fill="#FF6F61"/>
<path d="M564.528 130.816V128.464C564.528 116.352 579.856 115.824 579.856 107.2C579.856 103.456 576.8 101.008 572.272 101.008C567.312 101.008 564.176 103.712 564.176 107.552V108.512C564.176 109.472 563.648 109.904 562.688 109.904L553.376 109.552C552.496 109.552 551.888 109.12 551.888 108.512V107.552C551.888 97.0079 560.256 89.7759 572.544 89.7759C584.56 89.7759 592.32 96.5759 592.32 106.768C592.32 121.168 576.72 121.312 576.72 129.168V130.768C576.743 130.968 576.721 131.171 576.654 131.362C576.588 131.552 576.478 131.725 576.335 131.867C576.192 132.009 576.018 132.116 575.827 132.181C575.635 132.245 575.432 132.266 575.232 132.24H566C565.805 132.265 565.607 132.245 565.42 132.183C565.234 132.121 565.063 132.018 564.922 131.881C564.781 131.745 564.672 131.578 564.604 131.393C564.535 131.209 564.51 131.012 564.528 130.816ZM563.744 144.848C563.641 143.352 563.991 141.859 564.748 140.565C565.505 139.27 566.633 138.233 567.987 137.589C569.342 136.945 570.858 136.722 572.34 136.952C573.822 137.181 575.201 137.851 576.297 138.874C577.393 139.897 578.156 141.227 578.487 142.689C578.817 144.152 578.7 145.68 578.15 147.075C577.6 148.471 576.643 149.668 575.404 150.512C574.164 151.356 572.7 151.808 571.2 151.808C570.253 151.842 569.309 151.689 568.421 151.357C567.533 151.026 566.72 150.522 566.027 149.876C565.334 149.229 564.776 148.452 564.384 147.589C563.993 146.727 563.775 145.795 563.744 144.848Z" fill="#3A5589"/>
<path d="M115.2 454.4V451.44C115.2 436.176 134.528 435.52 134.528 424.64C134.528 419.92 130.688 416.848 124.928 416.848C118.672 416.848 114.72 420.256 114.72 425.088V426.288C114.72 427.504 114.064 428.048 112.848 428.048L101.104 427.616C99.9999 427.616 99.2319 427.056 99.2319 426.288V425.088C99.2319 411.808 109.776 402.688 125.264 402.688C140.416 402.688 150.176 411.248 150.176 424.096C150.176 442.32 130.528 442.432 130.528 452.432V454.4C130.559 454.653 130.532 454.91 130.449 455.152C130.366 455.393 130.229 455.612 130.048 455.792C129.868 455.973 129.649 456.11 129.408 456.193C129.166 456.276 128.909 456.303 128.656 456.272H117.04C116.789 456.298 116.536 456.267 116.299 456.181C116.061 456.096 115.846 455.958 115.67 455.778C115.493 455.599 115.359 455.381 115.278 455.143C115.196 454.904 115.17 454.65 115.2 454.4ZM114.208 472.08C114.083 470.195 114.528 468.316 115.485 466.687C116.443 465.059 117.869 463.756 119.577 462.95C121.285 462.143 123.196 461.869 125.062 462.163C126.929 462.458 128.663 463.307 130.039 464.601C131.416 465.895 132.371 467.574 132.78 469.418C133.189 471.262 133.034 473.187 132.334 474.942C131.634 476.697 130.422 478.2 128.855 479.256C127.289 480.312 125.441 480.873 123.552 480.864C121.144 480.942 118.804 480.06 117.046 478.413C115.287 476.766 114.255 474.488 114.176 472.08H114.208Z" stroke="#263238" stroke-miterlimit="10"/>
<path d="M262.4 178.208V176.176C262.4 165.68 275.696 165.216 275.696 157.744C275.696 154.544 273.056 152.384 269.12 152.384C264.816 152.384 262.096 154.72 262.096 158.048V158.88C262.096 159.712 261.648 160.08 260.816 160.08L252.816 159.776C252.064 159.776 251.536 159.408 251.536 158.88V158.048C251.536 148.912 258.784 142.64 269.424 142.64C280.064 142.64 286.4 148.528 286.4 157.36C286.4 169.904 272.88 169.984 272.88 176.848V178.208C272.9 178.381 272.882 178.556 272.824 178.721C272.767 178.886 272.674 179.035 272.551 179.159C272.427 179.282 272.278 179.375 272.113 179.432C271.948 179.49 271.773 179.508 271.6 179.488H263.6C263.433 179.496 263.267 179.468 263.112 179.405C262.957 179.342 262.818 179.247 262.704 179.125C262.59 179.003 262.504 178.858 262.451 178.7C262.399 178.542 262.381 178.374 262.4 178.208ZM261.728 190.368C261.657 189.089 261.972 187.819 262.631 186.722C263.29 185.624 264.263 184.749 265.425 184.21C266.586 183.671 267.883 183.493 269.147 183.699C270.41 183.905 271.583 184.485 272.514 185.364C273.445 186.244 274.09 187.382 274.367 188.632C274.644 189.882 274.539 191.187 274.067 192.377C273.595 193.567 272.776 194.588 271.717 195.308C270.659 196.028 269.408 196.414 268.128 196.416C266.475 196.472 264.868 195.87 263.659 194.742C262.45 193.614 261.738 192.052 261.68 190.4L261.728 190.368Z" fill="#263238"/>
<path d="M499.2 616.848V614.816C499.2 604.32 512.496 603.872 512.496 596.384C512.496 593.184 509.856 591.024 505.92 591.024C501.616 591.024 498.896 593.36 498.896 596.688V597.52C498.896 598.352 498.448 598.736 497.616 598.736L489.616 598.432C488.864 598.432 488.336 598.048 488.336 597.52V596.688C488.336 587.552 495.584 581.28 506.224 581.28C516.864 581.28 523.376 587.168 523.376 596.016C523.376 608.544 509.856 608.624 509.856 615.488V616.848C509.876 617.021 509.857 617.197 509.8 617.363C509.743 617.528 509.65 617.678 509.527 617.803C509.404 617.927 509.255 618.022 509.09 618.081C508.926 618.14 508.75 618.162 508.576 618.144H500.576C500.395 618.178 500.208 618.169 500.031 618.117C499.854 618.066 499.692 617.973 499.558 617.846C499.423 617.72 499.321 617.564 499.259 617.39C499.197 617.217 499.177 617.031 499.2 616.848ZM498.528 629.008C498.458 627.729 498.772 626.459 499.431 625.361C500.09 624.264 501.064 623.389 502.225 622.85C503.387 622.311 504.683 622.133 505.947 622.339C507.21 622.545 508.383 623.125 509.314 624.004C510.245 624.884 510.89 626.022 511.167 627.272C511.444 628.522 511.339 629.827 510.867 631.017C510.395 632.207 509.576 633.228 508.517 633.948C507.459 634.668 506.208 635.054 504.928 635.056C503.281 635.095 501.685 634.48 500.49 633.347C499.294 632.214 498.594 630.654 498.544 629.008H498.528Z" stroke="#263238" stroke-miterlimit="10"/>
<path d="M436.56 653.264C436.448 652.928 436.336 652.592 436.208 652.256C436.08 651.92 435.984 651.568 435.856 651.232C435.728 650.896 435.632 650.56 435.504 650.224C435.376 649.888 435.28 649.536 435.152 649.2C435.024 648.864 434.928 648.528 434.8 648.192C434.672 647.856 434.576 647.504 434.448 647.168L434.096 646.16C433.984 645.808 433.856 645.472 433.744 645.136L433.392 644.128C433.28 643.776 433.152 643.44 433.04 643.104L432.688 642.096C432.576 641.744 432.448 641.408 432.336 641.072L432 640C431.888 639.648 431.76 639.312 431.648 638.976L431.28 637.968C431.168 637.616 431.056 637.28 430.928 636.944C430.8 636.608 430.704 636.272 430.576 635.936C430.448 635.6 430.352 635.248 430.224 634.912C430.096 634.576 430 634.24 429.872 633.904C424.656 618.032 408.528 606.384 390.784 606.384C373.584 606.384 358.624 616.4 352.384 630.512C352.224 630.832 352.08 631.168 351.936 631.488L351.504 632.48C351.344 632.8 351.2 633.12 351.056 633.456C350.912 633.792 350.752 634.112 350.608 634.432L350.176 635.408C350.016 635.744 349.872 636.064 349.728 636.4C349.584 636.736 349.424 637.04 349.28 637.376C349.136 637.712 348.976 638.016 348.832 638.352L348.4 639.328C348.24 639.648 348.096 639.984 347.952 640.304C347.808 640.624 347.648 640.96 347.504 641.28L347.072 642.272C346.912 642.592 346.768 642.912 346.624 643.248C346.48 643.584 346.32 643.904 346.176 644.224L345.744 645.2C345.584 645.536 345.44 645.856 345.296 646.192C345.152 646.528 344.992 646.832 344.848 647.168L344.416 648.144C344.256 648.464 344.112 648.8 343.968 649.12C343.824 649.44 343.664 649.776 343.52 650.112C340.775 655.958 339.365 662.341 339.392 668.8C339.392 694.56 361.632 715.616 389.136 715.616C416.048 715.616 439.456 694.56 439.456 668.8C439.451 663.888 438.59 659.016 436.912 654.4C436.8 653.936 436.688 653.6 436.56 653.264Z" fill="#263238"/>
<path d="M398.496 298.88C315.984 298.88 259.808 347.44 259.808 418.256V424.656C259.823 425.714 260.111 426.749 260.643 427.663C261.176 428.577 261.935 429.338 262.848 429.872C263.193 430.204 263.568 430.504 263.968 430.768C264.315 431.105 264.696 431.405 265.104 431.664C265.451 432.001 265.832 432.301 266.24 432.56C266.584 432.901 266.965 433.201 267.376 433.456C267.717 433.793 268.093 434.093 268.496 434.352C268.842 434.694 269.223 435 269.632 435.264C269.983 435.597 270.363 435.896 270.768 436.16C271.116 436.496 271.496 436.796 271.904 437.056C272.246 437.392 272.621 437.692 273.024 437.952C273.4 438.314 273.813 438.636 274.256 438.912C274.582 439.209 274.93 439.482 275.296 439.728C275.647 440.06 276.027 440.36 276.432 440.624C276.777 440.956 277.152 441.256 277.552 441.52C277.903 441.853 278.283 442.152 278.688 442.416C279.036 442.752 279.416 443.052 279.824 443.312C280.166 443.648 280.541 443.948 280.944 444.208C281.292 444.544 281.672 444.844 282.08 445.104C282.422 445.44 282.797 445.74 283.2 446C283.551 446.332 283.931 446.632 284.336 446.896C284.678 447.232 285.053 447.532 285.456 447.792C287.305 449.419 289.717 450.257 292.176 450.128L343.632 452.048C348.928 452.048 351.808 449.648 351.808 444.352V439.072C351.808 417.904 369.12 403.008 396.608 403.008C421.616 403.008 438.448 416.464 438.448 437.152C438.449 439.51 438.224 441.862 437.776 444.176C411.952 478.032 344.736 492.96 344.736 558.672V574.48C344.736 580.88 348.24 584.416 354.688 584.416H416.64C423.04 584.416 426.592 580.912 426.592 574.48V563.936C426.592 510.688 531.344 510.096 531.344 412.96C531.344 344.512 479.248 298.88 398.496 298.88Z" fill="#263238"/>
<path d="M344.656 574.512V558.704C344.656 477.36 447.648 473.904 447.648 415.92C447.648 390.752 427.168 374.32 396.736 374.32C363.376 374.32 342.336 392.464 342.336 418.208V424.608C342.336 431.008 338.816 433.984 332.384 433.984L269.76 431.632C263.92 431.632 259.824 428.704 259.824 424.608V418.208C259.824 347.392 316 298.832 398.512 298.832C479.264 298.832 531.312 344.464 531.312 412.944C531.312 510.08 426.56 510.672 426.56 563.92V574.464C426.56 580.864 423.04 584.4 416.608 584.4H354.608C348.16 584.448 344.656 580.944 344.656 574.512ZM339.392 668.8C339.392 643.056 362.208 621.984 389.712 621.984C416.048 621.984 439.456 643.056 439.456 668.8C439.456 694.544 416 715.536 389.136 715.536C361.6 715.536 339.392 694.48 339.392 668.8Z" fill="#3A5589" stroke="#7B93FB" stroke-miterlimit="10"/>
<path d="M386.576 768C434.833 768 473.952 759.254 473.952 748.464C473.952 737.675 434.833 728.928 386.576 728.928C338.32 728.928 299.2 737.675 299.2 748.464C299.2 759.254 338.32 768 386.576 768Z" fill="#282D3C"/>
<path d="M319.792 305.36L316.448 312.656C316.448 312.656 297.024 314.752 297.024 316.208C297.024 317.664 297.232 327.696 298.288 328.112C299.091 328.425 299.981 328.425 300.784 328.112L329.392 320.8L332.112 307.856L319.792 305.36Z" fill="white" stroke="#263238" stroke-linecap="round" stroke-linejoin="round"/>
<path d="M314.352 318.4C310.8 321.31 306.968 323.862 302.912 326.016C298.288 328.096 298.112 331.248 299.584 331.248C301.056 331.248 314.112 325.776 314.112 325.776C314.112 325.776 325.968 322.672 327.68 321.728C329.392 320.784 329.584 315.536 329.584 315.536" fill="white"/>
<path d="M314.352 318.4C310.8 321.31 306.968 323.862 302.912 326.016C298.288 328.096 298.112 331.248 299.584 331.248C301.056 331.248 314.112 325.776 314.112 325.776C314.112 325.776 325.968 322.672 327.68 321.728C329.392 320.784 329.584 315.536 329.584 315.536" stroke="#263238" stroke-linecap="round" stroke-linejoin="round"/>
<path d="M336.88 165.168L324.944 256.656L316.64 306.192L335.072 310.544L348.816 251.952L355.328 215.072L336.88 165.168Z" fill="#7D7D7D" stroke="#263238" stroke-linecap="round" stroke-linejoin="round"/>
<path d="M433.2 98.9279L425.92 97.7759L411.008 92.1279L410.464 109.84L433.584 111.968L433.2 98.9279Z" fill="white" stroke="#263238" stroke-linecap="round" stroke-linejoin="round"/>
<path d="M348.096 423.36C342.67 429.686 337.601 436.31 332.912 443.2C326.752 452.608 328.928 462.72 336.528 465.264C344.128 467.808 353.872 460.912 356.416 455.488C358.96 450.064 358.224 447.184 362.192 441.76C366.16 436.336 369.424 430.912 367.984 423.68C366.544 416.448 352 418.304 348.096 423.36Z" fill="#7D7D7D" stroke="#263238" stroke-linecap="round" stroke-linejoin="round"/>
<path d="M355.68 456.848C355.168 455.76 354.576 454.608 353.872 453.376C348.064 443.152 337.872 443.968 331.472 445.872C327.264 454.464 329.664 463.008 336.56 465.312C343.456 467.616 352.352 461.984 355.68 456.848Z" fill="white" stroke="#263238" stroke-linecap="round" stroke-linejoin="round"/>
<path d="M353.872 453.376C351.712 456.576 348.816 465.312 337.6 461.696C334.472 460.893 331.675 459.131 329.6 456.656C329.842 458.607 330.626 460.452 331.861 461.981C333.097 463.511 334.735 464.665 336.592 465.312C344.176 467.84 353.936 460.96 356.48 455.536C359.024 450.112 358.288 447.232 362.256 441.808C366.224 436.384 369.488 430.96 368.048 423.728C368.048 432.4 364.848 433.84 360.816 438.544C356.784 443.248 356.048 450.112 353.872 453.376Z" fill="white" stroke="#263238" stroke-linecap="round" stroke-linejoin="round"/>
<path d="M454.8 423.36C460.226 429.686 465.295 436.31 469.984 443.2C476.144 452.608 473.968 462.72 466.368 465.264C458.768 467.808 449.024 460.912 446.48 455.488C443.936 450.064 444.672 447.184 440.704 441.76C436.736 436.336 433.472 430.912 434.912 423.68C436.352 416.448 450.832 418.304 454.8 423.36Z" fill="#7D7D7D" stroke="#263238" stroke-linecap="round" stroke-linejoin="round"/>
<path d="M447.232 456.848C447.728 455.76 448.32 454.608 449.024 453.376C454.832 443.152 465.024 443.968 471.424 445.872C475.632 454.464 473.232 463.008 466.336 465.312C459.44 467.616 450.544 461.984 447.232 456.848Z" fill="white" stroke="#263238" stroke-linecap="round" stroke-linejoin="round"/>
<path d="M449.024 453.376C451.184 456.576 454.08 465.312 465.296 461.696C468.424 460.893 471.221 459.131 473.296 456.656C473.054 458.607 472.27 460.452 471.035 461.981C469.799 463.511 468.161 464.665 466.304 465.312C458.72 467.84 448.96 460.96 446.416 455.536C443.872 450.112 444.608 447.232 440.64 441.808C436.672 436.384 433.408 430.96 434.848 423.728C434.848 432.4 438.048 433.84 442.08 438.544C446.112 443.248 446.848 450.112 449.024 453.376Z" fill="white" stroke="#263238" stroke-linecap="round" stroke-linejoin="round"/>
<path d="M471.76 298.608C471.76 292.096 460.56 284.864 460.56 284.864C443.68 267.696 413.216 269.968 401.968 271.504C390.768 269.904 360.272 267.696 343.392 284.864C343.392 284.864 332.192 292.096 332.192 298.608C332.192 305.12 346.304 422.64 346.304 422.64C346.304 422.64 345.936 428.784 356.064 429.504C366.192 430.224 370.464 424.448 370.464 424.448L374.448 325.008C374.448 325.008 390.72 313.424 393.648 313.072C394.704 312.928 396.08 312.704 397.616 312.512V312.704C400.481 312.106 403.439 312.106 406.304 312.704V312.512C407.904 312.704 409.2 312.928 410.272 313.072C413.168 313.424 429.472 325.008 429.472 325.008L433.456 424.448C433.456 424.448 437.792 430.224 447.856 429.504C457.92 428.784 457.616 422.64 457.616 422.64C457.616 422.64 471.76 305.12 471.76 298.608Z" fill="#263238" stroke="#263238" stroke-linecap="round" stroke-linejoin="round"/>
<path d="M429.456 325.008C429.456 325.008 427.28 301.136 437.776 292.096" stroke="#707070" stroke-linecap="round" stroke-linejoin="round"/>
<path d="M374.496 325.008C374.496 325.008 375.584 305.12 373.408 297.888C371.232 290.656 367.616 287.76 367.616 287.76" stroke="#707070" stroke-linecap="round" stroke-linejoin="round"/>
<path d="M387.872 277.632C387.872 277.632 399.44 291.008 401.616 302.224" stroke="#707070" stroke-linecap="round" stroke-linejoin="round"/>
<path d="M413.184 278.4C413.184 278.4 406.672 285.632 405.952 291.056" stroke="#707070" stroke-linecap="round" stroke-linejoin="round"/>
<path d="M396.912 137.696C396.912 137.696 386.432 136.24 382.816 139.856C379.2 143.472 366.896 156.8 366.896 156.8L373.408 271.792C373.408 271.792 388.24 277.584 400.896 277.584C413.552 277.584 428.016 272.88 431.296 270.352C434.576 267.824 431.664 144.512 431.664 144.512C431.664 144.512 404.8 136.608 396.912 137.696Z" fill="#FF6F61" stroke="#263238" stroke-linecap="round" stroke-linejoin="round"/>
<path d="M416.08 140.224C421.585 139.388 427.138 138.902 432.704 138.768C439.936 138.768 447.104 139.136 447.104 139.136L465.184 121.776L428.8 113.456L431.696 96.8321C431.696 96.8321 458.448 95.0241 471.824 97.5521C485.2 100.08 506.176 106.592 507.264 106.592C508.352 106.592 509.792 110.576 508.704 113.456C507.616 116.336 473.6 153.968 463.44 163.728C456.794 170.241 450.517 177.121 444.64 184.336L440 264.976C440 264.976 451.936 271.488 454.112 273.648C456.288 275.808 458.816 284.496 458.816 284.496C458.816 284.496 436.752 275.456 430.96 274.736C425.168 274.016 421.568 273.648 420.48 271.536C419.392 269.424 410.352 172.816 410.352 172.816L410.72 142.08C410.72 142.08 410.656 140.224 416.08 140.224Z" fill="#7D7D7D" stroke="#263238" stroke-linecap="round" stroke-linejoin="round"/>
<path d="M437.776 189.76L418.24 192.288L420.048 199.52L429.824 202.048L439.216 197.712L437.776 189.76Z" stroke="#263238" stroke-linecap="round" stroke-linejoin="round"/>
<path d="M448.976 146.368L444.64 184.336L455.856 152.16" stroke="#263238" stroke-linecap="round" stroke-linejoin="round"/>
<path d="M465.248 121.776C465.248 121.776 474.288 123.584 488.032 118.16" stroke="#263238" stroke-linecap="round" stroke-linejoin="round"/>
<path d="M474.656 124.304C480.595 124.469 486.534 123.986 492.368 122.864" stroke="#263238" stroke-linecap="round" stroke-linejoin="round"/>
<path d="M384.624 137.328L386.432 163.728C388.08 165.896 390.214 167.646 392.663 168.839C395.111 170.031 397.805 170.631 400.528 170.592C409.568 170.24 410.656 163.728 410.656 163.728V142.032L384.624 137.328Z" fill="white" stroke="#263238" stroke-linecap="round" stroke-linejoin="round"/>
<path d="M411.008 151.072L410.288 172.8L417.888 160.864C417.888 160.864 426.208 171.344 428.368 170.992C430.528 170.64 426.928 166.288 426.208 162.32C425.488 158.352 419.328 144.224 418.608 140.256C417.888 136.288 411.008 135.552 410.608 137.36C410.407 138.921 410.407 140.502 410.608 142.064L411.008 151.072Z" fill="#7D7D7D" stroke="#263238" stroke-linecap="round" stroke-linejoin="round"/>
<path d="M386.064 170.592C386.064 170.592 387.504 271.84 383.888 272.992C380.272 274.144 365.808 274.448 356.688 278.784C347.568 283.12 343.312 284.928 343.312 284.928C343.312 284.928 347.648 274.448 352.72 269.744C356.091 266.714 359.859 264.157 363.92 262.144L354.528 213.696C354.528 213.696 337.168 167.76 336.8 165.232C336.432 162.704 369.712 143.904 376.576 140.64C383.44 137.376 385.264 140.288 385.264 140.288L386.064 170.592Z" fill="#7D7D7D" stroke="#263238" stroke-linecap="round" stroke-linejoin="round"/>
<path d="M377.024 135.52C377.024 135.52 368.352 163.008 367.616 166.624C366.88 170.24 367.616 170.24 370.16 167.696C372.704 165.152 379.2 159.024 379.2 159.024L386.064 170.592L385.696 149.264V136.96C385.696 136.96 385.344 131.904 377.024 135.52Z" fill="#7D7D7D" stroke="#263238" stroke-linecap="round" stroke-linejoin="round"/>
<path d="M360.032 194.832H381.36L381.008 203.504L371.6 206.752L359.664 203.504L360.032 194.832Z" stroke="#263238" stroke-linecap="round" stroke-linejoin="round"/>
<path d="M418.608 99.728C418.608 99.728 423.664 121.776 424.752 125.328C425.84 128.88 418.976 143.056 416.752 146.304C415.906 147.713 414.741 148.904 413.352 149.782C411.963 150.66 410.387 151.2 408.752 151.36C406.224 151.36 392.48 146.672 389.216 144.496C385.952 142.32 382.72 139.792 382.72 139.792C381.182 140.493 379.472 140.731 377.801 140.475C376.13 140.219 374.57 139.481 373.312 138.352C368.976 134.368 363.184 129.664 364.624 126.416C365.325 124.822 366.5 123.482 367.988 122.578C369.476 121.674 371.206 121.249 372.944 121.36C376.928 121.36 375.488 120.992 375.488 120.992C375.488 120.992 368.256 110.512 368.256 102.192C368.256 93.872 383.792 87.792 392.832 87.792C399.083 88.0525 405.223 89.5251 410.912 92.128L418.608 99.728Z" fill="white" stroke="#263238" stroke-linecap="round" stroke-linejoin="round"/>
<path d="M405.952 108.032L412.464 120.336L405.952 124.672L403.056 121.056" stroke="#263238" stroke-linecap="round" stroke-linejoin="round"/>
<path d="M417.888 119.248C417.888 119.248 418.24 122.144 413.904 126.848" stroke="#263238" stroke-linecap="round" stroke-linejoin="round"/>
<path d="M399.088 112.56C399.088 114.256 398.352 115.632 397.488 115.632C396.624 115.632 395.888 114.256 395.888 112.56C395.888 110.864 396.624 109.488 397.488 109.488C398.352 109.488 399.088 110.864 399.088 112.56Z" fill="#263238"/>
<path d="M410.464 109.84C411.365 109.84 412.096 108.465 412.096 106.768C412.096 105.071 411.365 103.696 410.464 103.696C409.563 103.696 408.832 105.071 408.832 106.768C408.832 108.465 409.563 109.84 410.464 109.84Z" fill="#263238"/>
<path d="M379.552 80.912C379.552 80.912 356.8 89.232 356.048 99.728C355.296 110.224 376.304 124.672 377.392 126.48C378.48 128.288 381.728 124.304 381.728 124.304C381.005 123.333 380.5 122.216 380.249 121.031C379.998 119.847 380.006 118.621 380.272 117.44C381.36 113.824 386.064 109.44 386.064 107.68C386.064 105.92 380.64 109.12 380.64 103.696C380.64 98.272 394.016 95.024 401.968 95.376C409.92 95.728 416.8 109.12 422.592 102.608C428.384 96.096 420.048 94.304 420.048 94.304C420.048 94.304 431.248 92.848 431.248 87.072C431.248 81.296 425.456 77.296 422.928 77.296C420.4 77.296 413.536 81.648 413.536 76.944C413.536 72.24 420.4 70.064 413.888 62.544C407.376 55.024 399.072 62.544 399.072 65.44C399.072 68.336 396.896 73.744 395.456 73.744C394.016 73.744 389.664 67.248 384.608 70.864C383.088 72.0727 381.848 73.5973 380.975 75.3322C380.102 77.0671 379.617 78.971 379.552 80.912Z" fill="#263238" stroke="#263238" stroke-linecap="round" stroke-linejoin="round"/>
<path d="M388.96 108.768L400.528 104.416" stroke="#263238" stroke-linecap="round" stroke-linejoin="round"/>
<path d="M402.336 99.36C402.115 98.2249 402.296 97.0481 402.848 96.032" stroke="#263238" stroke-linecap="round" stroke-linejoin="round"/>
<path d="M402.848 96C403.664 94.4 405.504 92.336 409.568 90.656" stroke="white" stroke-linecap="round" stroke-linejoin="round"/>
</svg>
