<svg width="934" height="161" viewBox="0 0 934 161" fill="none" xmlns="http://www.w3.org/2000/svg">
<rect width="934" height="161" fill="#E5E5E5"/>
<rect width="934" height="161" fill="white"/>
<path d="M93.4 124.26H51.54L44.18 156H3.7L49.24 6.49999H97.08L142.62 156H100.76L93.4 124.26ZM86.27 93.67L83.74 83.32C81.7467 75.5 79.7533 66.9133 77.76 57.56L72.7 35.94H71.78L70.4 42.38C67.0267 59.2467 63.96 72.8933 61.2 83.32L58.67 93.67H86.27Z" fill="#445CB4"/>
<path d="M187.72 158.76C173.307 158.76 162.65 154.62 155.75 146.34C148.85 138.06 145.4 126.56 145.4 111.84V71.82H130.22V42.38L147.7 41L152.3 11.1H184.96V41H211.18V71.82H184.96V111.15C184.96 117.13 186.187 121.423 188.64 124.03C191.247 126.637 194.62 127.94 198.76 127.94C201.827 127.94 205.2 127.327 208.88 126.1L214.86 154.62C205.967 157.38 196.92 158.76 187.72 158.76Z" fill="#445CB4"/>
<path d="M266.72 158.76C252.307 158.76 241.65 154.62 234.75 146.34C227.85 138.06 224.4 126.56 224.4 111.84V71.82H209.22V41H226.7L231.3 11.1H263.96V41H290.18V71.82H263.96V111.15C263.96 117.13 265.187 121.423 267.64 124.03C270.247 126.637 273.62 127.94 277.76 127.94C280.827 127.94 284.2 127.327 287.88 126.1L293.86 154.62C284.967 157.38 275.92 158.76 266.72 158.76Z" fill="#445CB4"/>
<path d="M304.34 41H336.54L339.3 60.78H340.22C344.207 53.2667 349.113 47.67 354.94 43.99C360.92 40.1567 366.9 38.24 372.88 38.24C378.86 38.24 383.613 39.0067 387.14 40.54L380.7 74.58C375.18 73.3533 370.887 72.74 367.82 72.74C363.22 72.74 358.697 74.35 354.25 77.57C349.957 80.6367 346.507 85.4667 343.9 92.06V156H304.34V41Z" fill="#445CB4"/>
<path d="M416.24 158.76C409.34 158.76 403.207 157.15 397.84 153.93C392.627 150.71 388.64 146.417 385.88 141.05C383.12 135.683 381.74 129.78 381.74 123.34C381.74 111.227 386.647 101.797 396.46 95.05C406.427 88.3033 422.373 83.78 444.3 81.48C443.84 77.34 442.307 74.35 439.7 72.51C437.093 70.5167 433.26 69.52 428.2 69.52C424.213 69.52 419.92 70.2867 415.32 71.82C410.72 73.3533 405.353 75.8067 399.22 79.18L385.42 53.42C402.287 43.3 419.153 38.24 436.02 38.24C467.913 38.24 483.86 56.18 483.86 92.06V156H451.66L448.9 144.96H447.98C437.707 154.16 427.127 158.76 416.24 158.76ZM430.04 128.4C432.953 128.4 435.407 127.787 437.4 126.56C439.547 125.18 441.847 123.187 444.3 120.58V104.94C427.74 107.393 419.46 112.453 419.46 120.12C419.46 122.727 420.38 124.797 422.22 126.33C424.06 127.71 426.667 128.4 430.04 128.4Z" fill="#445CB4"/>
<path d="M817.7 93.9C817.7 100.647 817.163 106.167 816.09 110.46H749.85C751.69 117.207 755.063 121.96 759.97 124.72C765.03 127.48 770.78 128.86 777.22 128.86C784.58 128.86 792.4 126.56 800.68 121.96L813.56 145.42C807.58 149.713 800.757 153.01 793.09 155.31C785.577 157.61 778.447 158.76 771.7 158.76C760.353 158.76 750.157 156.383 741.11 151.63C732.217 146.877 725.163 139.977 719.95 130.93C714.89 121.73 712.36 110.92 712.36 98.5C712.36 86.54 714.967 76.0367 720.18 66.99C725.393 57.79 732.217 50.7367 740.65 45.83C749.083 40.77 758.053 38.24 767.56 38.24C783.813 38.24 796.233 43.4533 804.82 53.88C813.407 64.3067 817.7 77.6467 817.7 93.9ZM784.12 84.7C784.12 79.7933 782.893 75.8067 780.44 72.74C777.987 69.6733 774 68.14 768.48 68.14C764.187 68.14 760.353 69.52 756.98 72.28C753.76 74.8867 751.383 79.0267 749.85 84.7H784.12Z" fill="#7B93FB"/>
<path d="M810.76 41H850.32L862.74 91.14L871.02 127.02H871.94L880.22 91.14L892.64 41H930.36L894.02 156H848.48L810.76 41Z" fill="#7B93FB"/>
<path d="M579.136 71.9243L579.052 43.0736C579.055 40.085 576.644 37.6738 573.655 37.6769L552.85 37.8139L552.808 77.3546L573.728 77.3324C576.717 77.3292 579.133 74.9129 579.136 71.9243Z" fill="#445CB4"/>
<path d="M579.048 154.684L579.079 125.948C579.082 122.959 576.671 120.548 573.682 120.551L552.762 120.573L552.721 160.114L573.64 160.092C576.629 160.089 579.045 157.672 579.048 154.684Z" fill="#445CB4"/>
<path d="M546.958 120.585L520.521 120.613C508.567 120.626 498.922 110.98 498.934 99.0263C498.947 87.0722 508.612 77.4067 520.567 77.394L547.004 77.366L547.045 37.8254L520.608 37.8534C486.93 37.7741 459.43 65.0448 459.279 98.9534C459.261 115.275 465.682 130.901 477.279 142.498C488.761 153.98 504.387 160.4 520.594 160.268L547.031 160.24L546.958 120.585Z" fill="#7B93FB"/>
<path d="M615.865 126.074L615.95 154.925C615.947 157.914 618.358 160.325 621.346 160.322L642.151 160.185L642.193 120.644L621.273 120.666C618.285 120.669 615.868 123.086 615.865 126.074Z" fill="#7B93FB"/>
<path d="M615.953 43.3148L615.923 72.0508C615.919 75.0393 618.331 77.4506 621.319 77.4474L642.239 77.4252L642.281 37.8846L621.361 37.9068C618.373 37.9099 615.956 40.3263 615.953 43.3148Z" fill="#7B93FB"/>
<path d="M648.044 77.4138L674.481 77.3858C686.435 77.3731 696.08 87.0181 696.067 98.9723C696.054 110.926 686.389 120.592 674.435 120.605L647.998 120.633L647.956 160.173L674.393 160.145C708.071 160.225 735.572 132.954 735.723 99.0452C735.74 82.7232 729.32 67.0977 717.723 55.5007C706.24 44.0185 690.615 37.5982 674.408 37.7303L647.971 37.7583L648.044 77.4138Z" fill="#445CB4"/>
<path d="M562.629 99.0043C562.629 100.582 563.585 102.045 565.101 102.651L604.408 118.374C605.617 118.857 606.991 118.707 608.07 117.978C609.148 117.245 609.797 116.029 609.797 114.724L609.797 102.932L629.45 102.932C631.335 102.931 632.955 101.595 633.312 99.7454C633.646 97.9222 632.663 96.0531 630.909 95.3503L591.603 79.6277C590.393 79.1443 589.019 79.2934 587.941 80.0233C586.862 80.7561 586.213 81.9731 586.213 83.2781L586.213 95.0701L566.56 95.0701C564.413 95.0701 562.629 96.8004 562.629 99.0043Z" fill="#545454"/>
</svg>
