<svg width="1033" height="192" viewBox="0 0 1033 192" fill="none" xmlns="http://www.w3.org/2000/svg">
<g clip-path="url(#clip0_501_40)">
<path d="M18 175.317L67.1442 14H118.771L167.915 175.317H122.742L104.375 96.8923C102.389 89.1159 100.403 80.6778 98.4179 71.5779C96.4322 62.4779 94.4466 53.8743 92.461 45.7671H91.4682C89.8135 53.8743 87.9933 62.4779 86.0077 71.5779C84.0221 80.6778 82.0364 89.1159 80.0508 96.8923L61.6838 175.317H18ZM53.2449 141.068V108.06H132.173V141.068H53.2449Z" fill="#18314F"/>
<path d="M216.584 178.297C201.03 178.297 189.53 173.829 182.084 164.895C174.638 155.96 170.915 143.551 170.915 127.668V84.4845H154.533V52.7174L173.397 51.2283L178.361 18.9648H213.606V51.2283H241.901V84.4845H213.606V126.923C213.606 133.376 214.929 138.009 217.577 140.821C220.39 143.634 224.03 145.041 228.498 145.041C231.807 145.041 235.447 144.379 239.419 143.055L245.872 173.829C236.275 176.808 226.512 178.297 216.584 178.297Z" fill="#18314F"/>
<path d="M301.837 178.297C286.283 178.297 274.783 173.829 267.337 164.895C259.891 155.96 256.168 143.551 256.168 127.668V84.4845H239.786V51.2283H258.65L263.614 18.9648H298.858V51.2283H327.154V84.4845H298.858V126.923C298.858 133.376 300.182 138.009 302.83 140.821C305.643 143.634 309.283 145.041 313.751 145.041C317.06 145.041 320.7 144.379 324.672 143.055L331.125 173.829C321.528 176.808 311.765 178.297 301.837 178.297Z" fill="#18314F"/>
<path d="M342.435 175.316V51.2262H377.183L380.161 72.5697H381.154C385.787 64.1316 391.248 58.0098 397.536 54.2044C403.989 50.2335 410.277 48.248 416.399 48.248C420.205 48.248 423.266 48.4962 425.583 48.9926C428.065 49.3235 430.133 49.9026 431.788 50.7298L424.838 87.4606C422.687 86.9642 420.536 86.5506 418.385 86.2196C416.234 85.7233 413.752 85.4751 410.939 85.4751C406.471 85.4751 401.755 87.0469 396.791 90.1905C391.992 93.1687 388.104 98.5459 385.126 106.322V175.316H342.435Z" fill="#18314F"/>
<path d="M929.64 175.317L888.935 51.2266H931.626L945.029 105.33C946.518 111.452 948.007 117.739 949.496 124.192C950.985 130.644 952.475 137.262 953.964 144.046H954.957C956.446 137.262 957.935 130.644 959.424 124.192C960.914 117.739 962.403 111.452 963.892 105.33L977.295 51.2266H1018L978.784 175.317H929.64Z" fill="#384E77"/>
<path d="M638.978 84.5952L638.887 53.4639C638.89 50.2391 636.288 47.6373 633.063 47.6407L610.612 47.7885L610.567 90.4546L633.142 90.4307C636.367 90.4273 638.975 87.8199 638.978 84.5952Z" fill="#18314F"/>
<path d="M638.885 173.896L638.918 142.889C638.922 139.664 636.319 137.062 633.094 137.065L610.519 137.089L610.474 179.755L633.049 179.732C636.274 179.728 638.882 177.121 638.885 173.896Z" fill="#18314F"/>
<path fill-rule="evenodd" clip-rule="evenodd" d="M524.512 64.585C521.078 60.3075 516.936 56.9307 512.086 54.4545C504.475 50.3182 495.291 48.25 484.536 48.25C478.083 48.25 471.795 48.9118 465.672 50.2354C459.55 51.3936 453.511 53.2136 447.554 55.6954C441.597 58.1772 435.723 61.1554 429.931 64.6299L444.823 92.4261C451.277 88.9516 456.985 86.3871 461.949 84.7325C466.914 82.9125 471.629 82.0025 476.097 82.0025C479.737 82.0025 482.799 82.4989 485.281 83.4916C487.763 84.3189 489.665 85.7252 490.989 87.7107C492.313 89.5307 493.14 91.9298 493.471 94.9079C469.644 97.3897 452.435 102.353 441.845 109.799C431.255 117.079 425.96 127.171 425.96 140.077C425.96 146.86 427.449 153.148 430.428 158.938C433.406 164.729 437.626 169.445 443.086 173.085C448.712 176.559 455.413 178.297 463.19 178.297C469.975 178.297 476.097 176.973 481.557 174.326C487.183 171.513 492.478 167.873 497.443 163.406H498.435L501.414 175.318H536.162V173.072C532.356 170.526 528.78 167.598 525.496 164.314C512.031 150.85 504.575 132.704 504.595 113.759L504.595 113.751L504.595 113.742C504.68 94.6239 512.257 77.3181 524.512 64.585ZM536.162 166.901V166.9C533.665 165.033 531.29 162.98 529.06 160.751C516.545 148.237 509.617 131.376 509.635 113.764C509.666 106.904 510.734 100.295 512.689 94.086C510.734 100.295 509.666 106.904 509.635 113.764C509.616 131.377 516.545 148.237 529.06 160.751C531.29 162.981 533.665 165.034 536.162 166.901ZM478.083 145.537C481.557 145.537 484.453 144.792 486.77 143.303C489.086 141.649 491.32 139.58 493.471 137.099V120.222C486.687 121.215 481.309 122.539 477.338 124.193C473.532 125.848 470.802 127.75 469.147 129.901C467.493 132.052 466.665 134.286 466.665 136.602C466.665 139.415 467.658 141.649 469.644 143.303C471.629 144.792 474.442 145.537 478.083 145.537Z" fill="#18314F"/>
<path d="M604.254 137.103L575.725 137.134C562.824 137.147 552.416 126.74 552.43 113.841C552.443 100.942 562.874 90.5122 575.774 90.4985L604.304 90.4683L604.349 47.8022L575.819 47.8324C539.475 47.7469 509.799 77.1732 509.636 113.762C509.617 131.374 516.546 148.235 529.06 160.749C541.451 173.138 558.314 180.066 575.803 179.924L604.333 179.893L604.254 137.103Z" fill="#384E77"/>
<path d="M678.615 143.026L678.706 174.157C678.702 177.382 681.304 179.984 684.53 179.98L706.981 179.833L707.026 137.166L684.451 137.19C681.226 137.194 678.618 139.801 678.615 143.026Z" fill="#384E77"/>
<path d="M678.708 53.7252L678.676 84.7325C678.672 87.9573 681.274 90.5591 684.499 90.5557L707.075 90.5318L707.12 47.8657L684.545 47.8896C681.32 47.893 678.712 50.5004 678.708 53.7252Z" fill="#384E77"/>
<path fill-rule="evenodd" clip-rule="evenodd" d="M797.748 157.685C802.324 162.945 807.748 167.251 814.02 170.603C823.783 175.732 834.704 178.297 846.783 178.297C853.732 178.297 861.344 177.056 869.618 174.574C877.891 172.092 885.337 168.535 891.956 163.902L878.056 138.588C873.589 141.069 869.287 142.972 865.15 144.296C861.179 145.454 857.042 146.033 852.74 146.033C847.776 146.033 842.894 145.123 838.096 143.303C833.297 141.483 829.326 138.257 826.182 133.624C824.805 131.523 823.73 129.041 822.956 126.179H894.686C895.017 124.69 895.348 122.29 895.679 118.981C896.175 115.507 896.423 111.95 896.423 108.31C896.423 97.2243 894.438 87.1316 890.467 78.0317C886.661 68.9317 880.704 61.7345 872.596 56.44C864.653 50.98 854.56 48.25 842.315 48.25C832.222 48.25 822.624 50.8973 813.524 56.1918C807.521 59.684 802.238 64.1481 797.675 69.584C807.605 82.1639 813.015 97.7259 812.998 113.868L812.998 113.876L812.998 113.885C812.924 130.442 807.232 145.64 797.748 157.685ZM805.807 130.404C807.187 125.122 807.932 119.58 807.958 113.863C807.973 99.2802 803.226 85.2126 794.488 73.7012C794.488 73.7011 794.488 73.7009 794.489 73.7008C803.226 85.2122 807.974 99.2798 807.958 113.863C807.933 119.58 807.187 125.122 805.807 130.404ZM860.186 98.3825H823.066C823.514 96.6585 824.056 95.0867 824.693 93.667C826.844 88.8689 829.574 85.4771 832.883 83.4916C836.193 81.5062 839.668 80.5135 843.308 80.5135C849.761 80.5135 854.146 82.3334 856.463 85.9734C858.945 89.448 860.186 93.5843 860.186 98.3825Z" fill="#384E77"/>
<path d="M713.34 90.5196L741.869 90.4894C754.769 90.4758 765.178 100.883 765.164 113.782C765.15 126.681 754.72 137.111 741.82 137.124L713.29 137.155L713.245 179.821L741.774 179.791C778.118 179.876 807.795 150.45 807.958 113.861C807.977 96.2488 801.048 79.3881 788.533 66.8744C776.142 54.4846 759.28 47.5568 741.79 47.6994L713.261 47.7296L713.34 90.5196Z" fill="#18314F"/>
<path d="M621.166 113.816C621.166 115.519 622.198 117.097 623.834 117.751L666.251 134.717C667.556 135.239 669.039 135.077 670.203 134.29C671.367 133.499 672.067 132.186 672.067 130.778L672.067 118.054L693.276 118.054C695.31 118.054 697.058 116.612 697.443 114.616C697.804 112.649 696.743 110.632 694.85 109.874L652.433 92.9082C651.128 92.3866 649.645 92.5476 648.481 93.3351C647.316 94.1259 646.617 95.4391 646.617 96.8472L646.617 109.571L625.408 109.571C623.091 109.571 621.166 111.438 621.166 113.816Z" fill="#FF6666"/>
</g>
<defs>
<clipPath id="clip0_501_40">
<rect width="1033" height="192" fill="white"/>
</clipPath>
</defs>
</svg>
