<svg width="931" height="301" viewBox="0 0 931 301" fill="none" xmlns="http://www.w3.org/2000/svg">
<path d="M90.4 203.26H48.54L41.18 235H0.7L46.24 85.5H94.08L139.62 235H97.76L90.4 203.26ZM83.27 172.67L80.74 162.32C78.7467 154.5 76.7533 145.913 74.76 136.56L69.7 114.94H68.78L67.4 121.38C64.0267 138.247 60.96 151.893 58.2 162.32L55.67 172.67H83.27Z" fill="#445CB4"/>
<path d="M184.72 237.76C170.307 237.76 159.65 233.62 152.75 225.34C145.85 217.06 142.4 205.56 142.4 190.84V150.82H127.22V121.38L144.7 120L149.3 90.1H181.96V120H208.18V150.82H181.96V190.15C181.96 196.13 183.187 200.423 185.64 203.03C188.247 205.637 191.62 206.94 195.76 206.94C198.827 206.94 202.2 206.327 205.88 205.1L211.86 233.62C202.967 236.38 193.92 237.76 184.72 237.76Z" fill="#445CB4"/>
<path d="M263.72 237.76C249.307 237.76 238.65 233.62 231.75 225.34C224.85 217.06 221.4 205.56 221.4 190.84V150.82H206.22V120H223.7L228.3 90.1H260.96V120H287.18V150.82H260.96V190.15C260.96 196.13 262.187 200.423 264.64 203.03C267.247 205.637 270.62 206.94 274.76 206.94C277.827 206.94 281.2 206.327 284.88 205.1L290.86 233.62C281.967 236.38 272.92 237.76 263.72 237.76Z" fill="#445CB4"/>
<path d="M301.34 120H333.54L336.3 139.78H337.22C341.207 132.267 346.113 126.67 351.94 122.99C357.92 119.157 363.9 117.24 369.88 117.24C375.86 117.24 380.613 118.007 384.14 119.54L377.7 153.58C372.18 152.353 367.887 151.74 364.82 151.74C360.22 151.74 355.697 153.35 351.25 156.57C346.957 159.637 343.507 164.467 340.9 171.06V235H301.34V120Z" fill="#445CB4"/>
<path d="M413.24 237.76C406.34 237.76 400.207 236.15 394.84 232.93C389.627 229.71 385.64 225.417 382.88 220.05C380.12 214.683 378.74 208.78 378.74 202.34C378.74 190.227 383.647 180.797 393.46 174.05C403.427 167.303 419.373 162.78 441.3 160.48C440.84 156.34 439.307 153.35 436.7 151.51C434.093 149.517 430.26 148.52 425.2 148.52C421.213 148.52 416.92 149.287 412.32 150.82C407.72 152.353 402.353 154.807 396.22 158.18L382.42 132.42C399.287 122.3 416.153 117.24 433.02 117.24C464.913 117.24 480.86 135.18 480.86 171.06V235H448.66L445.9 223.96H444.98C434.707 233.16 424.127 237.76 413.24 237.76ZM427.04 207.4C429.953 207.4 432.407 206.787 434.4 205.56C436.547 204.18 438.847 202.187 441.3 199.58V183.94C424.74 186.393 416.46 191.453 416.46 199.12C416.46 201.727 417.38 203.797 419.22 205.33C421.06 206.71 423.667 207.4 427.04 207.4Z" fill="#445CB4"/>
<path d="M814.7 172.9C814.7 179.647 814.163 185.167 813.09 189.46H746.85C748.69 196.207 752.063 200.96 756.97 203.72C762.03 206.48 767.78 207.86 774.22 207.86C781.58 207.86 789.4 205.56 797.68 200.96L810.56 224.42C804.58 228.713 797.757 232.01 790.09 234.31C782.577 236.61 775.447 237.76 768.7 237.76C757.353 237.76 747.157 235.383 738.11 230.63C729.217 225.877 722.163 218.977 716.95 209.93C711.89 200.73 709.36 189.92 709.36 177.5C709.36 165.54 711.967 155.037 717.18 145.99C722.393 136.79 729.217 129.737 737.65 124.83C746.083 119.77 755.053 117.24 764.56 117.24C780.813 117.24 793.233 122.453 801.82 132.88C810.407 143.307 814.7 156.647 814.7 172.9ZM781.12 163.7C781.12 158.793 779.893 154.807 777.44 151.74C774.987 148.673 771 147.14 765.48 147.14C761.187 147.14 757.353 148.52 753.98 151.28C750.76 153.887 748.383 158.027 746.85 163.7H781.12Z" fill="#7B93FB"/>
<path d="M807.76 120H847.32L859.74 170.14L868.02 206.02H868.94L877.22 170.14L889.64 120H927.36L891.02 235H845.48L807.76 120Z" fill="#7B93FB"/>
<path d="M576.136 150.924L576.052 122.074C576.055 119.085 573.644 116.674 570.655 116.677L549.85 116.814L549.808 156.355L570.728 156.332C573.717 156.329 576.133 153.913 576.136 150.924Z" fill="#445CB4"/>
<path d="M576.048 233.684L576.079 204.948C576.082 201.959 573.671 199.548 570.682 199.551L549.762 199.573L549.721 239.114L570.64 239.092C573.629 239.089 576.045 236.672 576.048 233.684Z" fill="#445CB4"/>
<path d="M543.958 199.585L517.521 199.613C505.567 199.626 495.922 189.98 495.934 178.026C495.947 166.072 505.612 156.407 517.567 156.394L544.004 156.366L544.045 116.825L517.608 116.853C483.93 116.774 456.43 144.045 456.279 177.953C456.261 194.275 462.682 209.901 474.279 221.498C485.761 232.98 501.387 239.4 517.594 239.268L544.031 239.24L543.958 199.585Z" fill="#7B93FB"/>
<path d="M612.865 205.074L612.95 233.925C612.947 236.914 615.358 239.325 618.346 239.322L639.151 239.185L639.193 199.644L618.273 199.666C615.285 199.669 612.868 202.086 612.865 205.074Z" fill="#7B93FB"/>
<path d="M612.953 122.315L612.923 151.051C612.919 154.039 615.331 156.451 618.319 156.447L639.239 156.425L639.281 116.885L618.361 116.907C615.373 116.91 612.956 119.326 612.953 122.315Z" fill="#7B93FB"/>
<path d="M645.044 156.414L671.481 156.386C683.435 156.373 693.08 166.018 693.067 177.972C693.054 189.926 683.389 199.592 671.435 199.605L644.998 199.633L644.956 239.173L671.393 239.145C705.071 239.225 732.572 211.954 732.723 178.045C732.74 161.723 726.32 146.098 714.723 134.501C703.24 123.018 687.615 116.598 671.408 116.73L644.971 116.758L645.044 156.414Z" fill="#445CB4"/>
<path d="M559.629 178.004C559.629 179.582 560.585 181.045 562.101 181.651L601.408 197.374C602.617 197.857 603.991 197.707 605.07 196.978C606.148 196.245 606.797 195.029 606.797 193.724L606.797 181.932L626.45 181.932C628.335 181.931 629.955 180.595 630.312 178.745C630.646 176.922 629.663 175.053 627.909 174.35L588.603 158.628C587.393 158.144 586.019 158.293 584.941 159.023C583.862 159.756 583.213 160.973 583.213 162.278L583.213 174.07L563.56 174.07C561.413 174.07 559.629 175.8 559.629 178.004Z" fill="#545454"/>
</svg>
