<svg id="svg" version="1.1" xmlns="http://www.w3.org/2000/svg" xmlns:xlink="http://www.w3.org/1999/xlink" width="400" height="138.02575107296138" viewBox="0, 0, 400,138.02575107296138"><g id="svgg"><path id="path0" d="M212.167 55.667 C 212.167 55.758,211.754 55.833,211.250 55.833 C 210.746 55.833,210.333 55.908,210.333 56.000 C 210.333 56.092,210.075 56.167,209.760 56.167 C 209.444 56.167,209.140 56.242,209.083 56.333 C 209.027 56.425,208.802 56.500,208.583 56.500 C 208.365 56.500,208.140 56.575,208.083 56.667 C 208.027 56.758,207.835 56.833,207.657 56.833 C 207.479 56.833,207.333 56.908,207.333 57.000 C 207.333 57.092,207.188 57.167,207.010 57.167 C 206.832 57.167,206.640 57.242,206.583 57.333 C 206.527 57.425,206.335 57.500,206.157 57.500 C 205.979 57.500,205.833 57.575,205.833 57.667 C 205.833 57.758,205.683 57.833,205.500 57.833 C 205.317 57.833,205.167 57.908,205.167 58.000 C 205.167 58.092,205.017 58.167,204.833 58.167 C 204.650 58.167,204.500 58.242,204.500 58.333 C 204.500 58.425,204.406 58.502,204.292 58.504 C 204.177 58.506,203.808 58.750,203.471 59.046 C 203.134 59.341,202.623 59.765,202.335 59.986 C 201.120 60.920,199.333 62.821,199.333 63.179 C 199.333 63.562,198.511 64.999,198.292 65.000 C 198.223 65.000,198.167 65.098,198.167 65.219 C 198.167 65.339,198.033 65.583,197.869 65.760 C 197.500 66.161,196.167 68.874,196.167 69.224 C 196.167 69.365,196.092 69.527,196.000 69.583 C 195.908 69.640,195.833 69.854,195.833 70.060 C 195.833 70.265,195.770 70.505,195.693 70.592 C 195.617 70.679,195.460 71.200,195.345 71.750 C 195.231 72.300,195.051 73.125,194.947 73.583 C 194.688 74.718,194.704 79.189,194.970 80.333 C 195.439 82.348,195.559 82.798,195.948 84.000 C 196.332 85.185,197.445 87.654,197.676 87.833 C 197.735 87.879,197.877 88.094,197.991 88.311 C 198.345 88.982,199.586 90.525,200.821 91.829 C 201.469 92.514,202.000 93.180,202.000 93.311 C 202.000 93.619,202.924 94.500,203.248 94.500 C 203.387 94.500,203.500 94.594,203.500 94.708 C 203.501 94.920,206.742 96.673,207.125 96.669 C 207.240 96.668,207.333 96.742,207.333 96.833 C 207.333 96.925,207.479 97.000,207.657 97.000 C 207.835 97.000,208.027 97.075,208.083 97.167 C 208.140 97.258,208.369 97.333,208.593 97.333 C 208.817 97.333,209.000 97.408,209.000 97.500 C 209.000 97.592,209.300 97.667,209.667 97.667 C 210.033 97.667,210.333 97.742,210.333 97.833 C 210.333 97.925,210.708 98.000,211.167 98.000 C 211.625 98.000,212.000 98.075,212.000 98.167 C 212.000 98.275,214.111 98.333,218.000 98.333 L 224.000 98.333 224.000 91.500 L 224.000 84.667 218.833 84.667 C 215.500 84.667,213.667 84.608,213.667 84.500 C 213.667 84.408,213.442 84.333,213.167 84.333 C 212.892 84.333,212.667 84.258,212.667 84.167 C 212.667 84.075,212.517 84.000,212.333 84.000 C 212.150 84.000,212.000 83.925,212.000 83.833 C 212.000 83.742,211.867 83.667,211.703 83.667 C 211.540 83.667,211.299 83.517,211.167 83.333 C 211.035 83.150,210.830 83.000,210.713 83.000 C 210.596 83.000,210.500 82.937,210.500 82.860 C 210.500 82.783,210.178 82.378,209.783 81.961 C 209.389 81.544,208.928 80.894,208.758 80.518 C 208.588 80.141,208.386 79.833,208.308 79.833 C 208.230 79.833,208.167 79.683,208.167 79.500 C 208.167 79.317,208.092 79.167,208.000 79.167 C 207.907 79.167,207.833 78.722,207.833 78.167 C 207.833 77.611,207.759 77.167,207.667 77.167 C 207.575 77.167,207.500 77.054,207.500 76.917 C 207.500 76.779,207.575 76.667,207.667 76.667 C 207.758 76.667,207.833 76.296,207.833 75.843 C 207.833 75.390,207.908 74.973,208.000 74.917 C 208.092 74.860,208.167 74.640,208.167 74.427 C 208.167 74.215,208.279 73.947,208.417 73.833 C 208.554 73.719,208.667 73.530,208.667 73.412 C 208.667 73.221,208.979 72.792,210.210 71.297 C 210.415 71.047,210.661 70.841,210.755 70.838 C 210.849 70.836,211.035 70.683,211.167 70.500 C 211.299 70.317,211.540 70.167,211.703 70.167 C 211.867 70.167,212.000 70.092,212.000 70.000 C 212.000 69.908,212.150 69.833,212.333 69.833 C 212.517 69.833,212.667 69.758,212.667 69.667 C 212.667 69.575,212.925 69.500,213.240 69.500 C 213.556 69.500,213.860 69.425,213.917 69.333 C 213.982 69.228,215.863 69.167,219.010 69.167 L 224.000 69.167 224.000 62.333 L 224.000 55.500 218.083 55.500 C 214.250 55.500,212.167 55.559,212.167 55.667 M250.958 55.895 L 250.500 56.289 250.500 62.284 L 250.500 68.278 250.999 68.722 L 251.497 69.167 254.415 69.167 L 257.333 69.167 257.333 62.333 L 257.333 55.500 254.375 55.500 C 251.505 55.500,251.403 55.512,250.958 55.895 M298.000 56.667 C 298.000 56.758,297.629 56.833,297.177 56.833 C 296.724 56.833,296.307 56.908,296.250 57.000 C 296.193 57.092,295.968 57.167,295.750 57.167 C 295.532 57.167,295.307 57.242,295.250 57.333 C 295.193 57.425,295.035 57.500,294.899 57.500 C 294.762 57.500,294.340 57.650,293.961 57.833 C 293.581 58.017,293.172 58.167,293.052 58.167 C 292.932 58.167,292.833 58.242,292.833 58.333 C 292.833 58.425,292.732 58.500,292.609 58.500 C 292.311 58.500,290.511 59.671,289.956 60.226 C 289.714 60.468,289.443 60.667,289.355 60.667 C 289.167 60.667,287.546 62.252,286.542 63.420 C 285.700 64.399,285.658 64.822,286.299 65.842 C 286.556 66.250,287.009 67.108,287.306 67.750 C 287.603 68.392,287.919 69.047,288.007 69.206 C 288.095 69.365,288.167 69.642,288.167 69.821 C 288.167 70.000,288.242 70.193,288.333 70.250 C 288.425 70.307,288.500 70.569,288.500 70.833 C 288.500 71.098,288.567 71.355,288.649 71.406 C 288.814 71.508,288.865 71.818,289.211 74.795 C 289.458 76.913,289.299 79.748,288.827 81.667 C 288.726 82.079,288.602 82.661,288.553 82.960 C 288.504 83.259,288.396 83.544,288.315 83.595 C 288.233 83.645,288.167 83.833,288.167 84.012 C 288.167 84.191,288.095 84.468,288.007 84.627 C 287.919 84.786,287.602 85.442,287.303 86.083 C 286.747 87.274,285.794 88.940,285.498 89.236 C 285.253 89.481,285.299 90.109,285.583 90.393 C 285.721 90.530,285.833 90.722,285.833 90.818 C 285.833 90.984,287.619 92.833,287.779 92.833 C 287.821 92.833,288.220 93.208,288.667 93.667 C 289.113 94.125,289.555 94.500,289.648 94.500 C 289.742 94.500,290.002 94.669,290.227 94.875 C 290.836 95.435,291.007 95.549,291.917 96.002 C 292.375 96.230,292.775 96.473,292.806 96.542 C 292.836 96.610,293.080 96.667,293.347 96.667 C 293.615 96.667,293.833 96.742,293.833 96.833 C 293.833 96.925,293.983 97.000,294.167 97.000 C 294.350 97.000,294.500 97.075,294.500 97.167 C 294.500 97.258,294.721 97.333,294.990 97.333 C 295.260 97.333,295.527 97.408,295.583 97.500 C 295.640 97.592,295.940 97.667,296.250 97.667 C 296.560 97.667,296.860 97.742,296.917 97.833 C 296.973 97.925,297.465 98.000,298.010 98.000 C 298.559 98.000,299.000 98.074,299.000 98.167 C 299.000 98.272,300.278 98.333,302.500 98.333 C 304.722 98.333,306.000 98.272,306.000 98.167 C 306.000 98.075,306.412 98.000,306.917 98.000 C 307.421 98.000,307.833 97.925,307.833 97.833 C 307.833 97.742,308.133 97.667,308.500 97.667 C 308.867 97.667,309.167 97.592,309.167 97.500 C 309.167 97.408,309.467 97.333,309.833 97.333 C 310.200 97.333,310.500 97.258,310.500 97.167 C 310.500 97.075,310.683 97.000,310.907 97.000 C 311.131 97.000,311.360 96.925,311.417 96.833 C 311.473 96.742,311.740 96.667,312.010 96.667 C 312.279 96.667,312.500 96.592,312.500 96.500 C 312.500 96.408,312.583 96.333,312.685 96.333 C 313.028 96.333,315.882 94.828,316.171 94.495 C 316.327 94.315,316.546 94.167,316.656 94.167 C 316.905 94.167,317.333 93.753,317.333 93.512 C 317.333 93.414,317.258 93.333,317.167 93.333 C 317.075 93.333,317.000 93.146,317.000 92.917 C 317.000 92.688,316.925 92.500,316.833 92.500 C 316.742 92.500,316.667 92.356,316.667 92.181 C 316.667 92.005,316.610 91.836,316.542 91.806 C 316.473 91.775,316.236 91.394,316.015 90.958 C 315.795 90.523,315.551 90.167,315.474 90.167 C 315.397 90.167,315.333 90.017,315.333 89.833 C 315.333 89.650,315.258 89.500,315.167 89.500 C 315.075 89.500,315.000 89.350,315.000 89.167 C 315.000 88.983,314.925 88.833,314.833 88.833 C 314.742 88.833,314.667 88.683,314.667 88.500 C 314.667 88.317,314.606 88.167,314.531 88.167 C 314.457 88.167,314.293 87.904,314.167 87.583 C 314.041 87.263,313.877 87.000,313.802 87.000 C 313.728 87.000,313.667 86.850,313.667 86.667 C 313.667 86.483,313.592 86.333,313.500 86.333 C 313.408 86.333,313.333 86.240,313.333 86.125 C 313.331 85.781,312.492 84.888,312.393 85.125 C 312.345 85.240,312.162 85.333,311.986 85.333 C 311.810 85.333,311.667 85.408,311.667 85.500 C 311.667 85.592,311.517 85.667,311.333 85.667 C 311.150 85.667,311.000 85.742,311.000 85.833 C 311.000 85.925,310.817 86.000,310.593 86.000 C 310.369 86.000,310.140 86.075,310.083 86.167 C 310.027 86.258,309.797 86.333,309.573 86.333 C 309.350 86.333,309.167 86.408,309.167 86.500 C 309.167 86.592,308.984 86.667,308.760 86.667 C 308.536 86.667,308.307 86.742,308.250 86.833 C 308.193 86.925,307.893 87.000,307.583 87.000 C 307.273 87.000,306.973 87.075,306.917 87.167 C 306.856 87.265,305.835 87.333,304.417 87.333 C 302.998 87.333,301.978 87.265,301.917 87.167 C 301.860 87.075,301.592 87.000,301.321 87.000 C 301.050 87.000,300.699 86.930,300.539 86.844 C 300.380 86.759,300.006 86.590,299.708 86.470 C 299.410 86.350,299.167 86.195,299.167 86.126 C 299.167 86.057,299.033 86.000,298.870 86.000 C 298.707 86.000,298.465 85.850,298.333 85.667 C 298.201 85.483,297.992 85.333,297.868 85.333 C 297.615 85.333,297.167 84.935,297.167 84.710 C 297.167 84.629,297.025 84.410,296.851 84.224 C 296.475 83.820,296.010 82.950,295.824 82.301 L 295.690 81.833 306.888 81.833 L 318.086 81.833 318.293 81.169 C 318.407 80.804,318.500 80.017,318.500 79.419 C 318.500 78.806,318.573 78.333,318.667 78.333 C 318.881 78.333,318.892 73.960,318.679 73.742 C 318.594 73.655,318.487 72.983,318.442 72.250 C 318.347 70.699,318.204 69.719,318.003 69.250 C 317.925 69.067,317.728 68.448,317.566 67.875 C 317.403 67.302,317.209 66.833,317.135 66.833 C 317.061 66.833,317.000 66.683,317.000 66.500 C 317.000 66.317,316.925 66.167,316.833 66.167 C 316.742 66.167,316.667 66.017,316.667 65.833 C 316.667 65.650,316.592 65.500,316.500 65.500 C 316.408 65.500,316.333 65.313,316.333 65.083 C 316.333 64.854,316.258 64.667,316.167 64.667 C 316.075 64.667,316.000 64.517,316.000 64.333 C 316.000 64.150,315.925 64.000,315.833 64.000 C 315.742 64.000,315.667 63.887,315.667 63.750 C 315.667 63.612,315.592 63.500,315.500 63.500 C 315.408 63.500,315.333 63.404,315.333 63.287 C 315.333 63.170,315.183 62.965,315.000 62.833 C 314.817 62.701,314.667 62.500,314.667 62.387 C 314.667 62.274,314.036 61.559,313.265 60.799 C 312.012 59.563,311.481 59.143,310.466 58.585 C 310.301 58.495,310.167 58.364,310.167 58.294 C 310.167 58.224,310.068 58.167,309.948 58.167 C 309.828 58.167,309.419 58.017,309.039 57.833 C 308.660 57.650,308.238 57.500,308.101 57.500 C 307.965 57.500,307.807 57.425,307.750 57.333 C 307.693 57.242,307.351 57.167,306.990 57.167 C 306.629 57.167,306.333 57.092,306.333 57.000 C 306.333 56.908,305.958 56.833,305.500 56.833 C 305.042 56.833,304.667 56.758,304.667 56.667 C 304.667 56.561,303.444 56.500,301.333 56.500 C 299.222 56.500,298.000 56.561,298.000 56.667 M316.384 57.776 C 316.324 57.930,316.401 58.275,316.555 58.542 C 316.708 58.809,316.833 59.208,316.833 59.430 C 316.833 59.652,316.908 59.833,317.000 59.833 C 317.092 59.833,317.167 60.058,317.167 60.333 C 317.167 60.608,317.242 60.833,317.333 60.833 C 317.425 60.833,317.500 61.058,317.500 61.333 C 317.500 61.608,317.575 61.833,317.667 61.833 C 317.758 61.833,317.833 62.054,317.833 62.323 C 317.833 62.593,317.908 62.860,318.000 62.917 C 318.092 62.973,318.167 63.240,318.167 63.510 C 318.167 63.779,318.242 64.000,318.333 64.000 C 318.425 64.000,318.500 64.225,318.500 64.500 C 318.500 64.775,318.575 65.000,318.667 65.000 C 318.758 65.000,318.833 65.183,318.833 65.407 C 318.833 65.631,318.908 65.860,319.000 65.917 C 319.092 65.973,319.167 66.240,319.167 66.510 C 319.167 66.779,319.242 67.000,319.333 67.000 C 319.425 67.000,319.500 67.221,319.500 67.490 C 319.500 67.760,319.575 68.027,319.667 68.083 C 319.758 68.140,319.833 68.407,319.833 68.677 C 319.833 68.946,319.908 69.167,320.000 69.167 C 320.092 69.167,320.167 69.392,320.167 69.667 C 320.167 69.942,320.242 70.167,320.333 70.167 C 320.425 70.167,320.500 70.392,320.500 70.667 C 320.500 70.942,320.575 71.167,320.667 71.167 C 320.758 71.167,320.833 71.387,320.833 71.657 C 320.833 71.926,320.908 72.193,321.000 72.250 C 321.092 72.307,321.167 72.524,321.167 72.732 C 321.167 72.941,321.218 73.163,321.281 73.225 C 321.448 73.393,321.828 74.535,321.831 74.880 C 321.832 75.044,321.946 75.220,322.083 75.273 C 322.226 75.328,322.333 75.576,322.333 75.851 C 322.333 76.116,322.408 76.333,322.500 76.333 C 322.592 76.333,322.667 76.558,322.667 76.833 C 322.667 77.108,322.742 77.333,322.833 77.333 C 322.925 77.333,323.000 77.596,323.000 77.917 C 323.000 78.237,323.075 78.500,323.167 78.500 C 323.258 78.500,323.333 78.762,323.333 79.083 C 323.333 79.404,323.408 79.667,323.500 79.667 C 323.592 79.667,323.667 79.929,323.667 80.250 C 323.667 80.571,323.742 80.833,323.833 80.833 C 323.925 80.833,324.000 81.016,324.000 81.240 C 324.000 81.464,324.075 81.693,324.167 81.750 C 324.258 81.807,324.333 82.032,324.333 82.250 C 324.333 82.468,324.408 82.693,324.500 82.750 C 324.592 82.807,324.667 83.000,324.667 83.179 C 324.667 83.358,324.734 83.635,324.817 83.794 C 324.900 83.953,325.057 84.421,325.167 84.833 C 325.276 85.246,325.434 85.714,325.516 85.873 C 325.599 86.032,325.667 86.351,325.667 86.581 C 325.667 86.811,325.742 87.000,325.833 87.000 C 325.925 87.000,326.000 87.183,326.000 87.407 C 326.000 87.631,326.075 87.860,326.167 87.917 C 326.258 87.973,326.333 88.198,326.333 88.417 C 326.333 88.635,326.408 88.860,326.500 88.917 C 326.592 88.973,326.667 89.198,326.667 89.417 C 326.667 89.635,326.742 89.860,326.833 89.917 C 326.925 89.973,327.000 90.225,327.000 90.477 C 327.000 90.728,327.063 91.005,327.141 91.092 C 327.218 91.179,327.412 91.681,327.573 92.208 C 327.733 92.735,327.932 93.167,328.016 93.167 C 328.099 93.167,328.167 93.392,328.167 93.667 C 328.167 93.942,328.242 94.167,328.333 94.167 C 328.425 94.167,328.500 94.392,328.500 94.667 C 328.500 94.942,328.575 95.167,328.667 95.167 C 328.758 95.167,328.833 95.429,328.833 95.750 C 328.833 96.071,328.908 96.333,329.000 96.333 C 329.092 96.333,329.167 96.558,329.167 96.833 L 329.167 97.333 337.262 97.333 C 343.518 97.333,345.404 97.286,345.562 97.125 C 345.807 96.875,346.667 94.319,346.667 93.839 C 346.667 93.653,346.742 93.500,346.833 93.500 C 346.925 93.500,347.000 93.279,347.000 93.010 C 347.000 92.740,347.075 92.473,347.167 92.417 C 347.258 92.360,347.333 92.135,347.333 91.917 C 347.333 91.698,347.408 91.473,347.500 91.417 C 347.592 91.360,347.667 91.098,347.667 90.833 C 347.667 90.569,347.742 90.307,347.833 90.250 C 347.925 90.193,348.000 89.968,348.000 89.750 C 348.000 89.532,348.075 89.307,348.167 89.250 C 348.258 89.193,348.333 88.968,348.333 88.750 C 348.333 88.532,348.408 88.307,348.500 88.250 C 348.592 88.193,348.667 87.889,348.667 87.573 C 348.667 87.258,348.742 87.000,348.833 87.000 C 348.925 87.000,349.000 86.775,349.000 86.500 C 349.000 86.225,349.075 86.000,349.167 86.000 C 349.258 86.000,349.333 85.775,349.333 85.500 C 349.333 85.225,349.408 85.000,349.500 85.000 C 349.592 85.000,349.667 84.779,349.667 84.510 C 349.667 84.240,349.742 83.973,349.833 83.917 C 349.925 83.860,350.000 83.593,350.000 83.323 C 350.000 83.054,350.075 82.833,350.167 82.833 C 350.258 82.833,350.333 82.613,350.333 82.343 C 350.333 82.074,350.408 81.807,350.500 81.750 C 350.592 81.693,350.667 81.389,350.667 81.073 C 350.667 80.758,350.742 80.500,350.833 80.500 C 350.925 80.500,351.000 80.275,351.000 80.000 C 351.000 79.725,351.075 79.500,351.167 79.500 C 351.258 79.500,351.333 79.281,351.333 79.014 C 351.333 78.747,351.421 78.499,351.527 78.463 C 351.634 78.428,351.741 78.253,351.766 78.074 C 351.837 77.568,352.210 76.434,352.362 76.258 C 352.438 76.171,352.500 75.890,352.500 75.633 C 352.500 75.377,352.575 75.167,352.667 75.167 C 352.758 75.167,352.833 74.909,352.833 74.593 C 352.833 74.278,352.908 73.973,353.000 73.917 C 353.092 73.860,353.167 73.635,353.167 73.417 C 353.167 73.198,353.242 72.973,353.333 72.917 C 353.425 72.860,353.500 72.593,353.500 72.323 C 353.500 72.054,353.575 71.833,353.667 71.833 C 353.758 71.833,353.833 71.608,353.833 71.333 C 353.833 71.058,353.908 70.833,354.000 70.833 C 354.092 70.833,354.167 70.608,354.167 70.333 C 354.167 70.058,354.242 69.833,354.333 69.833 C 354.425 69.833,354.500 69.613,354.500 69.343 C 354.500 69.074,354.575 68.807,354.667 68.750 C 354.758 68.693,354.833 68.389,354.833 68.073 C 354.833 67.758,354.908 67.500,355.000 67.500 C 355.092 67.500,355.167 67.237,355.167 66.917 C 355.167 66.596,355.242 66.333,355.333 66.333 C 355.425 66.333,355.500 66.108,355.500 65.833 C 355.500 65.558,355.575 65.333,355.667 65.333 C 355.758 65.333,355.833 65.108,355.833 64.833 C 355.833 64.558,355.908 64.333,356.000 64.333 C 356.092 64.333,356.167 64.108,356.167 63.833 C 356.167 63.558,356.242 63.333,356.333 63.333 C 356.425 63.333,356.500 63.071,356.500 62.750 C 356.500 62.429,356.575 62.167,356.667 62.167 C 356.758 62.167,356.833 61.875,356.833 61.518 C 356.833 61.095,356.920 60.836,357.083 60.773 C 357.221 60.720,357.334 60.544,357.336 60.380 C 357.339 60.035,357.718 58.893,357.886 58.725 C 357.949 58.663,358.000 58.361,358.000 58.056 L 358.000 57.500 351.184 57.500 C 343.701 57.500,344.167 57.433,344.167 58.504 C 344.167 58.766,344.092 59.027,344.000 59.083 C 343.908 59.140,343.833 59.444,343.833 59.760 C 343.833 60.075,343.758 60.333,343.667 60.333 C 343.575 60.333,343.500 60.629,343.500 60.990 C 343.500 61.351,343.425 61.693,343.333 61.750 C 343.242 61.807,343.167 62.107,343.167 62.417 C 343.167 62.727,343.092 63.027,343.000 63.083 C 342.908 63.140,342.833 63.477,342.833 63.833 C 342.833 64.189,342.758 64.527,342.667 64.583 C 342.575 64.640,342.500 64.940,342.500 65.250 C 342.500 65.560,342.425 65.860,342.333 65.917 C 342.242 65.973,342.167 66.278,342.167 66.593 C 342.167 66.909,342.092 67.167,342.000 67.167 C 341.908 67.167,341.833 67.462,341.833 67.823 C 341.833 68.185,341.758 68.527,341.667 68.583 C 341.575 68.640,341.500 68.940,341.500 69.250 C 341.500 69.560,341.425 69.860,341.333 69.917 C 341.242 69.973,341.167 70.311,341.167 70.667 C 341.167 71.023,341.092 71.360,341.000 71.417 C 340.908 71.473,340.833 71.773,340.833 72.083 C 340.833 72.393,340.758 72.693,340.667 72.750 C 340.575 72.807,340.500 73.186,340.500 73.593 C 340.500 74.000,340.425 74.333,340.333 74.333 C 340.242 74.333,340.167 74.629,340.167 74.990 C 340.167 75.351,340.092 75.693,340.000 75.750 C 339.908 75.807,339.833 76.149,339.833 76.510 C 339.833 76.871,339.758 77.167,339.667 77.167 C 339.575 77.167,339.500 77.460,339.500 77.819 C 339.500 78.178,339.423 78.498,339.330 78.529 C 339.236 78.560,339.083 78.998,338.989 79.501 C 338.795 80.547,338.601 81.423,338.328 82.500 C 338.223 82.912,338.099 83.569,338.052 83.958 C 338.005 84.348,337.899 84.667,337.817 84.667 C 337.734 84.667,337.667 84.967,337.667 85.333 C 337.667 85.700,337.592 86.000,337.500 86.000 C 337.408 86.000,337.333 85.700,337.333 85.333 C 337.333 84.967,337.258 84.667,337.167 84.667 C 337.075 84.667,337.000 84.334,337.000 83.927 C 337.000 83.519,336.925 83.140,336.833 83.083 C 336.742 83.027,336.667 82.727,336.667 82.417 C 336.667 82.107,336.592 81.807,336.500 81.750 C 336.408 81.693,336.333 81.366,336.333 81.023 C 336.333 80.681,336.266 80.329,336.184 80.242 C 336.101 80.155,335.991 79.783,335.938 79.417 C 335.885 79.050,335.794 78.431,335.736 78.041 C 335.679 77.650,335.564 77.290,335.482 77.239 C 335.400 77.188,335.333 76.864,335.333 76.518 C 335.333 76.172,335.280 75.835,335.214 75.770 C 335.043 75.598,334.683 74.165,334.674 73.620 C 334.670 73.365,334.554 73.113,334.417 73.060 C 334.242 72.993,334.167 72.720,334.167 72.149 C 334.167 71.700,334.092 71.333,334.000 71.333 C 333.908 71.333,333.833 71.033,333.833 70.667 C 333.833 70.300,333.758 70.000,333.667 70.000 C 333.575 70.000,333.500 69.662,333.500 69.250 C 333.500 68.837,333.425 68.500,333.333 68.500 C 333.242 68.500,333.167 68.242,333.167 67.927 C 333.167 67.611,333.092 67.307,333.000 67.250 C 332.908 67.193,332.833 66.893,332.833 66.583 C 332.833 66.273,332.758 65.973,332.667 65.917 C 332.575 65.860,332.500 65.523,332.500 65.167 C 332.500 64.811,332.425 64.473,332.333 64.417 C 332.242 64.360,332.167 64.060,332.167 63.750 C 332.167 63.440,332.092 63.140,332.000 63.083 C 331.908 63.027,331.833 62.685,331.833 62.323 C 331.833 61.962,331.758 61.667,331.667 61.667 C 331.575 61.667,331.500 61.367,331.500 61.000 C 331.500 60.633,331.425 60.333,331.333 60.333 C 331.242 60.333,331.167 60.033,331.167 59.667 C 331.167 59.300,331.096 59.000,331.010 59.000 C 330.923 59.000,330.829 58.681,330.801 58.292 L 330.750 57.583 323.620 57.540 C 317.075 57.500,316.482 57.519,316.384 57.776 M303.417 67.667 C 303.473 67.758,303.665 67.833,303.843 67.833 C 304.021 67.833,304.167 67.908,304.167 68.000 C 304.167 68.092,304.260 68.167,304.375 68.167 C 304.915 68.167,306.167 69.918,306.167 70.673 C 306.167 70.842,306.242 71.027,306.333 71.083 C 306.425 71.140,306.500 71.444,306.500 71.760 L 306.500 72.333 301.095 72.333 L 295.690 72.333 295.858 71.792 C 295.951 71.494,296.072 71.101,296.126 70.920 C 296.181 70.738,296.362 70.443,296.530 70.263 C 296.697 70.084,296.833 69.874,296.833 69.796 C 296.833 69.580,297.864 68.612,298.376 68.347 C 298.628 68.217,298.833 68.048,298.833 67.972 C 298.833 67.896,299.016 67.833,299.240 67.833 C 299.464 67.833,299.693 67.758,299.750 67.667 C 299.808 67.573,300.610 67.500,301.583 67.500 C 302.557 67.500,303.359 67.573,303.417 67.667 M250.939 85.106 L 250.500 85.545 250.500 91.481 L 250.500 97.417 250.895 97.875 L 251.289 98.333 254.311 98.333 L 257.333 98.333 257.333 91.500 L 257.333 84.667 254.356 84.667 L 251.379 84.667 250.939 85.106 " stroke="none" fill="#7b93fb" fill-rule="evenodd"></path><path id="path1" d="M50.527 45.646 C 50.405 45.724,50.317 45.854,50.332 45.935 C 50.361 46.092,50.065 47.160,49.816 47.800 C 49.734 48.010,49.667 48.333,49.667 48.518 C 49.667 48.702,49.606 48.816,49.532 48.770 C 49.458 48.724,49.379 49.001,49.357 49.385 C 49.335 49.769,49.245 50.108,49.158 50.139 C 49.071 50.169,49.000 50.376,49.000 50.597 C 49.000 50.819,48.925 51.000,48.833 51.000 C 48.742 51.000,48.667 51.267,48.667 51.593 C 48.667 51.919,48.597 52.143,48.511 52.090 C 48.425 52.037,48.350 52.202,48.343 52.455 C 48.319 53.295,48.279 53.500,48.139 53.500 C 48.063 53.500,48.000 53.725,48.000 54.000 C 48.000 54.275,47.921 54.500,47.823 54.500 C 47.726 54.500,47.690 54.570,47.743 54.655 C 47.796 54.740,47.761 54.858,47.667 54.917 C 47.572 54.975,47.532 55.084,47.578 55.158 C 47.624 55.232,47.475 55.644,47.247 56.072 C 46.799 56.915,46.751 57.070,46.984 56.926 C 47.068 56.875,47.056 57.093,46.958 57.410 C 46.861 57.728,46.716 57.947,46.636 57.898 C 46.557 57.849,46.502 57.870,46.516 57.946 C 46.591 58.382,46.477 59.172,46.350 59.094 C 46.267 59.043,46.215 59.226,46.235 59.500 C 46.257 59.831,46.191 60.000,46.039 60.000 C 45.903 60.000,45.822 60.153,45.840 60.375 C 45.893 61.035,45.837 61.356,45.685 61.262 C 45.604 61.211,45.541 61.263,45.545 61.377 C 45.570 62.061,45.479 62.507,45.333 62.417 C 45.194 62.330,45.072 63.066,45.147 63.542 C 45.158 63.610,45.079 63.667,44.972 63.667 C 44.865 63.667,44.825 63.714,44.883 63.772 C 44.941 63.830,44.902 64.036,44.797 64.230 C 44.692 64.424,44.585 64.770,44.560 64.998 C 44.535 65.225,44.436 65.438,44.341 65.470 C 44.245 65.502,44.167 65.601,44.167 65.690 C 44.167 65.780,44.260 65.800,44.375 65.735 C 44.542 65.641,44.542 65.663,44.375 65.842 C 44.260 65.966,44.167 66.239,44.167 66.450 C 44.167 66.661,44.086 66.833,43.988 66.833 C 43.889 66.833,43.839 66.965,43.875 67.125 C 43.911 67.285,43.808 67.765,43.647 68.190 C 43.485 68.616,43.402 69.013,43.463 69.074 C 43.524 69.135,43.484 69.240,43.375 69.307 C 43.266 69.375,43.159 69.671,43.137 69.965 C 43.114 70.259,43.037 70.500,42.965 70.500 C 42.892 70.500,42.833 70.729,42.833 71.010 C 42.833 71.290,42.774 71.483,42.701 71.438 C 42.629 71.393,42.551 71.588,42.530 71.872 C 42.508 72.155,42.368 72.476,42.218 72.586 C 42.047 72.711,41.988 72.895,42.059 73.080 C 42.121 73.243,42.082 73.484,41.972 73.617 C 41.861 73.750,41.764 74.097,41.755 74.388 C 41.747 74.679,41.658 74.901,41.559 74.882 C 41.448 74.861,41.393 75.102,41.417 75.504 C 41.439 75.864,41.390 76.118,41.309 76.068 C 41.228 76.018,41.212 75.896,41.273 75.796 C 41.335 75.697,41.314 75.659,41.228 75.712 C 41.141 75.766,41.079 76.074,41.090 76.398 C 41.102 76.749,41.020 77.021,40.888 77.071 C 40.761 77.120,40.667 77.411,40.667 77.755 C 40.667 78.084,40.607 78.316,40.535 78.271 C 40.462 78.226,40.385 78.418,40.364 78.697 C 40.343 78.976,40.255 79.336,40.168 79.497 C 40.082 79.658,40.060 79.838,40.119 79.896 C 40.178 79.955,40.081 80.113,39.904 80.246 C 39.689 80.410,39.658 80.491,39.812 80.495 C 39.965 80.498,39.990 80.569,39.889 80.708 C 39.806 80.823,39.715 81.142,39.688 81.417 C 39.660 81.692,39.569 81.988,39.486 82.075 C 39.402 82.162,39.333 82.373,39.333 82.543 C 39.333 82.714,39.258 82.807,39.167 82.750 C 39.067 82.689,39.000 82.890,39.000 83.250 C 39.000 83.582,38.935 83.813,38.856 83.764 C 38.777 83.715,38.710 83.879,38.707 84.129 C 38.698 85.028,38.664 85.185,38.500 85.083 C 38.401 85.022,38.333 85.220,38.333 85.573 C 38.333 85.900,38.275 86.167,38.203 86.167 C 38.131 86.167,38.057 86.361,38.037 86.598 C 38.017 86.836,37.947 87.117,37.880 87.223 C 37.813 87.330,37.733 87.604,37.702 87.833 C 37.671 88.063,37.576 88.321,37.490 88.408 C 37.404 88.495,37.333 88.702,37.333 88.867 C 37.333 89.032,37.240 89.168,37.125 89.169 C 36.984 89.171,36.997 89.229,37.167 89.349 C 37.355 89.482,37.365 89.546,37.208 89.610 C 37.094 89.656,37.000 89.876,37.000 90.097 C 37.000 90.319,36.944 90.500,36.875 90.500 C 36.806 90.500,36.739 90.697,36.725 90.939 C 36.711 91.180,36.608 91.434,36.495 91.503 C 36.383 91.572,36.292 91.842,36.292 92.102 C 36.292 92.362,36.180 92.746,36.043 92.955 C 35.906 93.163,35.834 93.484,35.882 93.667 C 35.932 93.858,35.887 94.000,35.776 94.000 C 35.670 94.000,35.574 94.206,35.562 94.458 C 35.538 94.975,35.163 96.373,35.014 96.500 C 34.826 96.660,34.919 97.084,35.167 97.198 C 35.476 97.341,49.415 97.359,49.272 97.217 C 49.216 97.160,49.246 97.022,49.339 96.910 C 49.432 96.797,49.519 96.431,49.532 96.096 C 49.544 95.760,49.618 95.446,49.697 95.398 C 49.775 95.350,49.796 95.240,49.743 95.155 C 49.690 95.070,49.731 95.000,49.833 95.000 C 49.936 95.000,49.972 94.923,49.914 94.829 C 49.778 94.609,49.988 93.640,50.150 93.740 C 50.217 93.781,50.279 93.613,50.287 93.366 C 50.313 92.547,50.405 92.000,50.516 92.000 C 50.576 92.000,50.625 91.804,50.625 91.564 C 50.625 91.325,50.723 91.068,50.843 90.994 C 51.023 90.883,51.023 90.812,50.844 90.596 C 50.724 90.452,50.694 90.333,50.777 90.333 C 50.861 90.333,50.942 90.166,50.957 89.961 C 50.973 89.757,51.056 89.438,51.143 89.253 C 51.229 89.068,51.391 88.392,51.502 87.750 L 51.704 86.583 58.719 86.630 C 62.576 86.656,65.762 86.706,65.797 86.741 C 65.832 86.777,65.861 87.149,65.861 87.569 C 65.861 87.990,65.930 88.333,66.014 88.333 C 66.098 88.333,66.167 88.516,66.167 88.740 C 66.167 88.964,66.242 89.193,66.333 89.250 C 66.425 89.307,66.501 89.780,66.503 90.302 C 66.504 90.975,66.552 91.178,66.667 91.000 C 66.784 90.818,66.829 90.957,66.831 91.508 C 66.832 91.925,66.909 92.342,67.001 92.435 C 67.094 92.527,67.187 92.898,67.210 93.260 C 67.232 93.621,67.321 93.968,67.408 94.030 C 67.495 94.093,67.559 94.448,67.551 94.821 C 67.543 95.193,67.603 95.456,67.685 95.406 C 67.816 95.324,67.917 95.836,67.847 96.226 C 67.833 96.304,67.908 96.473,68.015 96.601 C 68.163 96.780,68.156 96.833,67.983 96.833 C 67.855 96.833,67.913 96.941,68.119 97.085 C 68.428 97.302,69.478 97.331,75.691 97.293 L 82.903 97.250 82.925 96.625 C 82.941 96.157,82.880 95.999,82.682 95.997 C 82.450 95.995,82.448 95.975,82.667 95.833 C 82.833 95.726,82.847 95.671,82.708 95.669 C 82.588 95.668,82.500 95.452,82.500 95.157 C 82.500 94.859,82.431 94.690,82.333 94.750 C 82.234 94.811,82.167 94.613,82.167 94.260 C 82.167 93.934,82.092 93.667,82.000 93.667 C 81.908 93.667,81.833 93.367,81.833 93.000 C 81.833 92.633,81.777 92.333,81.707 92.333 C 81.556 92.333,81.167 91.141,81.167 90.679 C 81.167 90.500,81.092 90.307,81.000 90.250 C 80.908 90.193,80.833 89.964,80.833 89.740 C 80.833 89.516,80.758 89.333,80.667 89.333 C 80.575 89.333,80.500 89.254,80.500 89.157 C 80.500 89.060,80.575 89.027,80.667 89.083 C 80.758 89.140,80.833 89.107,80.833 89.010 C 80.833 88.913,80.770 88.833,80.692 88.833 C 80.497 88.833,79.980 87.244,79.880 86.333 C 79.834 85.921,79.730 85.501,79.649 85.400 C 79.567 85.299,79.484 85.019,79.464 84.779 C 79.444 84.538,79.336 84.306,79.223 84.263 C 79.105 84.217,79.051 84.005,79.096 83.758 C 79.148 83.471,79.104 83.345,78.962 83.374 C 78.829 83.401,78.770 83.276,78.802 83.042 C 78.831 82.835,78.784 82.667,78.698 82.667 C 78.612 82.667,78.542 82.477,78.542 82.244 C 78.542 82.012,78.430 81.694,78.293 81.536 C 78.156 81.379,78.076 81.160,78.116 81.051 C 78.156 80.941,78.101 80.689,77.994 80.489 C 77.862 80.241,77.858 80.162,77.983 80.240 C 78.084 80.302,78.167 80.274,78.167 80.177 C 78.167 80.079,78.042 80.000,77.889 80.000 C 77.736 80.000,77.658 79.953,77.716 79.895 C 77.773 79.838,77.710 79.527,77.575 79.203 C 77.439 78.880,77.365 78.580,77.409 78.536 C 77.452 78.492,77.378 78.299,77.244 78.108 C 77.110 77.916,77.000 77.476,77.000 77.130 C 77.000 76.783,76.925 76.500,76.833 76.500 C 76.742 76.500,76.667 76.279,76.667 76.010 C 76.667 75.740,76.592 75.473,76.500 75.417 C 76.408 75.360,76.333 75.137,76.333 74.921 C 76.333 74.705,76.260 74.503,76.170 74.472 C 76.079 74.442,75.986 74.143,75.961 73.808 C 75.937 73.473,75.860 73.234,75.792 73.276 C 75.723 73.318,75.667 73.170,75.667 72.947 C 75.667 72.723,75.553 72.269,75.414 71.937 C 75.276 71.605,75.210 71.333,75.268 71.333 C 75.326 71.333,75.297 71.240,75.203 71.125 C 75.109 71.010,75.006 70.692,74.975 70.417 C 74.943 70.142,74.826 69.821,74.715 69.704 C 74.605 69.586,74.561 69.368,74.619 69.218 C 74.689 69.036,74.659 68.985,74.528 69.066 C 74.410 69.139,74.333 69.080,74.333 68.917 C 74.333 68.768,74.405 68.691,74.493 68.746 C 74.581 68.800,74.549 68.645,74.423 68.401 C 74.296 68.158,74.237 67.843,74.292 67.702 C 74.356 67.534,74.323 67.487,74.195 67.566 C 74.002 67.685,73.929 67.408,73.991 66.792 C 74.008 66.631,73.941 66.500,73.844 66.500 C 73.746 66.500,73.667 66.355,73.667 66.179 C 73.667 66.002,73.549 65.739,73.405 65.595 C 73.260 65.450,73.225 65.333,73.327 65.333 C 73.460 65.333,73.462 65.240,73.333 65.000 C 73.235 64.817,73.214 64.666,73.286 64.664 C 73.358 64.663,73.304 64.589,73.167 64.500 C 72.944 64.356,72.944 64.338,73.167 64.333 C 73.314 64.330,73.348 64.278,73.250 64.206 C 73.012 64.031,72.606 63.276,72.821 63.409 C 72.919 63.470,73.000 63.448,73.000 63.361 C 73.000 63.274,72.878 63.156,72.730 63.099 C 72.528 63.021,72.485 62.866,72.561 62.489 C 72.616 62.211,72.596 62.024,72.515 62.074 C 72.332 62.187,72.207 61.866,72.246 61.383 C 72.263 61.181,72.219 61.051,72.150 61.094 C 72.080 61.137,71.976 61.096,71.918 61.003 C 71.861 60.910,71.891 60.833,71.986 60.833 C 72.099 60.833,72.106 60.696,72.007 60.434 C 71.923 60.214,71.906 59.977,71.969 59.907 C 72.032 59.837,71.963 59.823,71.815 59.876 C 71.601 59.952,71.558 59.873,71.604 59.486 C 71.637 59.199,71.582 59.000,71.469 59.000 C 71.364 59.000,71.327 58.951,71.387 58.890 C 71.448 58.830,71.420 58.688,71.327 58.575 C 71.233 58.462,71.140 58.144,71.120 57.868 C 71.100 57.592,71.042 57.391,70.990 57.423 C 70.888 57.486,70.405 55.500,70.468 55.279 C 70.490 55.204,70.431 55.189,70.337 55.247 C 70.236 55.310,70.167 55.159,70.167 54.877 C 70.167 54.614,70.095 54.329,70.008 54.241 C 69.921 54.154,69.831 53.806,69.808 53.469 C 69.785 53.131,69.723 52.882,69.670 52.915 C 69.617 52.947,69.494 52.721,69.397 52.411 C 69.300 52.101,69.284 51.886,69.360 51.933 C 69.437 51.981,69.500 51.940,69.500 51.843 C 69.500 51.746,69.425 51.667,69.333 51.667 C 69.242 51.667,69.167 51.442,69.167 51.167 C 69.167 50.892,69.092 50.667,69.000 50.667 C 68.908 50.667,68.833 50.485,68.833 50.264 C 68.833 50.042,68.746 49.832,68.640 49.797 C 68.534 49.761,68.455 49.483,68.463 49.178 C 68.472 48.872,68.365 48.449,68.226 48.237 C 68.087 48.025,67.979 47.791,67.986 47.717 C 68.011 47.460,67.473 46.003,67.318 45.907 C 67.232 45.854,67.204 45.740,67.257 45.655 C 67.379 45.458,50.838 45.449,50.527 45.646 M86.648 47.333 C 86.452 47.448,86.388 47.706,86.412 48.287 C 86.431 48.743,86.345 49.239,86.210 49.448 C 86.081 49.648,85.990 49.948,86.007 50.114 C 86.078 50.793,85.992 51.848,85.872 51.774 C 85.801 51.730,85.736 52.137,85.727 52.678 C 85.719 53.219,85.626 53.764,85.523 53.889 C 85.419 54.015,85.346 54.417,85.360 54.783 C 85.400 55.814,84.978 57.496,84.674 57.520 C 84.532 57.530,83.707 57.535,82.840 57.529 C 81.972 57.523,81.185 57.582,81.090 57.659 C 80.994 57.737,80.513 57.838,80.020 57.883 C 78.800 57.996,78.839 57.821,78.836 63.220 C 78.833 69.062,78.515 68.500,81.821 68.500 L 84.333 68.500 84.348 76.375 C 84.355 80.706,84.350 84.648,84.335 85.134 C 84.320 85.621,84.380 86.108,84.469 86.218 C 84.618 86.403,84.692 86.783,84.939 88.625 C 84.991 89.015,85.101 89.333,85.183 89.333 C 85.266 89.333,85.333 89.441,85.333 89.572 C 85.333 89.704,85.421 90.023,85.528 90.281 C 85.635 90.539,85.728 90.809,85.736 90.881 C 85.744 90.953,85.839 91.067,85.948 91.134 C 86.124 91.243,86.559 92.165,86.501 92.304 C 86.488 92.334,86.633 92.493,86.822 92.657 C 87.012 92.821,87.167 93.041,87.167 93.146 C 87.167 93.250,87.509 93.672,87.926 94.084 C 88.344 94.496,88.647 94.833,88.599 94.833 C 88.493 94.833,89.216 95.608,89.333 95.619 C 89.379 95.624,89.505 95.636,89.614 95.647 C 89.722 95.658,89.859 95.820,89.919 96.007 C 89.992 96.237,90.122 96.317,90.319 96.255 C 90.492 96.200,90.733 96.297,90.911 96.494 C 91.076 96.676,91.276 96.785,91.356 96.736 C 91.435 96.687,91.500 96.726,91.500 96.823 C 91.500 96.921,91.650 97.000,91.833 97.000 C 92.017 97.000,92.167 97.075,92.167 97.167 C 92.167 97.258,92.313 97.333,92.492 97.333 C 92.671 97.333,92.990 97.402,93.200 97.486 C 94.371 97.954,94.370 97.954,95.177 97.979 C 95.549 97.991,95.815 98.062,95.768 98.137 C 95.722 98.212,97.209 98.293,99.074 98.316 C 101.353 98.344,102.501 98.299,102.576 98.179 C 102.637 98.081,102.776 98.001,102.885 98.003 C 103.004 98.004,102.984 98.070,102.833 98.167 C 102.620 98.305,102.626 98.329,102.875 98.331 C 103.035 98.332,103.167 98.258,103.167 98.167 C 103.167 98.075,103.492 98.000,103.889 98.000 C 104.286 98.000,104.663 97.948,104.727 97.885 C 104.872 97.740,105.426 97.630,106.113 97.610 C 106.404 97.602,106.606 97.536,106.561 97.464 C 106.517 97.392,106.747 97.333,107.073 97.333 C 107.400 97.333,107.667 97.254,107.667 97.157 C 107.667 97.060,107.733 97.021,107.814 97.072 C 107.896 97.122,108.054 97.052,108.167 96.917 C 108.279 96.781,108.438 96.711,108.519 96.762 C 108.600 96.812,108.667 96.666,108.667 96.436 C 108.667 96.207,108.592 95.973,108.500 95.917 C 108.408 95.860,108.333 95.524,108.333 95.171 C 108.333 94.812,108.241 94.491,108.125 94.444 C 107.975 94.383,107.972 94.356,108.115 94.346 C 108.266 94.336,108.263 94.237,108.105 93.931 C 107.990 93.709,107.912 93.297,107.931 93.014 C 107.951 92.732,107.899 92.543,107.817 92.594 C 107.670 92.684,107.607 92.243,107.626 91.265 C 107.632 90.973,107.585 90.863,107.508 90.988 C 107.327 91.280,107.201 90.725,107.251 89.861 C 107.273 89.483,107.226 89.213,107.146 89.263 C 107.013 89.345,106.920 88.725,106.988 88.208 C 107.002 88.094,106.952 88.000,106.876 88.000 C 106.800 88.000,106.728 87.869,106.716 87.708 C 106.652 86.855,106.563 86.751,105.858 86.699 C 105.410 86.666,105.075 86.734,104.917 86.892 C 104.783 87.027,104.529 87.099,104.353 87.054 C 104.178 87.008,103.867 87.059,103.664 87.168 C 103.416 87.301,103.331 87.306,103.406 87.183 C 103.479 87.065,103.338 87.000,103.010 87.000 C 102.714 87.000,102.499 87.088,102.497 87.208 C 102.495 87.372,102.466 87.371,102.360 87.205 C 102.271 87.064,102.020 87.025,101.613 87.090 C 101.127 87.167,101.000 87.133,101.000 86.927 C 101.000 86.784,100.870 86.667,100.712 86.667 C 100.554 86.667,100.141 86.357,99.795 85.979 C 99.450 85.601,99.166 85.357,99.166 85.437 C 99.162 85.884,98.673 84.546,98.641 84.003 C 98.620 83.646,98.542 83.391,98.468 83.436 C 98.394 83.482,98.333 80.140,98.333 76.010 L 98.333 68.500 105.083 68.500 L 111.833 68.500 111.833 75.717 C 111.833 80.032,111.897 82.997,111.991 83.092 C 112.078 83.179,112.162 83.962,112.179 84.833 C 112.196 85.704,112.268 86.454,112.339 86.500 C 112.410 86.546,112.491 86.921,112.518 87.333 C 112.545 87.746,112.636 88.131,112.721 88.189 C 112.806 88.248,112.875 88.491,112.875 88.731 C 112.875 88.971,112.941 89.167,113.021 89.167 C 113.101 89.167,113.167 89.418,113.167 89.724 C 113.167 90.070,113.293 90.396,113.500 90.583 C 113.683 90.749,113.833 91.090,113.833 91.341 C 113.833 91.592,113.940 91.839,114.071 91.889 C 114.201 91.939,114.435 92.247,114.590 92.573 C 114.745 92.900,114.938 93.167,115.019 93.167 C 115.100 93.167,115.167 93.249,115.167 93.349 C 115.167 93.618,115.772 94.339,115.895 94.217 C 115.953 94.159,116.000 94.241,116.000 94.399 C 116.000 94.557,116.066 94.645,116.148 94.595 C 116.229 94.545,116.334 94.653,116.382 94.835 C 116.430 95.018,116.593 95.167,116.744 95.167 C 116.896 95.167,116.990 95.223,116.953 95.292 C 116.916 95.360,117.024 95.548,117.193 95.708 C 117.362 95.869,117.500 95.951,117.500 95.891 C 117.500 95.831,117.658 95.925,117.851 96.099 C 118.044 96.274,118.250 96.417,118.309 96.417 C 118.368 96.417,118.396 96.478,118.371 96.554 C 118.346 96.630,118.402 96.644,118.496 96.586 C 118.590 96.528,118.667 96.557,118.667 96.652 C 118.667 96.746,118.791 96.775,118.944 96.716 C 119.147 96.639,119.184 96.670,119.083 96.833 C 118.982 96.998,119.020 97.028,119.229 96.948 C 119.407 96.879,119.549 96.934,119.611 97.096 C 119.665 97.237,119.810 97.314,119.933 97.267 C 120.056 97.219,120.253 97.275,120.370 97.389 C 120.487 97.504,120.752 97.605,120.958 97.614 C 121.750 97.648,121.850 97.671,121.770 97.802 C 121.724 97.876,122.062 97.946,122.521 97.957 C 122.980 97.968,123.445 98.052,123.554 98.142 C 123.870 98.404,130.308 98.394,130.633 98.131 C 130.855 97.951,130.875 97.957,130.758 98.167 C 130.644 98.370,130.660 98.378,130.842 98.208 C 130.966 98.094,131.374 98.000,131.750 98.000 C 132.126 98.000,132.516 97.917,132.617 97.817 C 132.718 97.716,133.089 97.634,133.442 97.634 C 133.795 97.635,134.158 97.578,134.250 97.509 C 134.342 97.440,134.885 97.287,135.458 97.169 C 136.575 96.939,136.589 96.923,136.327 96.234 C 136.232 95.984,136.147 95.510,136.137 95.181 C 136.128 94.852,136.059 94.505,135.985 94.409 C 135.910 94.313,135.814 93.863,135.772 93.409 C 135.725 92.898,135.622 92.601,135.502 92.629 C 135.396 92.654,135.349 92.609,135.399 92.528 C 135.449 92.447,135.418 92.130,135.331 91.824 C 135.220 91.440,135.227 91.232,135.353 91.154 C 135.468 91.084,135.475 91.004,135.373 90.941 C 135.284 90.886,135.162 90.539,135.103 90.170 C 135.044 89.802,134.903 89.499,134.790 89.497 C 134.655 89.496,134.670 89.439,134.833 89.333 C 134.971 89.244,134.997 89.171,134.891 89.169 C 134.780 89.168,134.707 88.918,134.717 88.572 C 134.726 88.245,134.645 87.923,134.538 87.857 C 134.429 87.790,134.379 87.536,134.425 87.285 C 134.470 87.036,134.449 86.824,134.378 86.812 C 133.804 86.717,133.391 86.723,133.250 86.829 C 133.046 86.983,132.753 87.009,131.204 87.014 C 130.402 87.016,130.028 87.076,130.099 87.192 C 130.173 87.312,130.109 87.315,129.895 87.203 C 129.724 87.112,129.270 86.987,128.888 86.924 C 128.506 86.860,128.152 86.702,128.102 86.571 C 128.051 86.440,127.928 86.333,127.827 86.333 C 127.592 86.333,127.167 85.912,127.167 85.679 C 127.167 85.580,127.104 85.500,127.027 85.500 C 126.863 85.500,126.470 84.730,126.389 84.250 C 126.127 82.703,126.089 81.409,126.129 75.378 L 126.174 68.505 130.629 68.461 L 135.083 68.417 135.083 63.000 L 135.083 57.583 130.625 57.539 L 126.167 57.495 126.167 52.432 C 126.167 47.862,126.140 47.359,125.889 47.263 C 125.737 47.204,123.042 47.164,119.901 47.173 L 114.190 47.190 114.209 47.554 C 114.250 48.347,114.160 49.182,114.042 49.109 C 113.973 49.067,113.897 49.525,113.873 50.127 C 113.848 50.729,113.769 51.303,113.697 51.402 C 113.624 51.502,113.545 52.033,113.522 52.583 C 113.498 53.133,113.408 53.655,113.323 53.742 C 113.237 53.829,113.167 54.331,113.167 54.857 C 113.167 55.383,113.088 55.862,112.992 55.922 C 112.896 55.981,112.830 56.154,112.845 56.306 C 112.859 56.459,112.863 56.790,112.853 57.042 L 112.833 57.500 105.586 57.500 L 98.338 57.500 98.294 52.375 L 98.250 47.250 92.583 47.212 C 89.234 47.190,86.807 47.239,86.648 47.333 M226.547 62.299 L 226.583 69.083 229.208 69.129 C 231.413 69.168,231.899 69.131,232.249 68.902 C 232.479 68.751,232.667 68.674,232.667 68.729 C 232.667 68.785,232.812 68.705,232.991 68.553 C 233.300 68.288,233.315 68.007,233.318 62.179 C 233.321 58.258,233.266 56.173,233.164 56.333 C 233.007 56.580,232.913 56.387,232.980 55.958 C 232.991 55.890,232.944 55.828,232.875 55.821 C 232.806 55.814,232.600 55.761,232.417 55.704 C 232.233 55.648,230.829 55.582,229.297 55.558 L 226.511 55.515 226.547 62.299 M260.206 62.292 L 260.250 69.083 264.833 69.118 C 270.729 69.162,270.501 69.152,270.083 69.342 C 269.797 69.473,269.821 69.492,270.250 69.479 C 271.129 69.453,271.356 69.496,271.250 69.667 C 271.192 69.761,271.332 69.833,271.573 69.833 C 271.808 69.833,272.000 69.890,272.000 69.959 C 272.000 70.029,272.225 70.185,272.501 70.307 C 272.781 70.431,272.953 70.607,272.892 70.707 C 272.831 70.805,272.859 70.837,272.954 70.778 C 273.049 70.719,273.380 70.894,273.689 71.166 C 273.997 71.439,274.188 71.663,274.113 71.664 C 273.936 71.667,274.320 72.049,274.750 72.297 C 274.933 72.403,274.992 72.492,274.880 72.495 C 274.609 72.502,274.787 72.932,275.281 73.466 C 275.500 73.702,275.643 73.987,275.600 74.100 C 275.557 74.213,275.624 74.345,275.750 74.394 C 275.908 74.454,275.969 74.740,275.948 75.322 C 275.928 75.866,275.990 76.192,276.125 76.243 C 276.391 76.345,276.397 77.370,276.132 77.635 C 276.022 77.745,275.915 78.181,275.896 78.604 C 275.877 79.026,275.786 79.447,275.694 79.539 C 275.602 79.632,275.566 79.811,275.614 79.937 C 275.666 80.073,275.594 80.167,275.436 80.167 C 275.260 80.167,275.184 80.293,275.210 80.542 C 275.234 80.768,275.167 80.900,275.042 80.875 C 274.927 80.852,274.849 80.890,274.869 80.958 C 274.888 81.027,274.816 81.242,274.708 81.436 C 274.600 81.631,274.559 81.837,274.617 81.895 C 274.675 81.953,274.633 82.000,274.525 82.000 C 274.416 82.000,274.075 82.244,273.766 82.542 C 272.965 83.315,272.716 83.494,272.601 83.379 C 272.545 83.323,272.500 83.365,272.500 83.472 C 272.500 83.579,272.350 83.667,272.167 83.667 C 271.983 83.667,271.833 83.742,271.833 83.833 C 271.833 83.925,271.683 84.000,271.500 84.000 C 271.317 84.000,271.167 84.059,271.167 84.132 C 271.167 84.519,269.441 84.667,264.914 84.667 L 260.167 84.667 260.167 91.504 L 260.167 98.341 265.922 98.329 C 269.087 98.323,271.637 98.253,271.589 98.175 C 271.540 98.097,271.820 97.998,272.209 97.954 C 272.598 97.910,273.142 97.818,273.417 97.748 C 273.692 97.679,274.081 97.617,274.281 97.611 C 274.481 97.605,274.615 97.551,274.578 97.492 C 274.501 97.367,275.574 96.992,276.113 96.955 C 276.313 96.942,276.463 96.853,276.447 96.757 C 276.430 96.662,276.585 96.607,276.792 96.635 C 277.061 96.673,277.167 96.603,277.169 96.385 C 277.171 96.129,277.196 96.121,277.333 96.333 C 277.451 96.515,277.496 96.524,277.497 96.365 C 277.499 96.245,277.579 96.196,277.675 96.255 C 277.771 96.314,278.043 96.169,278.281 95.931 C 278.518 95.694,278.777 95.491,278.856 95.479 C 278.935 95.468,279.075 95.440,279.167 95.417 C 279.258 95.394,279.408 95.366,279.500 95.354 C 279.592 95.343,279.667 95.221,279.667 95.083 C 279.667 94.863,279.735 94.823,280.087 94.837 C 280.259 94.844,280.630 94.414,280.556 94.292 C 280.514 94.223,280.554 94.167,280.643 94.167 C 280.732 94.167,280.843 94.260,280.890 94.375 C 280.946 94.515,280.978 94.500,280.987 94.328 C 280.994 94.188,281.162 93.963,281.359 93.828 C 281.557 93.694,281.870 93.415,282.056 93.208 C 282.242 93.002,282.549 92.832,282.738 92.831 C 283.022 92.829,283.039 92.800,282.833 92.667 C 282.620 92.529,282.626 92.505,282.875 92.503 C 283.035 92.501,283.167 92.425,283.167 92.333 C 283.167 92.242,283.298 92.161,283.458 92.154 C 283.636 92.145,283.668 92.107,283.540 92.056 C 283.318 91.966,284.323 90.833,284.624 90.833 C 284.802 90.833,285.167 89.728,285.167 89.189 C 285.167 88.993,285.242 88.833,285.333 88.833 C 285.425 88.833,285.500 88.760,285.500 88.670 C 285.500 88.580,285.760 88.100,286.077 87.604 C 286.739 86.570,287.667 84.609,287.667 84.246 C 287.667 84.111,287.742 84.000,287.833 84.000 C 287.925 84.000,288.000 83.775,288.000 83.500 C 288.000 83.225,288.075 83.000,288.167 83.000 C 288.258 83.000,288.333 82.704,288.333 82.343 C 288.333 81.982,288.408 81.640,288.500 81.583 C 288.592 81.527,288.667 81.072,288.667 80.573 C 288.667 80.075,288.742 79.667,288.833 79.667 C 288.938 79.667,289.000 78.639,289.000 76.917 C 289.000 75.194,288.938 74.167,288.833 74.167 C 288.741 74.167,288.667 73.722,288.667 73.167 C 288.667 72.611,288.593 72.167,288.500 72.167 C 288.408 72.167,288.333 71.909,288.333 71.593 C 288.333 71.278,288.258 70.973,288.167 70.917 C 288.075 70.860,288.000 70.593,288.000 70.323 C 288.000 70.054,287.925 69.833,287.833 69.833 C 287.742 69.833,287.667 69.722,287.667 69.587 C 287.667 69.227,286.536 66.867,285.966 66.036 C 285.646 65.570,285.493 65.159,285.525 64.853 C 285.554 64.575,285.457 64.266,285.286 64.095 C 285.127 63.936,285.040 63.737,285.093 63.652 C 285.145 63.567,285.028 63.438,284.832 63.365 C 284.636 63.293,284.481 63.181,284.488 63.117 C 284.526 62.759,284.475 62.667,284.240 62.667 C 284.097 62.667,284.017 62.608,284.061 62.536 C 284.105 62.464,283.923 62.231,283.655 62.018 C 283.388 61.805,283.218 61.552,283.277 61.456 C 283.339 61.356,283.305 61.331,283.196 61.398 C 283.087 61.466,282.554 61.066,281.927 60.445 C 281.333 59.857,280.812 59.460,280.770 59.563 C 280.728 59.666,280.687 59.621,280.680 59.464 C 280.671 59.276,280.578 59.211,280.410 59.276 C 280.246 59.338,280.171 59.291,280.202 59.145 C 280.228 59.020,280.124 58.916,279.970 58.915 C 279.815 58.913,279.502 58.737,279.274 58.522 C 279.045 58.307,278.777 58.182,278.678 58.243 C 278.579 58.304,278.453 58.238,278.398 58.095 C 278.343 57.952,278.231 57.877,278.149 57.927 C 278.067 57.978,278.000 57.948,278.000 57.861 C 278.000 57.774,277.813 57.656,277.583 57.598 C 277.354 57.541,277.167 57.416,277.167 57.320 C 277.167 57.225,277.098 57.190,277.013 57.242 C 276.929 57.294,276.758 57.234,276.633 57.109 C 276.508 56.984,276.146 56.831,275.828 56.768 C 274.508 56.508,274.333 56.455,274.333 56.314 C 274.333 56.233,274.066 56.167,273.740 56.167 C 273.362 56.167,273.187 56.102,273.257 55.989 C 273.317 55.891,273.266 55.825,273.142 55.842 C 272.430 55.940,271.269 55.816,271.500 55.667 C 271.664 55.561,269.759 55.504,265.956 55.503 L 260.163 55.500 260.206 62.292 M161.410 56.678 C 161.357 56.763,161.093 56.833,160.823 56.833 C 160.554 56.833,160.333 56.918,160.333 57.020 C 160.333 57.144,160.242 57.132,160.065 56.985 C 159.840 56.798,159.767 56.803,159.607 57.012 C 159.502 57.150,159.277 57.233,159.105 57.198 C 158.916 57.160,158.837 57.204,158.904 57.312 C 158.966 57.414,158.831 57.536,158.590 57.597 C 158.357 57.655,158.167 57.767,158.167 57.846 C 158.167 57.925,158.042 57.942,157.889 57.883 C 157.703 57.812,157.651 57.841,157.732 57.972 C 157.805 58.089,157.748 58.167,157.588 58.167 C 157.442 58.167,157.280 58.279,157.227 58.417 C 157.174 58.554,156.957 58.667,156.743 58.667 C 156.508 58.667,156.316 58.792,156.255 58.985 C 156.151 59.311,155.766 59.554,155.207 59.646 C 155.137 59.657,154.982 59.825,154.861 60.017 C 154.701 60.274,154.697 60.334,154.847 60.242 C 154.982 60.158,155.009 60.184,154.926 60.319 C 154.856 60.431,154.686 60.479,154.546 60.426 C 154.355 60.352,154.316 60.414,154.384 60.677 C 154.451 60.933,154.412 61.002,154.238 60.935 C 154.096 60.881,154.000 60.946,154.000 61.098 C 154.000 61.248,153.921 61.304,153.808 61.234 C 153.695 61.164,153.660 61.188,153.724 61.291 C 153.783 61.387,153.646 61.643,153.419 61.858 C 153.192 62.074,153.004 62.344,153.003 62.458 C 153.001 62.573,152.925 62.667,152.833 62.667 C 152.742 62.667,152.666 62.835,152.664 63.042 C 152.662 63.345,152.631 63.369,152.500 63.167 C 152.375 62.973,152.338 63.023,152.336 63.389 C 152.331 64.259,151.918 63.781,151.900 62.884 C 151.890 62.424,151.833 61.968,151.774 61.871 C 151.714 61.774,151.759 61.657,151.874 61.611 C 152.000 61.560,151.968 61.521,151.792 61.513 C 151.463 61.498,151.384 61.168,151.708 61.164 C 151.871 61.162,151.872 61.133,151.713 61.032 C 151.580 60.948,151.528 60.572,151.563 59.951 C 151.599 59.300,151.545 58.940,151.391 58.812 C 151.268 58.710,151.167 58.419,151.167 58.166 C 151.167 57.829,151.066 57.678,150.792 57.605 C 150.300 57.473,140.273 57.470,139.930 57.601 C 139.692 57.693,139.667 59.603,139.667 77.520 L 139.667 97.337 146.625 97.293 L 153.583 97.250 153.667 86.250 C 153.736 77.049,153.790 75.182,153.992 74.833 C 154.125 74.604,154.258 74.269,154.288 74.089 C 154.318 73.909,154.498 73.596,154.689 73.393 C 154.879 73.191,154.989 72.950,154.933 72.859 C 154.876 72.768,155.028 72.537,155.271 72.347 C 155.513 72.156,155.667 72.000,155.612 72.000 C 155.557 72.000,155.864 71.662,156.295 71.250 C 156.725 70.837,157.173 70.500,157.289 70.500 C 157.405 70.500,157.500 70.425,157.500 70.333 C 157.500 70.242,157.632 70.167,157.793 70.167 C 157.955 70.167,158.180 70.017,158.295 69.833 C 158.409 69.650,158.646 69.500,158.821 69.500 C 158.996 69.500,159.164 69.429,159.194 69.342 C 159.225 69.255,159.569 69.165,159.958 69.142 C 160.348 69.120,160.667 69.041,160.667 68.967 C 160.667 68.811,162.561 68.783,162.715 68.937 C 162.772 68.994,163.291 69.074,163.868 69.114 C 164.445 69.155,164.988 69.258,165.075 69.344 C 165.378 69.643,166.192 69.524,166.285 69.167 C 166.333 68.983,166.429 68.833,166.498 68.833 C 166.567 68.833,166.634 68.365,166.646 67.792 C 166.659 67.219,166.744 66.725,166.835 66.694 C 166.926 66.664,167.000 66.228,167.000 65.726 C 167.000 65.224,167.064 64.853,167.141 64.901 C 167.219 64.949,167.296 64.562,167.313 64.042 C 167.330 63.522,167.423 63.048,167.520 62.988 C 167.616 62.928,167.683 62.830,167.668 62.769 C 167.654 62.708,167.679 62.566,167.724 62.454 C 167.770 62.341,167.813 62.384,167.820 62.552 C 167.827 62.717,167.908 62.807,168.000 62.750 C 168.092 62.693,168.167 62.801,168.167 62.990 C 168.167 63.179,168.228 63.333,168.302 63.333 C 168.377 63.333,168.541 63.596,168.667 63.917 C 168.793 64.237,168.957 64.500,169.031 64.500 C 169.106 64.500,169.167 64.692,169.167 64.927 C 169.167 65.168,169.239 65.308,169.333 65.250 C 169.429 65.191,169.501 65.346,169.503 65.615 C 169.505 65.979,169.541 66.027,169.667 65.833 C 169.818 65.600,169.935 66.061,169.849 66.554 C 169.836 66.630,169.891 66.651,169.971 66.601 C 170.149 66.491,170.505 67.124,170.542 67.616 C 170.557 67.815,170.620 67.945,170.682 67.907 C 170.745 67.868,170.898 67.963,171.023 68.117 C 171.179 68.310,171.185 68.358,171.042 68.272 C 170.927 68.203,170.833 68.226,170.833 68.323 C 170.833 68.421,170.891 68.500,170.961 68.500 C 171.031 68.500,171.218 68.800,171.377 69.167 C 171.536 69.533,171.745 69.833,171.843 69.833 C 171.940 69.833,171.977 69.902,171.925 69.987 C 171.873 70.071,171.940 70.249,172.074 70.383 C 172.208 70.517,172.271 70.673,172.214 70.730 C 172.158 70.787,172.316 70.833,172.565 70.833 C 172.826 70.833,172.976 70.904,172.917 71.000 C 172.860 71.092,172.875 71.167,172.950 71.167 C 173.025 71.167,173.180 71.017,173.295 70.833 C 173.433 70.613,173.685 70.499,174.043 70.497 C 174.453 70.496,174.523 70.456,174.333 70.333 C 174.131 70.203,174.155 70.171,174.458 70.169 C 174.665 70.168,174.833 70.092,174.833 70.000 C 174.833 69.908,174.983 69.833,175.167 69.833 C 175.350 69.833,175.500 69.758,175.500 69.667 C 175.500 69.575,175.706 69.498,175.958 69.495 C 176.399 69.490,177.073 69.128,176.922 68.978 C 176.882 68.937,177.044 68.889,177.283 68.869 C 177.521 68.849,177.810 68.755,177.925 68.660 C 178.073 68.537,178.159 68.549,178.221 68.701 C 178.287 68.866,178.310 68.868,178.320 68.708 C 178.327 68.594,178.437 68.500,178.564 68.500 C 178.691 68.500,178.998 68.395,179.246 68.266 C 179.508 68.130,179.970 68.064,180.349 68.107 C 180.707 68.148,181.000 68.112,181.000 68.026 C 181.000 67.941,181.343 67.820,181.762 67.757 C 182.618 67.628,184.704 67.805,184.586 67.996 C 184.544 68.064,184.770 68.091,185.088 68.056 C 185.523 68.008,185.667 68.055,185.667 68.246 C 185.667 68.386,185.784 68.500,185.927 68.500 C 186.069 68.500,186.144 68.568,186.093 68.651 C 186.042 68.734,186.131 68.773,186.291 68.738 C 186.653 68.659,187.321 69.476,187.369 70.057 C 187.388 70.287,187.463 70.439,187.535 70.395 C 187.608 70.350,187.667 70.543,187.667 70.823 C 187.667 71.293,187.622 71.333,187.093 71.333 C 186.778 71.333,186.473 71.408,186.417 71.500 C 186.360 71.592,185.912 71.667,185.421 71.667 C 184.862 71.667,184.496 71.745,184.444 71.875 C 184.376 72.042,184.357 72.042,184.346 71.875 C 184.339 71.760,184.216 71.667,184.073 71.667 C 183.931 71.667,183.860 71.742,183.917 71.833 C 183.980 71.935,183.724 72.000,183.260 72.000 C 182.309 72.000,182.312 72.000,181.950 72.194 C 181.784 72.282,181.334 72.358,180.950 72.363 C 180.565 72.368,180.207 72.440,180.154 72.523 C 180.102 72.607,179.786 72.685,179.453 72.697 C 179.119 72.710,178.886 72.783,178.933 72.860 C 179.011 72.986,178.479 73.083,178.099 73.011 C 178.015 72.995,177.903 73.054,177.849 73.141 C 177.794 73.228,177.525 73.325,177.250 73.357 C 176.975 73.389,176.709 73.470,176.659 73.537 C 176.610 73.604,176.422 73.686,176.243 73.720 C 176.063 73.754,175.704 73.869,175.444 73.976 C 175.185 74.082,174.892 74.119,174.794 74.059 C 174.688 73.994,174.664 74.027,174.734 74.141 C 174.812 74.267,174.706 74.333,174.427 74.333 C 174.192 74.333,174.000 74.408,174.000 74.500 C 174.000 74.592,173.846 74.667,173.657 74.667 C 173.468 74.667,173.359 74.739,173.414 74.828 C 173.469 74.917,173.323 75.038,173.090 75.097 C 172.857 75.155,172.667 75.267,172.667 75.346 C 172.667 75.425,172.542 75.442,172.389 75.383 C 172.211 75.315,172.152 75.342,172.225 75.460 C 172.292 75.568,172.184 75.666,171.961 75.700 C 171.753 75.732,171.604 75.855,171.629 75.975 C 171.654 76.094,171.599 76.145,171.506 76.087 C 171.328 75.977,171.208 76.060,170.169 77.021 C 169.809 77.354,169.559 77.670,169.612 77.723 C 169.666 77.777,169.515 77.910,169.277 78.018 C 169.039 78.127,168.884 78.280,168.932 78.359 C 168.981 78.438,168.904 78.547,168.762 78.602 C 168.619 78.657,168.544 78.769,168.595 78.852 C 168.646 78.935,168.571 79.047,168.427 79.102 C 168.284 79.157,168.167 79.294,168.167 79.405 C 168.167 79.517,167.981 79.783,167.755 79.995 C 167.529 80.208,167.380 80.441,167.425 80.513 C 167.469 80.585,167.429 80.691,167.336 80.748 C 167.091 80.900,167.127 81.206,167.375 81.081 C 167.490 81.023,167.468 81.075,167.327 81.196 C 167.186 81.317,167.099 81.550,167.132 81.713 C 167.167 81.881,167.106 81.989,166.992 81.963 C 166.882 81.937,166.754 82.021,166.708 82.148 C 166.649 82.309,166.694 82.338,166.853 82.241 C 167.036 82.131,167.043 82.152,166.889 82.343 C 166.680 82.601,166.667 82.653,166.667 83.177 C 166.667 83.365,166.608 83.484,166.537 83.439 C 166.465 83.395,166.404 84.512,166.400 85.921 C 166.396 87.330,166.449 88.448,166.518 88.406 C 166.707 88.289,166.833 88.850,166.754 89.454 C 166.715 89.749,166.754 90.034,166.840 90.087 C 166.928 90.142,166.949 90.054,166.888 89.884 C 166.693 89.340,166.959 89.736,167.233 90.395 C 167.465 90.957,167.467 91.013,167.246 90.830 C 167.034 90.654,167.010 90.664,167.097 90.893 C 167.155 91.044,167.269 91.167,167.351 91.167 C 167.433 91.167,167.500 91.279,167.500 91.417 C 167.500 91.554,167.583 91.667,167.684 91.667 C 167.786 91.667,167.827 91.777,167.775 91.912 C 167.723 92.047,167.790 92.266,167.924 92.400 C 168.057 92.534,168.167 92.731,168.167 92.838 C 168.167 92.945,168.392 93.243,168.667 93.500 C 168.942 93.757,169.167 94.031,169.167 94.109 C 169.167 94.335,170.016 95.259,170.139 95.167 C 170.200 95.121,170.324 95.252,170.415 95.458 C 170.514 95.686,170.725 95.833,170.951 95.833 C 171.227 95.833,171.296 95.904,171.218 96.106 C 171.149 96.287,171.187 96.354,171.333 96.306 C 171.453 96.266,171.782 96.443,172.063 96.700 C 172.344 96.957,172.740 97.167,172.942 97.167 C 173.144 97.167,173.422 97.279,173.560 97.417 C 173.697 97.554,173.965 97.667,174.155 97.667 C 174.345 97.667,174.500 97.730,174.500 97.808 C 174.500 97.886,174.742 97.956,175.038 97.965 C 175.334 97.973,175.603 98.059,175.636 98.157 C 175.668 98.254,175.768 98.333,175.857 98.333 C 175.946 98.333,175.963 98.240,175.895 98.125 C 175.803 97.973,175.843 97.976,176.041 98.137 C 176.344 98.382,180.770 98.389,181.094 98.144 C 181.192 98.070,181.511 97.992,181.803 97.970 C 182.095 97.947,182.334 97.851,182.336 97.756 C 182.338 97.640,182.379 97.642,182.461 97.760 C 182.546 97.883,182.712 97.871,183.000 97.721 C 183.229 97.602,183.342 97.501,183.250 97.495 C 182.938 97.477,184.415 97.005,184.792 97.003 C 185.009 97.001,185.167 96.897,185.167 96.755 C 185.167 96.615,185.265 96.548,185.398 96.599 C 185.526 96.648,185.826 96.492,186.066 96.252 C 186.306 96.012,186.573 95.859,186.660 95.912 C 186.746 95.966,186.892 95.868,186.985 95.695 C 187.077 95.522,187.353 95.250,187.597 95.090 C 187.885 94.901,187.993 94.878,187.904 95.024 C 187.829 95.148,188.132 94.887,188.578 94.444 C 189.476 93.551,189.700 93.617,189.700 94.777 C 189.700 95.119,189.795 95.393,189.933 95.446 C 190.088 95.505,190.137 95.696,190.080 96.018 C 190.028 96.313,190.068 96.500,190.182 96.500 C 190.285 96.500,190.326 96.612,190.273 96.750 C 190.220 96.888,190.254 97.000,190.348 97.000 C 190.443 97.000,190.476 97.071,190.422 97.159 C 190.360 97.258,192.513 97.322,196.162 97.329 L 202.000 97.341 202.000 95.451 L 202.000 93.561 200.333 91.850 C 199.417 90.908,198.667 90.049,198.667 89.939 C 198.667 89.830,198.517 89.632,198.333 89.500 C 198.150 89.368,198.000 89.161,198.000 89.040 C 198.000 88.918,197.850 88.658,197.667 88.462 C 197.483 88.265,197.333 88.005,197.333 87.885 C 197.333 87.765,197.258 87.667,197.167 87.667 C 197.075 87.667,197.000 87.517,197.000 87.333 C 197.000 87.150,196.925 87.000,196.833 87.000 C 196.742 87.000,196.667 86.850,196.667 86.667 C 196.667 86.483,196.592 86.333,196.500 86.333 C 196.408 86.333,196.333 86.198,196.333 86.033 C 196.333 85.868,196.266 85.662,196.183 85.575 C 196.100 85.488,195.830 84.817,195.583 84.083 C 195.336 83.350,195.071 82.600,194.995 82.417 C 194.367 80.908,194.182 74.864,194.695 72.683 C 194.984 71.459,196.060 68.255,196.203 68.194 C 196.275 68.164,196.333 67.995,196.333 67.819 C 196.333 67.644,196.408 67.500,196.500 67.500 C 196.592 67.500,196.667 67.350,196.667 67.167 C 196.667 66.983,196.742 66.833,196.833 66.833 C 196.925 66.833,197.000 66.683,197.000 66.500 C 197.000 66.317,197.075 66.167,197.167 66.167 C 197.258 66.167,197.333 66.086,197.333 65.988 C 197.333 65.777,198.337 64.275,198.532 64.194 C 198.606 64.164,198.667 64.063,198.667 63.970 C 198.667 63.877,198.825 63.579,199.018 63.308 C 199.212 63.036,199.324 62.768,199.268 62.713 C 199.212 62.657,199.162 62.717,199.156 62.847 C 199.150 62.977,199.076 62.910,198.991 62.698 C 198.906 62.485,198.761 62.359,198.668 62.416 C 198.576 62.473,198.500 62.446,198.500 62.357 C 198.500 62.268,198.594 62.157,198.708 62.110 C 198.841 62.057,198.818 62.022,198.645 62.013 C 198.496 62.006,198.281 61.775,198.167 61.500 C 198.053 61.225,197.912 60.999,197.855 60.997 C 197.797 60.996,197.341 60.621,196.842 60.164 C 196.343 59.707,195.836 59.333,195.717 59.333 C 195.598 59.333,195.500 59.221,195.500 59.083 C 195.500 58.946,195.362 58.833,195.192 58.833 C 195.023 58.833,194.751 58.685,194.587 58.504 C 194.423 58.323,194.231 58.211,194.159 58.254 C 193.899 58.415,193.451 58.135,193.694 57.963 C 193.845 57.857,193.769 57.839,193.458 57.906 C 193.193 57.964,193.000 57.935,193.000 57.837 C 193.000 57.743,192.855 57.667,192.679 57.667 C 192.502 57.667,192.258 57.573,192.137 57.458 C 192.016 57.344,191.729 57.229,191.500 57.203 C 191.271 57.178,190.990 57.147,190.875 57.134 C 190.760 57.121,190.667 57.063,190.667 57.003 C 190.667 56.944,190.312 56.877,189.879 56.855 C 189.446 56.832,189.050 56.748,189.000 56.667 C 188.951 56.587,187.243 56.525,185.207 56.530 C 183.108 56.535,181.544 56.603,181.595 56.686 C 181.645 56.767,181.238 56.833,180.690 56.833 C 180.050 56.833,179.664 56.908,179.610 57.042 C 179.548 57.196,179.523 57.190,179.513 57.021 C 179.504 56.858,179.440 56.842,179.292 56.964 C 179.177 57.058,178.814 57.177,178.486 57.229 C 178.157 57.281,177.757 57.373,177.596 57.435 C 177.435 57.497,177.142 57.564,176.944 57.586 C 176.337 57.651,176.311 57.662,176.408 57.819 C 176.459 57.902,176.370 57.949,176.209 57.923 C 176.048 57.897,175.823 57.951,175.708 58.042 C 175.563 58.158,175.498 58.139,175.495 57.979 C 175.492 57.827,175.431 57.851,175.316 58.049 C 175.197 58.254,175.034 58.314,174.800 58.239 C 174.572 58.167,174.496 58.192,174.572 58.315 C 174.680 58.489,174.370 58.577,173.875 58.512 C 173.760 58.498,173.667 58.601,173.667 58.743 C 173.667 58.886,173.524 59.000,173.344 59.000 C 173.167 59.000,172.811 59.087,172.553 59.194 C 172.294 59.300,172.027 59.375,171.958 59.360 C 171.890 59.345,171.833 59.439,171.833 59.568 C 171.833 59.726,171.716 59.771,171.474 59.708 C 171.228 59.644,171.152 59.675,171.234 59.807 C 171.312 59.934,171.207 60.000,170.927 60.000 C 170.692 60.000,170.500 60.075,170.500 60.167 C 170.500 60.258,170.394 60.333,170.264 60.333 C 170.134 60.333,170.003 60.401,169.972 60.485 C 169.942 60.568,169.767 60.662,169.583 60.693 C 169.150 60.767,168.844 61.039,168.959 61.250 C 169.008 61.342,168.955 61.330,168.841 61.225 C 168.681 61.077,168.524 61.153,168.161 61.558 L 167.689 62.083 167.704 61.532 C 167.712 61.194,167.768 61.062,167.848 61.190 C 167.919 61.306,167.933 61.479,167.879 61.575 C 167.824 61.671,167.842 61.693,167.919 61.624 C 167.995 61.554,168.040 61.056,168.018 60.516 C 167.995 59.956,168.054 59.486,168.156 59.424 C 168.253 59.363,168.333 58.843,168.333 58.267 C 168.333 57.111,168.074 56.833,166.992 56.833 C 166.721 56.833,166.500 56.762,166.500 56.675 C 166.500 56.467,161.538 56.470,161.410 56.678 M58.896 57.986 C 58.932 58.290,59.033 58.587,59.121 58.645 C 59.209 58.703,59.269 59.001,59.253 59.308 C 59.237 59.615,59.321 59.964,59.439 60.082 C 59.558 60.200,59.675 60.662,59.701 61.107 C 59.727 61.552,59.804 61.958,59.873 62.009 C 59.942 62.060,60.015 62.304,60.036 62.551 C 60.056 62.798,60.131 63.000,60.203 63.000 C 60.275 63.000,60.333 63.323,60.333 63.717 C 60.333 64.111,60.427 64.534,60.542 64.658 C 60.708 64.837,60.708 64.859,60.542 64.765 C 60.427 64.700,60.333 64.726,60.333 64.823 C 60.333 64.921,60.408 65.000,60.500 65.000 C 60.592 65.000,60.667 65.258,60.667 65.573 C 60.667 65.889,60.742 66.193,60.833 66.250 C 60.925 66.307,61.000 66.611,61.000 66.927 C 61.000 67.273,61.083 67.501,61.208 67.503 C 61.347 67.504,61.333 67.559,61.167 67.667 C 61.029 67.756,60.993 67.829,61.087 67.831 C 61.325 67.834,61.664 69.332,61.428 69.336 C 61.314 69.338,61.318 69.382,61.441 69.461 C 61.546 69.528,61.659 69.808,61.691 70.083 C 61.723 70.358,61.811 70.629,61.888 70.685 C 61.965 70.741,62.046 71.003,62.069 71.268 C 62.138 72.057,62.364 72.833,62.527 72.833 C 62.611 72.833,62.601 72.978,62.505 73.157 C 62.390 73.371,62.388 73.514,62.500 73.583 C 62.591 73.640,62.668 74.001,62.669 74.385 C 62.671 74.897,62.715 75.017,62.833 74.833 C 62.964 74.631,62.995 74.653,62.997 74.953 L 63.000 75.323 58.672 75.370 L 54.344 75.417 54.374 75.053 C 54.391 74.854,54.477 74.704,54.567 74.720 C 54.656 74.737,54.735 74.436,54.742 74.053 C 54.750 73.669,54.823 73.294,54.905 73.219 C 54.991 73.141,54.996 73.182,54.918 73.317 C 54.824 73.478,54.844 73.513,54.982 73.428 C 55.129 73.337,55.134 73.245,55.000 73.083 C 54.867 72.923,54.869 72.831,55.008 72.745 C 55.112 72.681,55.164 72.449,55.122 72.230 C 55.078 72.001,55.126 71.833,55.235 71.833 C 55.349 71.833,55.423 71.538,55.421 71.099 C 55.418 70.695,55.468 70.397,55.530 70.435 C 55.700 70.541,55.820 70.274,55.864 69.690 C 55.886 69.402,55.965 69.167,56.039 69.167 C 56.113 69.167,56.141 68.987,56.101 68.768 C 56.061 68.549,56.117 68.193,56.226 67.977 C 56.334 67.760,56.448 67.321,56.478 67.000 C 56.509 66.679,56.589 66.379,56.658 66.333 C 56.726 66.287,56.794 65.881,56.810 65.431 C 56.825 64.980,56.923 64.510,57.026 64.385 C 57.130 64.261,57.171 64.115,57.118 64.062 C 57.065 64.009,57.088 63.791,57.169 63.577 C 57.270 63.311,57.254 63.163,57.117 63.108 C 57.007 63.063,57.051 63.020,57.216 63.013 C 57.380 63.006,57.502 62.906,57.488 62.792 C 57.420 62.268,57.513 61.321,57.625 61.391 C 57.694 61.433,57.770 61.123,57.795 60.700 C 57.820 60.278,57.904 59.891,57.983 59.841 C 58.061 59.791,58.132 59.376,58.141 58.918 C 58.149 58.461,58.233 58.061,58.328 58.030 C 58.423 57.998,58.500 57.776,58.500 57.536 C 58.500 56.924,58.814 57.281,58.896 57.986 M187.700 82.500 C 187.751 84.966,187.567 85.667,186.868 85.667 C 186.787 85.667,186.635 85.854,186.530 86.083 C 186.422 86.322,186.201 86.500,186.013 86.500 C 185.833 86.500,185.569 86.667,185.426 86.870 C 185.283 87.074,185.167 87.193,185.167 87.136 C 185.167 87.078,184.810 87.117,184.375 87.223 C 183.561 87.422,181.936 87.405,182.063 87.199 C 182.102 87.135,181.905 87.067,181.626 87.046 C 180.699 86.979,179.828 85.774,180.005 84.804 C 180.076 84.416,180.108 83.962,180.076 83.795 C 180.044 83.628,180.085 83.533,180.168 83.584 C 180.251 83.636,180.437 83.450,180.581 83.172 C 180.724 82.894,180.797 82.667,180.742 82.667 C 180.688 82.667,180.755 82.554,180.893 82.417 C 181.030 82.279,181.214 82.167,181.301 82.167 C 181.388 82.167,181.552 82.055,181.665 81.919 C 181.778 81.782,181.938 81.711,182.019 81.762 C 182.100 81.812,182.167 81.761,182.167 81.649 C 182.167 81.536,182.210 81.488,182.264 81.542 C 182.317 81.595,182.722 81.458,183.163 81.236 C 183.604 81.015,184.123 80.833,184.316 80.833 C 184.509 80.833,184.667 80.758,184.667 80.667 C 184.667 80.575,184.958 80.500,185.314 80.500 C 185.670 80.500,186.143 80.406,186.363 80.292 C 186.584 80.177,186.964 80.083,187.208 80.083 L 187.650 80.083 187.700 82.500 M226.620 84.769 C 226.554 84.835,226.500 87.914,226.500 91.611 L 226.500 98.333 229.474 98.333 C 232.561 98.333,233.000 98.233,233.000 97.529 C 233.000 97.421,233.073 97.333,233.162 97.333 C 233.265 97.333,233.325 95.141,233.325 91.410 C 233.325 87.610,233.266 85.522,233.162 85.586 C 233.073 85.641,233.000 85.575,233.000 85.440 C 233.000 85.301,232.780 85.145,232.499 85.083 C 232.223 85.022,232.034 84.914,232.078 84.841 C 232.180 84.677,226.784 84.605,226.620 84.769 " stroke="none" fill="#445cb4" fill-rule="evenodd"></path><path id="path2" d="M239.278 70.611 C 239.217 70.672,239.167 71.760,239.167 73.028 L 239.167 75.333 238.417 75.333 C 238.004 75.333,237.667 75.258,237.667 75.167 C 237.667 75.075,237.292 75.000,236.833 75.000 C 236.375 75.000,236.000 74.925,236.000 74.833 C 236.000 74.742,235.625 74.667,235.167 74.667 C 234.708 74.667,234.333 74.592,234.333 74.500 C 234.333 74.408,233.958 74.333,233.500 74.333 C 233.042 74.333,232.667 74.258,232.667 74.167 C 232.667 74.075,232.329 74.000,231.917 74.000 C 231.504 74.000,231.167 73.925,231.167 73.833 C 231.167 73.578,230.007 73.636,229.738 73.905 C 229.354 74.288,229.424 75.333,229.833 75.333 C 230.017 75.333,230.167 75.408,230.167 75.500 C 230.167 75.592,230.338 75.667,230.547 75.667 C 230.755 75.667,231.035 75.817,231.167 76.000 C 231.299 76.183,231.540 76.333,231.703 76.333 C 231.867 76.333,232.000 76.408,232.000 76.500 C 232.000 76.592,232.150 76.667,232.333 76.667 C 232.517 76.667,232.667 76.742,232.667 76.833 C 232.667 76.925,232.817 77.000,233.000 77.000 C 233.183 77.000,233.333 77.075,233.333 77.167 C 233.333 77.258,233.483 77.333,233.667 77.333 C 233.852 77.333,234.000 77.444,234.000 77.583 C 234.000 77.721,234.098 77.833,234.217 77.833 C 234.523 77.833,235.330 78.225,235.332 78.375 C 235.333 78.444,235.483 78.500,235.667 78.500 C 235.850 78.500,236.000 78.575,236.000 78.667 C 236.000 78.758,236.112 78.833,236.250 78.833 C 236.387 78.833,236.500 78.908,236.500 79.000 C 236.500 79.092,236.650 79.167,236.833 79.167 C 237.017 79.167,237.167 79.242,237.167 79.333 C 237.167 79.425,237.317 79.500,237.500 79.500 C 237.683 79.500,237.833 79.575,237.833 79.667 C 237.833 79.758,237.983 79.833,238.167 79.833 C 238.350 79.833,238.500 79.908,238.500 80.000 C 238.500 80.092,238.650 80.167,238.833 80.167 C 239.017 80.167,239.167 80.242,239.167 80.333 C 239.167 80.425,239.317 80.500,239.500 80.500 C 239.683 80.500,239.833 80.575,239.833 80.667 C 239.833 80.758,239.949 80.833,240.090 80.833 C 240.232 80.833,240.508 80.983,240.705 81.167 C 240.902 81.350,241.199 81.500,241.365 81.500 C 241.531 81.500,241.667 81.575,241.667 81.667 C 241.667 81.758,241.817 81.833,242.000 81.833 C 242.183 81.833,242.333 81.908,242.333 82.000 C 242.333 82.092,242.483 82.167,242.667 82.167 C 242.850 82.167,243.000 82.242,243.000 82.333 C 243.000 82.425,243.375 82.500,243.833 82.500 L 244.667 82.500 244.667 80.500 L 244.667 78.500 245.323 78.500 C 245.685 78.500,246.027 78.575,246.083 78.667 C 246.140 78.758,246.515 78.833,246.917 78.833 C 247.318 78.833,247.693 78.908,247.750 79.000 C 247.807 79.092,248.224 79.167,248.677 79.167 C 249.129 79.167,249.500 79.242,249.500 79.333 C 249.500 79.425,249.796 79.500,250.157 79.500 C 250.518 79.500,250.860 79.575,250.917 79.667 C 250.973 79.758,251.353 79.833,251.760 79.833 C 252.167 79.833,252.500 79.908,252.500 80.000 C 252.500 80.256,253.659 80.198,253.929 79.929 C 254.288 79.569,254.245 78.500,253.870 78.500 C 253.707 78.500,253.465 78.350,253.333 78.167 C 253.201 77.983,252.960 77.833,252.797 77.833 C 252.633 77.833,252.500 77.758,252.500 77.667 C 252.500 77.575,252.378 77.500,252.228 77.500 C 252.078 77.500,251.834 77.363,251.686 77.196 C 251.538 77.030,251.154 76.748,250.833 76.571 C 250.512 76.395,250.213 76.202,250.167 76.144 C 250.017 75.955,248.828 75.333,248.615 75.333 C 248.501 75.333,248.299 75.183,248.167 75.000 C 248.035 74.817,247.793 74.667,247.630 74.667 C 247.467 74.667,247.333 74.592,247.333 74.500 C 247.333 74.408,247.183 74.333,247.000 74.333 C 246.817 74.333,246.667 74.258,246.667 74.167 C 246.667 74.075,246.533 74.000,246.370 74.000 C 246.207 74.000,245.965 73.850,245.833 73.667 C 245.701 73.483,245.460 73.333,245.297 73.333 C 245.133 73.333,245.000 73.258,245.000 73.167 C 245.000 73.075,244.867 73.000,244.703 73.000 C 244.540 73.000,244.299 72.850,244.167 72.667 C 244.035 72.483,243.793 72.333,243.630 72.333 C 243.467 72.333,243.333 72.258,243.333 72.167 C 243.333 72.075,243.162 72.000,242.953 72.000 C 242.745 72.000,242.465 71.850,242.333 71.667 C 242.201 71.483,241.960 71.333,241.797 71.333 C 241.633 71.333,241.500 71.221,241.500 71.083 C 241.500 70.944,241.352 70.833,241.167 70.833 C 240.983 70.833,240.833 70.758,240.833 70.667 C 240.833 70.483,239.455 70.434,239.278 70.611 " stroke="none" fill="#545454" fill-rule="evenodd"></path><path id="path3" d="M199.000 63.431 C 199.000 63.515,198.812 63.801,198.583 64.068 C 198.354 64.334,198.167 64.610,198.167 64.681 C 198.167 64.752,198.045 64.931,197.897 65.079 C 197.748 65.228,197.664 65.387,197.710 65.432 C 197.756 65.478,198.108 65.055,198.492 64.492 C 198.876 63.929,199.148 63.426,199.095 63.373 C 199.043 63.321,199.000 63.347,199.000 63.431 M285.605 64.753 C 285.524 64.966,287.073 68.167,287.257 68.167 C 287.351 68.167,286.628 66.674,286.117 65.813 C 285.854 65.370,285.705 64.928,285.765 64.772 C 285.822 64.622,285.831 64.500,285.786 64.500 C 285.740 64.500,285.659 64.614,285.605 64.753 M197.256 66.098 C 197.100 66.335,197.011 66.567,197.058 66.613 C 197.104 66.660,197.262 66.466,197.409 66.182 C 197.733 65.555,197.644 65.506,197.256 66.098 M195.417 70.167 C 195.354 70.364,195.340 70.563,195.386 70.608 C 195.432 70.654,195.521 70.530,195.583 70.333 C 195.646 70.136,195.660 69.937,195.614 69.892 C 195.568 69.846,195.479 69.970,195.417 70.167 M195.018 71.608 C 194.924 71.961,194.808 72.587,194.760 73.000 L 194.673 73.750 194.843 73.083 C 194.937 72.717,195.090 72.128,195.185 71.775 C 195.279 71.423,195.319 71.096,195.273 71.050 C 195.226 71.004,195.112 71.255,195.018 71.608 M288.345 71.615 C 288.339 71.816,288.408 72.027,288.500 72.083 C 288.697 72.205,288.697 72.042,288.500 71.583 C 288.362 71.262,288.356 71.263,288.345 71.615 M288.669 73.097 C 288.671 73.456,288.749 73.862,288.843 74.000 C 288.964 74.178,288.981 74.008,288.902 73.417 C 288.763 72.376,288.666 72.243,288.669 73.097 M194.411 75.435 C 194.345 76.316,194.364 77.722,194.453 78.560 C 194.611 80.037,194.616 79.987,194.641 76.958 C 194.669 73.503,194.593 73.001,194.411 75.435 M289.065 76.917 C 289.065 78.108,289.092 78.574,289.124 77.951 C 289.156 77.329,289.156 76.354,289.123 75.785 C 289.091 75.216,289.064 75.725,289.065 76.917 M288.781 79.897 C 288.718 80.060,288.675 80.469,288.685 80.805 L 288.703 81.417 288.851 80.667 C 289.009 79.863,288.968 79.409,288.781 79.897 M194.760 80.917 C 194.889 81.836,195.172 82.883,195.266 82.789 C 195.346 82.710,195.067 81.413,194.810 80.667 C 194.703 80.356,194.690 80.420,194.760 80.917 M288.444 81.778 C 288.383 81.839,288.338 82.045,288.344 82.236 C 288.354 82.555,288.367 82.551,288.514 82.184 C 288.677 81.776,288.644 81.579,288.444 81.778 M286.489 87.026 C 286.287 87.424,285.901 88.071,285.633 88.463 C 285.364 88.855,285.178 89.305,285.219 89.463 C 285.286 89.718,285.297 89.715,285.314 89.442 C 285.325 89.273,285.475 88.936,285.647 88.692 C 286.228 87.875,287.016 86.460,286.936 86.380 C 286.892 86.337,286.691 86.627,286.489 87.026 M197.004 87.292 C 197.006 87.360,197.160 87.604,197.347 87.833 L 197.687 88.250 197.422 87.708 C 197.171 87.194,196.996 87.019,197.004 87.292 M197.667 88.500 C 197.667 88.592,197.737 88.667,197.822 88.667 C 197.908 88.667,198.025 88.816,198.083 88.999 C 198.141 89.182,198.280 89.426,198.393 89.541 C 198.505 89.656,198.714 89.920,198.858 90.128 C 199.201 90.624,201.667 93.206,201.667 93.068 C 201.667 93.010,201.080 92.342,200.363 91.584 C 199.646 90.827,198.779 89.786,198.437 89.270 C 197.817 88.335,197.667 88.185,197.667 88.500 " stroke="none" fill="#5266c4" fill-rule="evenodd"></path><path id="path4" d="M199.180 63.318 C 199.173 63.446,198.993 63.784,198.780 64.068 C 198.239 64.789,198.126 65.000,198.282 65.000 C 198.505 64.999,199.369 63.519,199.278 63.293 C 199.216 63.140,199.189 63.146,199.180 63.318 M285.667 64.936 C 285.667 65.027,285.892 65.456,286.167 65.890 C 286.442 66.323,286.667 66.710,286.667 66.748 C 286.667 66.787,286.900 67.328,287.185 67.951 C 287.978 69.686,287.995 69.732,288.572 71.750 C 288.783 72.487,288.811 72.522,288.822 72.052 C 288.828 71.759,288.758 71.473,288.667 71.417 C 288.575 71.360,288.500 71.098,288.500 70.833 C 288.500 70.569,288.425 70.307,288.333 70.250 C 288.242 70.193,288.167 70.000,288.167 69.821 C 288.167 69.642,288.095 69.365,288.007 69.206 C 287.919 69.047,287.602 68.392,287.303 67.750 C 286.697 66.450,285.667 64.679,285.667 64.936 M197.883 65.371 C 197.580 65.763,197.479 66.000,197.617 66.000 C 197.782 66.000,198.219 65.330,198.119 65.230 C 198.080 65.191,197.973 65.254,197.883 65.371 M196.700 67.528 C 196.008 68.981,195.492 70.400,195.196 71.667 C 194.731 73.657,194.668 74.031,194.692 74.699 C 194.710 75.218,194.733 75.278,194.776 74.917 C 194.953 73.423,195.509 70.810,195.697 70.592 C 195.772 70.505,195.833 70.265,195.833 70.060 C 195.833 69.854,195.908 69.640,196.000 69.583 C 196.092 69.527,196.169 69.354,196.171 69.198 C 196.173 69.043,196.471 68.321,196.834 67.593 C 197.196 66.865,197.463 66.241,197.427 66.205 C 197.391 66.169,197.064 66.765,196.700 67.528 M288.944 73.667 C 288.999 74.262,289.072 74.781,289.105 74.819 C 289.237 74.969,289.135 73.231,288.993 72.917 C 288.897 72.702,288.879 72.968,288.944 73.667 M289.211 76.917 C 289.212 78.604,289.231 78.751,289.332 77.858 C 289.398 77.276,289.398 76.376,289.331 75.858 C 289.236 75.114,289.211 75.336,289.211 76.917 M194.692 79.267 C 194.678 79.734,194.732 80.334,194.813 80.600 C 194.893 80.866,195.050 81.496,195.161 82.000 C 195.548 83.751,197.206 87.849,197.435 87.621 C 197.475 87.581,197.279 87.113,196.999 86.582 C 196.050 84.777,195.070 81.398,194.776 78.917 C 194.742 78.634,194.706 78.786,194.692 79.267 M289.028 79.417 C 289.011 79.692,288.958 80.217,288.911 80.583 C 288.836 81.164,288.848 81.197,289.003 80.840 C 289.102 80.614,289.155 80.089,289.121 79.673 C 289.083 79.202,289.048 79.105,289.028 79.417 M288.526 82.167 C 288.226 83.398,287.960 84.216,287.799 84.408 C 287.726 84.495,287.667 84.668,287.667 84.792 C 287.667 85.111,286.431 87.547,285.817 88.441 C 285.533 88.853,285.340 89.229,285.387 89.276 C 285.435 89.324,285.604 89.149,285.763 88.889 C 285.922 88.629,286.213 88.154,286.411 87.833 C 286.608 87.513,287.012 86.725,287.308 86.083 C 287.604 85.442,287.919 84.786,288.007 84.627 C 288.095 84.468,288.167 84.191,288.167 84.012 C 288.167 83.833,288.242 83.640,288.333 83.583 C 288.425 83.527,288.500 83.292,288.500 83.063 C 288.500 82.833,288.580 82.496,288.677 82.314 C 288.775 82.132,288.831 81.818,288.802 81.616 C 288.769 81.387,288.666 81.593,288.526 82.167 M197.662 88.157 C 197.930 88.659,198.196 88.747,197.975 88.261 C 197.867 88.026,197.714 87.833,197.634 87.833 C 197.554 87.833,197.566 87.979,197.662 88.157 M198.167 88.897 C 198.167 88.931,198.491 89.378,198.888 89.888 C 199.735 90.980,202.000 93.393,202.000 93.204 C 202.000 93.133,201.468 92.514,200.817 91.829 C 200.167 91.144,199.339 90.190,198.979 89.708 C 198.393 88.927,198.167 88.701,198.167 88.897 " stroke="none" fill="#647cdc" fill-rule="evenodd"></path><path id="path5" d="" stroke="none" fill="#607c9c" fill-rule="evenodd"></path><path id="path6" d="" stroke="none" fill="#64589c" fill-rule="evenodd"></path><path id="path7" d="M114.338 47.411 C 114.226 47.545,114.174 47.752,114.221 47.869 C 114.276 48.007,114.312 47.982,114.320 47.800 C 114.327 47.644,114.465 47.440,114.625 47.347 C 114.785 47.253,114.832 47.175,114.729 47.172 C 114.625 47.169,114.450 47.277,114.338 47.411 M68.449 49.490 C 68.499 49.679,68.605 49.833,68.686 49.833 C 68.911 49.833,68.862 49.564,68.596 49.344 C 68.402 49.183,68.376 49.209,68.449 49.490 M274.333 56.333 C 274.333 56.425,274.446 56.500,274.583 56.500 C 274.721 56.500,274.833 56.425,274.833 56.333 C 274.833 56.242,274.721 56.167,274.583 56.167 C 274.446 56.167,274.333 56.242,274.333 56.333 M181.167 56.694 C 181.167 56.858,181.424 56.850,182.000 56.668 C 182.361 56.555,182.333 56.538,181.792 56.545 C 181.448 56.550,181.167 56.617,181.167 56.694 M46.804 57.292 C 46.558 57.890,46.489 58.248,46.655 58.063 C 46.824 57.877,47.176 56.833,47.071 56.833 C 47.027 56.833,46.907 57.040,46.804 57.292 M279.180 58.266 C 279.173 58.366,279.317 58.584,279.500 58.750 C 279.800 59.021,279.833 59.024,279.833 58.776 C 279.833 58.624,279.727 58.500,279.597 58.500 C 279.467 58.500,279.323 58.406,279.277 58.292 C 279.229 58.171,279.187 58.160,279.180 58.266 M172.769 58.970 C 172.722 59.045,172.905 59.074,173.175 59.034 C 173.446 58.995,173.667 58.933,173.667 58.898 C 173.667 58.771,172.851 58.836,172.769 58.970 M155.576 59.344 C 155.400 59.630,155.558 59.658,155.907 59.403 C 156.177 59.205,156.186 59.167,155.958 59.167 C 155.809 59.167,155.637 59.247,155.576 59.344 M72.016 61.125 C 72.139 61.285,72.256 61.444,72.277 61.477 C 72.298 61.510,72.304 61.379,72.289 61.186 C 72.274 60.992,72.157 60.833,72.027 60.833 C 71.830 60.833,71.828 60.880,72.016 61.125 M167.703 61.500 C 167.689 62.016,167.698 62.023,168.011 61.740 C 168.349 61.434,168.444 61.245,168.177 61.410 C 168.091 61.464,167.953 61.386,167.869 61.237 C 167.753 61.029,167.715 61.090,167.703 61.500 M151.890 63.237 C 151.905 63.512,152.026 63.754,152.167 63.792 C 152.334 63.836,152.353 63.813,152.225 63.721 C 152.120 63.645,151.995 63.396,151.949 63.167 C 151.876 62.808,151.867 62.818,151.890 63.237 M170.094 66.833 C 170.438 67.547,170.501 67.622,170.496 67.319 C 170.494 67.190,170.340 66.896,170.153 66.667 L 169.813 66.250 170.094 66.833 M182.208 67.786 C 182.460 67.824,182.873 67.824,183.125 67.786 C 183.377 67.748,183.171 67.717,182.667 67.717 C 182.162 67.717,181.956 67.748,182.208 67.786 M185.167 68.063 C 185.167 68.098,185.279 68.219,185.417 68.333 C 185.621 68.503,185.667 68.492,185.667 68.270 C 185.667 68.122,185.554 68.000,185.417 68.000 C 185.279 68.000,185.167 68.028,185.167 68.063 M232.238 68.913 C 232.061 69.047,231.992 69.157,232.083 69.159 C 232.331 69.163,232.754 68.865,232.650 68.761 C 232.600 68.711,232.414 68.779,232.238 68.913 M273.449 71.167 C 273.742 71.442,274.042 71.665,274.116 71.664 C 274.190 71.663,273.996 71.438,273.686 71.164 C 272.951 70.516,272.758 70.519,273.449 71.167 M172.250 71.000 C 172.307 71.092,172.457 71.167,172.583 71.167 C 172.710 71.167,172.860 71.092,172.917 71.000 C 172.975 70.905,172.832 70.833,172.583 70.833 C 172.335 70.833,172.191 70.905,172.250 71.000 M155.016 72.564 C 154.897 72.707,154.881 72.843,154.974 72.901 C 155.061 72.954,155.179 72.875,155.236 72.725 C 155.378 72.357,155.259 72.271,155.016 72.564 M54.979 72.750 C 54.968 72.796,54.948 72.890,54.935 72.958 C 54.922 73.027,54.855 73.172,54.786 73.280 C 54.718 73.388,54.737 73.524,54.831 73.582 C 54.924 73.639,55.006 73.663,55.014 73.635 C 55.111 73.269,55.158 72.667,55.089 72.667 C 55.040 72.667,54.991 72.704,54.979 72.750 M275.167 73.531 C 275.167 73.675,275.279 73.886,275.417 74.000 C 275.735 74.264,275.732 74.016,275.411 73.593 C 275.215 73.334,275.167 73.322,275.167 73.531 M275.996 76.276 C 276.090 76.323,276.167 76.611,276.167 76.917 C 276.167 77.222,276.090 77.510,275.996 77.557 C 275.902 77.604,275.921 77.622,276.037 77.599 C 276.165 77.573,276.250 77.301,276.250 76.917 C 276.250 76.532,276.165 76.261,276.037 76.235 C 275.921 76.211,275.902 76.230,275.996 76.276 M77.339 78.523 C 77.336 78.581,77.443 78.881,77.577 79.189 C 77.711 79.498,77.821 79.637,77.821 79.500 C 77.821 79.260,77.351 78.306,77.339 78.523 M274.949 80.843 C 274.876 81.124,274.902 81.150,275.096 80.989 C 275.362 80.769,275.411 80.500,275.186 80.500 C 275.105 80.500,274.999 80.654,274.949 80.843 M78.111 81.072 C 78.061 81.202,78.147 81.408,78.302 81.529 C 78.551 81.725,78.559 81.719,78.368 81.475 C 78.198 81.257,78.197 81.184,78.360 81.130 C 78.504 81.082,78.511 81.027,78.384 80.948 C 78.284 80.886,78.161 80.942,78.111 81.072 M39.616 81.125 C 39.443 81.434,39.333 82.187,39.474 82.099 C 39.559 82.047,39.661 81.778,39.702 81.502 C 39.775 81.002,39.749 80.888,39.616 81.125 M274.500 81.307 C 274.500 81.385,274.308 81.666,274.074 81.932 C 273.463 82.628,273.210 83.190,273.800 82.542 C 274.072 82.244,274.361 82.000,274.444 82.000 C 274.526 82.000,274.609 81.813,274.628 81.583 C 274.647 81.354,274.626 81.167,274.581 81.167 C 274.537 81.167,274.500 81.230,274.500 81.307 M181.667 81.917 C 181.553 82.054,181.388 82.167,181.301 82.167 C 181.214 82.167,181.030 82.279,180.893 82.417 C 180.689 82.620,180.686 82.667,180.874 82.667 C 181.000 82.667,181.320 82.442,181.583 82.167 C 181.847 81.892,182.020 81.667,181.968 81.667 C 181.916 81.667,181.781 81.779,181.667 81.917 M38.501 84.662 C 38.320 84.777,38.302 84.869,38.437 85.004 C 38.572 85.139,38.646 85.096,38.712 84.844 C 38.762 84.655,38.790 84.501,38.776 84.503 C 38.762 84.504,38.638 84.576,38.501 84.662 M232.083 84.917 C 232.358 85.046,232.696 85.153,232.833 85.154 C 233.230 85.158,232.570 84.820,232.034 84.746 L 231.583 84.683 232.083 84.917 M179.946 85.234 C 179.897 85.362,179.968 85.606,180.104 85.775 C 180.341 86.070,180.345 86.069,180.198 85.750 C 180.114 85.567,180.079 85.323,180.120 85.208 C 180.223 84.920,180.057 84.945,179.946 85.234 M166.372 85.833 C 166.372 86.154,166.406 86.285,166.448 86.125 C 166.490 85.965,166.490 85.702,166.448 85.542 C 166.406 85.381,166.372 85.513,166.372 85.833 M101.056 86.912 C 101.056 87.052,101.162 87.167,101.292 87.167 C 101.422 87.167,101.498 87.078,101.462 86.969 C 101.361 86.667,101.056 86.624,101.056 86.912 M132.800 86.867 C 132.956 87.022,133.044 87.022,133.200 86.867 C 133.356 86.711,133.311 86.667,133.000 86.667 C 132.689 86.667,132.644 86.711,132.800 86.867 M180.917 86.833 C 180.973 86.925,181.132 87.000,181.270 87.000 C 181.407 87.000,181.473 86.925,181.417 86.833 C 181.360 86.742,181.201 86.667,181.064 86.667 C 180.926 86.667,180.860 86.742,180.917 86.833 M66.167 89.397 C 66.167 89.534,66.242 89.693,66.333 89.750 C 66.425 89.807,66.500 89.741,66.500 89.603 C 66.500 89.466,66.425 89.307,66.333 89.250 C 66.242 89.193,66.167 89.259,66.167 89.397 M166.745 89.583 C 166.817 89.767,166.912 90.083,166.957 90.287 C 167.001 90.490,167.143 90.745,167.273 90.852 C 167.433 90.985,167.396 90.786,167.161 90.236 C 166.823 89.449,166.479 88.909,166.745 89.583 M135.270 91.625 C 135.427 92.279,135.500 92.301,135.500 91.694 C 135.500 91.404,135.424 91.167,135.330 91.167 C 135.229 91.167,135.205 91.353,135.270 91.625 M167.353 91.441 C 167.342 91.637,167.446 91.841,167.583 91.894 C 167.721 91.946,167.833 91.917,167.833 91.828 C 167.833 91.739,167.764 91.667,167.679 91.667 C 167.594 91.667,167.490 91.535,167.448 91.375 C 167.388 91.145,167.368 91.159,167.353 91.441 M283.697 91.585 C 283.420 91.903,283.394 92.000,283.584 92.000 C 283.721 92.000,283.833 91.894,283.833 91.764 C 283.833 91.634,283.927 91.494,284.042 91.453 C 284.156 91.412,284.207 91.332,284.154 91.274 C 284.101 91.216,283.895 91.356,283.697 91.585 M86.667 92.720 C 86.667 92.855,86.779 93.008,86.917 93.060 C 87.054 93.113,87.167 93.116,87.167 93.066 C 87.167 93.017,87.054 92.864,86.917 92.726 C 86.700 92.509,86.667 92.509,86.667 92.720 M114.680 93.042 C 114.794 93.294,114.950 93.500,115.027 93.500 C 115.250 93.500,115.192 93.346,114.820 92.951 L 114.474 92.583 114.680 93.042 M49.989 93.945 C 49.896 94.190,49.842 94.503,49.868 94.640 C 49.895 94.777,50.000 94.577,50.102 94.195 C 50.310 93.413,50.246 93.270,49.989 93.945 M187.492 95.209 C 187.259 95.415,187.153 95.528,187.257 95.460 C 187.362 95.392,187.481 95.370,187.522 95.411 C 187.563 95.451,187.687 95.338,187.799 95.159 C 188.059 94.743,188.013 94.750,187.492 95.209 M49.743 95.155 C 49.796 95.240,49.763 95.357,49.669 95.415 C 49.576 95.473,49.500 95.605,49.500 95.708 C 49.500 95.812,49.610 95.751,49.745 95.574 C 50.037 95.187,50.063 95.000,49.823 95.000 C 49.726 95.000,49.690 95.070,49.743 95.155 M170.003 95.105 C 170.008 95.391,170.291 95.704,170.394 95.537 C 170.450 95.446,170.385 95.278,170.248 95.165 C 170.112 95.052,170.001 95.025,170.003 95.105 M89.620 95.904 C 89.945 96.339,90.064 96.359,89.908 95.953 C 89.853 95.810,89.698 95.651,89.565 95.599 C 89.382 95.529,89.396 95.604,89.620 95.904 M170.667 95.955 C 170.804 96.007,170.962 96.120,171.018 96.206 C 171.074 96.291,171.166 96.242,171.222 96.097 C 171.299 95.895,171.217 95.836,170.870 95.846 C 170.603 95.854,170.520 95.899,170.667 95.955 M90.440 96.417 C 90.492 96.554,90.649 96.667,90.788 96.667 C 90.994 96.667,91.002 96.620,90.833 96.417 C 90.719 96.279,90.562 96.167,90.485 96.167 C 90.407 96.167,90.387 96.279,90.440 96.417 M183.667 97.260 C 183.346 97.382,183.121 97.491,183.167 97.503 C 183.600 97.618,183.833 97.612,183.833 97.485 C 183.833 97.402,183.941 97.333,184.073 97.333 C 184.206 97.333,184.360 97.258,184.417 97.167 C 184.543 96.962,184.413 96.978,183.667 97.260 M275.167 97.167 C 274.963 97.298,274.985 97.329,275.282 97.331 C 275.483 97.332,275.693 97.258,275.750 97.167 C 275.881 96.954,275.495 96.954,275.167 97.167 M173.167 97.391 C 173.396 97.512,173.619 97.582,173.662 97.546 C 173.779 97.450,173.287 97.172,173.000 97.172 C 172.862 97.172,172.937 97.270,173.167 97.391 M92.667 97.500 C 92.804 97.589,93.029 97.662,93.167 97.662 C 93.389 97.662,93.389 97.644,93.167 97.500 C 93.029 97.411,92.804 97.338,92.667 97.338 C 92.444 97.338,92.444 97.356,92.667 97.500 M95.333 98.140 C 95.333 98.216,95.615 98.283,95.958 98.288 C 96.499 98.295,96.527 98.279,96.167 98.165 C 95.591 97.983,95.333 97.975,95.333 98.140 " stroke="none" fill="#4458b8" fill-rule="evenodd"></path><path id="path8" d="M114.338 47.411 C 114.226 47.545,114.174 47.752,114.221 47.869 C 114.276 48.007,114.312 47.982,114.320 47.800 C 114.327 47.644,114.465 47.440,114.625 47.347 C 114.785 47.253,114.832 47.175,114.729 47.172 C 114.625 47.169,114.450 47.277,114.338 47.411 M68.449 49.490 C 68.499 49.679,68.605 49.833,68.686 49.833 C 68.911 49.833,68.862 49.564,68.596 49.344 C 68.402 49.183,68.376 49.209,68.449 49.490 M274.333 56.333 C 274.333 56.425,274.446 56.500,274.583 56.500 C 274.721 56.500,274.833 56.425,274.833 56.333 C 274.833 56.242,274.721 56.167,274.583 56.167 C 274.446 56.167,274.333 56.242,274.333 56.333 M181.167 56.694 C 181.167 56.858,181.424 56.850,182.000 56.668 C 182.361 56.555,182.333 56.538,181.792 56.545 C 181.448 56.550,181.167 56.617,181.167 56.694 M46.804 57.292 C 46.558 57.890,46.489 58.248,46.655 58.063 C 46.824 57.877,47.176 56.833,47.071 56.833 C 47.027 56.833,46.907 57.040,46.804 57.292 M279.180 58.266 C 279.173 58.366,279.317 58.584,279.500 58.750 C 279.800 59.021,279.833 59.024,279.833 58.776 C 279.833 58.624,279.727 58.500,279.597 58.500 C 279.467 58.500,279.323 58.406,279.277 58.292 C 279.229 58.171,279.187 58.160,279.180 58.266 M172.769 58.970 C 172.722 59.045,172.905 59.074,173.175 59.034 C 173.446 58.995,173.667 58.933,173.667 58.898 C 173.667 58.771,172.851 58.836,172.769 58.970 M155.576 59.344 C 155.400 59.630,155.558 59.658,155.907 59.403 C 156.177 59.205,156.186 59.167,155.958 59.167 C 155.809 59.167,155.637 59.247,155.576 59.344 M72.016 61.125 C 72.139 61.285,72.256 61.444,72.277 61.477 C 72.298 61.510,72.304 61.379,72.289 61.186 C 72.274 60.992,72.157 60.833,72.027 60.833 C 71.830 60.833,71.828 60.880,72.016 61.125 M167.703 61.500 C 167.689 62.016,167.698 62.023,168.011 61.740 C 168.349 61.434,168.444 61.245,168.177 61.410 C 168.091 61.464,167.953 61.386,167.869 61.237 C 167.753 61.029,167.715 61.090,167.703 61.500 M151.890 63.237 C 151.905 63.512,152.026 63.754,152.167 63.792 C 152.334 63.836,152.353 63.813,152.225 63.721 C 152.120 63.645,151.995 63.396,151.949 63.167 C 151.876 62.808,151.867 62.818,151.890 63.237 M170.094 66.833 C 170.438 67.547,170.501 67.622,170.496 67.319 C 170.494 67.190,170.340 66.896,170.153 66.667 L 169.813 66.250 170.094 66.833 M182.208 67.786 C 182.460 67.824,182.873 67.824,183.125 67.786 C 183.377 67.748,183.171 67.717,182.667 67.717 C 182.162 67.717,181.956 67.748,182.208 67.786 M185.167 68.063 C 185.167 68.098,185.279 68.219,185.417 68.333 C 185.621 68.503,185.667 68.492,185.667 68.270 C 185.667 68.122,185.554 68.000,185.417 68.000 C 185.279 68.000,185.167 68.028,185.167 68.063 M232.238 68.913 C 232.061 69.047,231.992 69.157,232.083 69.159 C 232.331 69.163,232.754 68.865,232.650 68.761 C 232.600 68.711,232.414 68.779,232.238 68.913 M273.449 71.167 C 273.742 71.442,274.042 71.665,274.116 71.664 C 274.190 71.663,273.996 71.438,273.686 71.164 C 272.951 70.516,272.758 70.519,273.449 71.167 M172.250 71.000 C 172.307 71.092,172.457 71.167,172.583 71.167 C 172.710 71.167,172.860 71.092,172.917 71.000 C 172.975 70.905,172.832 70.833,172.583 70.833 C 172.335 70.833,172.191 70.905,172.250 71.000 M155.016 72.564 C 154.897 72.707,154.881 72.843,154.974 72.901 C 155.061 72.954,155.179 72.875,155.236 72.725 C 155.378 72.357,155.259 72.271,155.016 72.564 M54.979 72.750 C 54.968 72.796,54.948 72.890,54.935 72.958 C 54.922 73.027,54.855 73.172,54.786 73.280 C 54.718 73.388,54.737 73.524,54.831 73.582 C 54.924 73.639,55.006 73.663,55.014 73.635 C 55.111 73.269,55.158 72.667,55.089 72.667 C 55.040 72.667,54.991 72.704,54.979 72.750 M275.167 73.531 C 275.167 73.675,275.279 73.886,275.417 74.000 C 275.735 74.264,275.732 74.016,275.411 73.593 C 275.215 73.334,275.167 73.322,275.167 73.531 M275.996 76.276 C 276.090 76.323,276.167 76.611,276.167 76.917 C 276.167 77.222,276.090 77.510,275.996 77.557 C 275.902 77.604,275.921 77.622,276.037 77.599 C 276.165 77.573,276.250 77.301,276.250 76.917 C 276.250 76.532,276.165 76.261,276.037 76.235 C 275.921 76.211,275.902 76.230,275.996 76.276 M77.339 78.523 C 77.336 78.581,77.443 78.881,77.577 79.189 C 77.711 79.498,77.821 79.637,77.821 79.500 C 77.821 79.260,77.351 78.306,77.339 78.523 M274.949 80.843 C 274.876 81.124,274.902 81.150,275.096 80.989 C 275.362 80.769,275.411 80.500,275.186 80.500 C 275.105 80.500,274.999 80.654,274.949 80.843 M78.111 81.072 C 78.061 81.202,78.147 81.408,78.302 81.529 C 78.551 81.725,78.559 81.719,78.368 81.475 C 78.198 81.257,78.197 81.184,78.360 81.130 C 78.504 81.082,78.511 81.027,78.384 80.948 C 78.284 80.886,78.161 80.942,78.111 81.072 M39.616 81.125 C 39.443 81.434,39.333 82.187,39.474 82.099 C 39.559 82.047,39.661 81.778,39.702 81.502 C 39.775 81.002,39.749 80.888,39.616 81.125 M274.500 81.307 C 274.500 81.385,274.308 81.666,274.074 81.932 C 273.463 82.628,273.210 83.190,273.800 82.542 C 274.072 82.244,274.361 82.000,274.444 82.000 C 274.526 82.000,274.609 81.813,274.628 81.583 C 274.647 81.354,274.626 81.167,274.581 81.167 C 274.537 81.167,274.500 81.230,274.500 81.307 M181.667 81.917 C 181.553 82.054,181.388 82.167,181.301 82.167 C 181.214 82.167,181.030 82.279,180.893 82.417 C 180.689 82.620,180.686 82.667,180.874 82.667 C 181.000 82.667,181.320 82.442,181.583 82.167 C 181.847 81.892,182.020 81.667,181.968 81.667 C 181.916 81.667,181.781 81.779,181.667 81.917 M38.501 84.662 C 38.320 84.777,38.302 84.869,38.437 85.004 C 38.572 85.139,38.646 85.096,38.712 84.844 C 38.762 84.655,38.790 84.501,38.776 84.503 C 38.762 84.504,38.638 84.576,38.501 84.662 M232.083 84.917 C 232.358 85.046,232.696 85.153,232.833 85.154 C 233.230 85.158,232.570 84.820,232.034 84.746 L 231.583 84.683 232.083 84.917 M179.946 85.234 C 179.897 85.362,179.968 85.606,180.104 85.775 C 180.341 86.070,180.345 86.069,180.198 85.750 C 180.114 85.567,180.079 85.323,180.120 85.208 C 180.223 84.920,180.057 84.945,179.946 85.234 M166.372 85.833 C 166.372 86.154,166.406 86.285,166.448 86.125 C 166.490 85.965,166.490 85.702,166.448 85.542 C 166.406 85.381,166.372 85.513,166.372 85.833 M101.056 86.912 C 101.056 87.052,101.162 87.167,101.292 87.167 C 101.422 87.167,101.498 87.078,101.462 86.969 C 101.361 86.667,101.056 86.624,101.056 86.912 M132.800 86.867 C 132.956 87.022,133.044 87.022,133.200 86.867 C 133.356 86.711,133.311 86.667,133.000 86.667 C 132.689 86.667,132.644 86.711,132.800 86.867 M180.917 86.833 C 180.973 86.925,181.132 87.000,181.270 87.000 C 181.407 87.000,181.473 86.925,181.417 86.833 C 181.360 86.742,181.201 86.667,181.064 86.667 C 180.926 86.667,180.860 86.742,180.917 86.833 M66.167 89.397 C 66.167 89.534,66.242 89.693,66.333 89.750 C 66.425 89.807,66.500 89.741,66.500 89.603 C 66.500 89.466,66.425 89.307,66.333 89.250 C 66.242 89.193,66.167 89.259,66.167 89.397 M166.745 89.583 C 166.817 89.767,166.912 90.083,166.957 90.287 C 167.001 90.490,167.143 90.745,167.273 90.852 C 167.433 90.985,167.396 90.786,167.161 90.236 C 166.823 89.449,166.479 88.909,166.745 89.583 M135.270 91.625 C 135.427 92.279,135.500 92.301,135.500 91.694 C 135.500 91.404,135.424 91.167,135.330 91.167 C 135.229 91.167,135.205 91.353,135.270 91.625 M167.353 91.441 C 167.342 91.637,167.446 91.841,167.583 91.894 C 167.721 91.946,167.833 91.917,167.833 91.828 C 167.833 91.739,167.764 91.667,167.679 91.667 C 167.594 91.667,167.490 91.535,167.448 91.375 C 167.388 91.145,167.368 91.159,167.353 91.441 M283.697 91.585 C 283.420 91.903,283.394 92.000,283.584 92.000 C 283.721 92.000,283.833 91.894,283.833 91.764 C 283.833 91.634,283.927 91.494,284.042 91.453 C 284.156 91.412,284.207 91.332,284.154 91.274 C 284.101 91.216,283.895 91.356,283.697 91.585 M86.667 92.720 C 86.667 92.855,86.779 93.008,86.917 93.060 C 87.054 93.113,87.167 93.116,87.167 93.066 C 87.167 93.017,87.054 92.864,86.917 92.726 C 86.700 92.509,86.667 92.509,86.667 92.720 M114.680 93.042 C 114.794 93.294,114.950 93.500,115.027 93.500 C 115.250 93.500,115.192 93.346,114.820 92.951 L 114.474 92.583 114.680 93.042 M49.989 93.945 C 49.896 94.190,49.842 94.503,49.868 94.640 C 49.895 94.777,50.000 94.577,50.102 94.195 C 50.310 93.413,50.246 93.270,49.989 93.945 M187.492 95.209 C 187.259 95.415,187.153 95.528,187.257 95.460 C 187.362 95.392,187.481 95.370,187.522 95.411 C 187.563 95.451,187.687 95.338,187.799 95.159 C 188.059 94.743,188.013 94.750,187.492 95.209 M49.743 95.155 C 49.796 95.240,49.763 95.357,49.669 95.415 C 49.576 95.473,49.500 95.605,49.500 95.708 C 49.500 95.812,49.610 95.751,49.745 95.574 C 50.037 95.187,50.063 95.000,49.823 95.000 C 49.726 95.000,49.690 95.070,49.743 95.155 M170.003 95.105 C 170.008 95.391,170.291 95.704,170.394 95.537 C 170.450 95.446,170.385 95.278,170.248 95.165 C 170.112 95.052,170.001 95.025,170.003 95.105 M89.620 95.904 C 89.945 96.339,90.064 96.359,89.908 95.953 C 89.853 95.810,89.698 95.651,89.565 95.599 C 89.382 95.529,89.396 95.604,89.620 95.904 M170.667 95.955 C 170.804 96.007,170.962 96.120,171.018 96.206 C 171.074 96.291,171.166 96.242,171.222 96.097 C 171.299 95.895,171.217 95.836,170.870 95.846 C 170.603 95.854,170.520 95.899,170.667 95.955 M90.440 96.417 C 90.492 96.554,90.649 96.667,90.788 96.667 C 90.994 96.667,91.002 96.620,90.833 96.417 C 90.719 96.279,90.562 96.167,90.485 96.167 C 90.407 96.167,90.387 96.279,90.440 96.417 M183.667 97.260 C 183.346 97.382,183.121 97.491,183.167 97.503 C 183.600 97.618,183.833 97.612,183.833 97.485 C 183.833 97.402,183.941 97.333,184.073 97.333 C 184.206 97.333,184.360 97.258,184.417 97.167 C 184.543 96.962,184.413 96.978,183.667 97.260 M275.167 97.167 C 274.963 97.298,274.985 97.329,275.282 97.331 C 275.483 97.332,275.693 97.258,275.750 97.167 C 275.881 96.954,275.495 96.954,275.167 97.167 M173.167 97.391 C 173.396 97.512,173.619 97.582,173.662 97.546 C 173.779 97.450,173.287 97.172,173.000 97.172 C 172.862 97.172,172.937 97.270,173.167 97.391 M92.667 97.500 C 92.804 97.589,93.029 97.662,93.167 97.662 C 93.389 97.662,93.389 97.644,93.167 97.500 C 93.029 97.411,92.804 97.338,92.667 97.338 C 92.444 97.338,92.444 97.356,92.667 97.500 M95.333 98.140 C 95.333 98.216,95.615 98.283,95.958 98.288 C 96.499 98.295,96.527 98.279,96.167 98.165 C 95.591 97.983,95.333 97.975,95.333 98.140 " stroke="none" fill="#4458b8" fill-rule="evenodd"></path></g></svg>