<svg xmlns="http://www.w3.org/2000/svg" viewBox="0 0 500 500"><g id="freepik--Shadow--inject-218"><ellipse cx="204.14" cy="398.5" rx="85.5" ry="16.5" style="fill:#7B93FB"></ellipse><ellipse cx="204.14" cy="398.5" rx="85.5" ry="16.5" style="fill:#fff;opacity:0.5"></ellipse></g><g id="freepik--Character--inject-218"><path d="M137.05,271.18v17.33s2.77,26.43,7.25,51.83l-24.58,51.5,5.66.34s37.9-46.84,39.23-51.84-.89-42.83-.89-42.83l38.66,23.33,16.67,58.67,5.67-2.33s-5.78-62.83-7-64.34c-18.55-22.87-44.67-38-44.67-38l-5.33-9.66Z" style="fill:#263238;stroke:#263238;stroke-linecap:round;stroke-linejoin:round"></path><line x1="164.38" y1="298.37" x2="166.81" y2="285.57" style="fill:none;stroke:#fff;stroke-linecap:round;stroke-linejoin:round;stroke-width:0.5px"></line><line x1="165.04" y1="295.72" x2="170.78" y2="282.92" style="fill:none;stroke:#fff;stroke-linecap:round;stroke-linejoin:round;stroke-width:0.5px"></line><path d="M183.61,215.91s-1.35,7.38.6,9.07,8.88,2.77,9.67-.59-5.73-36.7-6.52-40.06-3.15-1.38-3.94-.39S183.61,215.91,183.61,215.91Z" style="fill:#fff;stroke:#263238;stroke-linecap:round;stroke-linejoin:round"></path><path d="M149.18,203.68s-21.68,8.74-28.38,11.72-3.14,9.67-2.14,12,17.08,44,17.48,44.75,3,2.56,6.72,2.55,25.44-5.39,26.22-8-.61-6.71-.61-6.71l-11.34-34.7s27.64,1.5,29,1.3,4.92-4.55.76-8.68-30.22-11.17-31.6-12.35S151.55,202.88,149.18,203.68Z" style="fill:#fff;stroke:#263238;stroke-linecap:round;stroke-linejoin:round"></path><path d="M137.16,217.38l5.72,5.15,6.87,38.35,7.44,5.15,1.43-11.16-14-33.2v-6c0-1.43.57-4.87-3.15-6.58S132.58,209.94,137.16,217.38Z" style="fill:#263238"></path><path d="M183,211.56s-3.55,0-4.73,7.31.59,8.68,2.56,9.07,6.51,2,8.88-.39,2.57-7.7,1.19-11.84A6.27,6.27,0,0,0,183,211.56Z" style="fill:#fff;stroke:#263238;stroke-linecap:round;stroke-linejoin:round"></path><polygon points="141.38 203.87 150.26 214.92 144.15 211.56 141.97 217.29 141.38 203.87" style="fill:#fff;stroke:#263238;stroke-linecap:round;stroke-linejoin:round"></polygon><polygon points="142.96 197.95 141.78 218.08 133.29 209 131.32 196.57 142.96 197.95" style="fill:#fff;stroke:#263238;stroke-linecap:round;stroke-linejoin:round"></polygon><polygon points="130.13 203.67 140.31 213.08 137.73 221.38 128.36 210.58 130.13 203.67" style="fill:#fff;stroke:#263238;stroke-linecap:round;stroke-linejoin:round"></polygon><path d="M221.49,265.87a68.35,68.35,0,0,1-38.34-11.6,61.12,61.12,0,0,1-26.75-41.41C151,178.45,176.24,145.81,212.74,140l33.75-6.47L250,158.62l-32.78,5.89-.36.07c-23,3.59-39,23.51-35.72,44.42s24.56,34.91,47.46,31.43L263,233.88l4.68,24.46L233,264.93l-.4.07A72.24,72.24,0,0,1,221.49,265.87Z" style="fill:#263238;stroke:#263238;stroke-linecap:round;stroke-linejoin:round"></path><path d="M220.72,263.18a68.35,68.35,0,0,1-38.34-11.6,61.12,61.12,0,0,1-26.75-41.41c-5.42-34.41,19.84-67.06,56.34-72.86l33.75-6.47,3.46,25.09-32.78,5.89a2.25,2.25,0,0,1-.36.06c-23,3.59-39,23.52-35.71,44.43s24.55,34.91,47.46,31.43l34.48-6.55L267,255.65l-34.7,6.59-.4.07A72.24,72.24,0,0,1,220.72,263.18Z" style="fill:#7B93FB;stroke:#263238;stroke-linecap:round;stroke-linejoin:round"></path><path d="M215.44,260a65,65,0,0,1-31.38-10.88,60.55,60.55,0,0,1-16.13-15.89" style="fill:#7B93FB;stroke:#263238;stroke-linecap:round;stroke-linejoin:round"></path><path d="M223.84,260.1c-1,0-2.08.08-3.12.08" style="fill:#7B93FB;stroke:#263238;stroke-linecap:round;stroke-linejoin:round"></path><path d="M200.2,164.05a45.59,45.59,0,0,0-15.46,13.31,39.33,39.33,0,0,0-7.38,29.41c2,12.5,9.84,22.85,20.85,28.85" style="fill:none;stroke:#263238;stroke-linecap:round;stroke-linejoin:round"></path><path d="M166.09,171.3a65.55,65.55,0,0,1,46.35-31l30.74-5.89,2.63,19.1-30.24,5.43a50.53,50.53,0,0,0-7.94,1.93" style="fill:none;stroke:#263238;stroke-linecap:round;stroke-linejoin:round"></path><path d="M162.22,179.09q.9-2.19,2-4.3" style="fill:none;stroke:#263238;stroke-linecap:round;stroke-linejoin:round"></path><polygon points="223.22 160.6 249.18 155.93 245.72 130.84 219.35 135.9 223.22 160.6" style="fill:#fff;stroke:#263238;stroke-linecap:round;stroke-linejoin:round"></polygon><polygon points="266.95 255.65 262.27 231.19 235.07 236.35 238.92 260.97 266.95 255.65" style="fill:#fff;stroke:#263238;stroke-linecap:round;stroke-linejoin:round"></polygon><path d="M143.87,254.34s36.45,2.1,38.25,1.8,7.44-6.33,8.86-7,4.28,1.41,6,2.09,3.17-.23,3.3,1.16-.89,1.93-2.86,1.83-3.15-.37-4.13-.42,2.06,2.09,4.7,4.6,4.76,3.41,4.11,4.56-2.22.87-3.17,0-3.7-1-5.87-1.1-5.83-1.88-5.83-1.88a143.7,143.7,0,0,1-15.36,2.75c-11.15,1.59-26.88,3.93-31.21,3.5s-7.18-6.3-7.18-6.3Z" style="fill:#fff;stroke:#263238;stroke-linecap:round;stroke-linejoin:round"></path><path d="M120.8,215.4s-5.86,2.28-7.44,5.64.2,8.88,2.56,13.22,16.78,27,16.78,27l8.68-7.89s-7.89-24.86-8.88-27" style="fill:#fff;stroke:#263238;stroke-linecap:round;stroke-linejoin:round"></path><path d="M123,223.6a8.48,8.48,0,0,1,6.31,2.17" style="fill:none;stroke:#263238;stroke-linecap:round;stroke-linejoin:round"></path><path d="M131.51,221.83s3,.59,4,7.1" style="fill:none;stroke:#263238;stroke-linecap:round;stroke-linejoin:round"></path><path d="M139.41,246.89s-6.12,2.76-9.47,6.51-3,4.93-.79,7.3,3.55,3.55,4.93,2.57,10.66-7.11,11.25-8.69-1.38-7.49-2.76-8.09A4.2,4.2,0,0,0,139.41,246.89Z" style="fill:#fff;stroke:#263238;stroke-linecap:round;stroke-linejoin:round"></path><path d="M187.36,184.33s6.12-5.72,6.91-8.49-1-7.1-1.58-7.3-1.18,1-1.18,2.57c0,0-1.78-2.17-2-.59a25.66,25.66,0,0,0-.19,2.76s-1.78-2-2.17-.59a2.42,2.42,0,0,0,.79,2.37s-2.57-2-2.57-.6a4.25,4.25,0,0,0,1.18,2.57s-3.35,4.54-3.15,6.91a2.29,2.29,0,0,0,2.17,2.36" style="fill:#fff;stroke:#263238;stroke-linecap:round;stroke-linejoin:round"></path><path d="M188,175.06s1.38,1.38,1.18,2.56" style="fill:none;stroke:#263238;stroke-linecap:round;stroke-linejoin:round"></path><path d="M189.34,173.28s1.58,2.17,1.58,3.55" style="fill:none;stroke:#263238;stroke-linecap:round;stroke-linejoin:round"></path><path d="M191.51,171.11a8.57,8.57,0,0,1,1.58,4.14" style="fill:none;stroke:#263238;stroke-linecap:round;stroke-linejoin:round"></path><path d="M125.38,392.18s8,7.66,10.34,10,5.33,3.66,3,3.66-7.34.67-12-.66-8.34-5.34-10-7.34,3-6,3-6Z" style="fill:#fff;stroke:#263238;stroke-linecap:round;stroke-linejoin:round"></path><path d="M137.82,404a30.9,30.9,0,0,1-12.62-1c-3.12-1-6.84-6-8.25-8-.59,1-.86,2-.23,2.79,1.66,2,5.33,6,10,7.34s9.66.66,12,.66C140.36,405.84,139.36,405.18,137.82,404Z" style="fill:#fff;stroke:#263238;stroke-linecap:round;stroke-linejoin:round"></path><path d="M224.72,377.18s18,7.66,19.33,8,1.6,2.46-4.61,2.46c-2.67,0-12.73.66-15.06.66s-5,.21-5.66-1.12.33-7.67.33-7.67Z" style="fill:#fff;stroke:#263238;stroke-linecap:round;stroke-linejoin:round"></path><path d="M244.05,385.18l-.05,0c-7.74,1.14-21.66.95-25.49.87a3.1,3.1,0,0,0,.21,1.15c.66,1.33,3.32,1.12,5.66,1.12s12.39-.66,15.06-.66C245.65,387.64,245.38,385.51,244.05,385.18Z" style="fill:#fff;stroke:#263238;stroke-linecap:round;stroke-linejoin:round"></path><polygon points="140.31 213.08 141.78 218.08 138.88 217.09 140.31 213.08" style="fill:#fff;stroke:#263238;stroke-linecap:round;stroke-linejoin:round"></polygon><path d="M142.57,170.32s-1.19-3.55-6.12-3.95-13.82,6.71-14.61,11.65,6.52,18.15,8.69,20.12,20.52,1.39,21.11-1.18S146.51,177.82,142.57,170.32Z" style="fill:#fff;stroke:#263238;stroke-linecap:round;stroke-linejoin:round"></path><path d="M142.17,182.36s2,2.56,3.16,2.76,3-.2,2,1-4.34,2-4.34,2" style="fill:none;stroke:#263238;stroke-linecap:round;stroke-linejoin:round"></path><path d="M143,191.43s-4.34,1-6.31-2.17" style="fill:none;stroke:#263238;stroke-linecap:round;stroke-linejoin:round"></path><line x1="137.44" y1="188.47" x2="135.66" y2="190.05" style="fill:none;stroke:#263238;stroke-linecap:round;stroke-linejoin:round"></line><path d="M136.65,184.33a6.11,6.11,0,0,1,2.56-1.18" style="fill:none;stroke:#263238;stroke-linecap:round;stroke-linejoin:round"></path><path d="M133.69,181.17s1.18-1.77,4.93-1" style="fill:none;stroke:#263238;stroke-linecap:round;stroke-linejoin:round"></path><path d="M140,178s-.2-3,2.57-2.77" style="fill:none;stroke:#263238;stroke-linecap:round;stroke-linejoin:round"></path><path d="M144.88,180.73c.32.7.33,1.37,0,1.51s-.79-.33-1.11-1-.32-1.37,0-1.5S144.57,180,144.88,180.73Z" style="fill:#263238"></path><path d="M126.78,189.66s3-.79,3-2.37-1.19-2-.79-3.16,3.16-2.76,2.37-4.54-4.74-1.77-4.34-3.15,13.61-4.74,14.6-8.88-3.36-9.28-6.71-9.08-1.58,4.34-1.58,4.34-9.87-3-11.84.79,1.78,5.53,1.78,5.53-6.91,3.15-7.5,7.89,7.69,13.81,9.47,14.4S126.78,189.66,126.78,189.66Z" style="fill:#263238;stroke:#263238;stroke-linecap:round;stroke-linejoin:round"></path><path d="M126,176.8s-5.66,3.91-6.44,7" style="fill:none;stroke:#fff;stroke-linecap:round;stroke-linejoin:round;stroke-width:0.5px"></path><path d="M130.34,178.75s-7,3.13-9.18,7.62" style="fill:none;stroke:#fff;stroke-linecap:round;stroke-linejoin:round;stroke-width:0.5px"></path><path d="M128.36,190.84s-1.19-2.76-3.36-2.56-1.58,3.35.59,5.92,4.74.79,4.94.2" style="fill:#fff;stroke:#263238;stroke-linecap:round;stroke-linejoin:round"></path></g></svg>