<?xml version="1.0"?>
<svg xmlns="http://www.w3.org/2000/svg" xmlns:xlink="http://www.w3.org/1999/xlink" xmlns:svgjs="http://svgjs.com/svgjs" version="1.1" width="512" height="512" x="0" y="0" viewBox="0 0 512 512" style="enable-background:new 0 0 512 512" xml:space="preserve" class=""><g><path xmlns="http://www.w3.org/2000/svg" d="m482 31h-452c-16.542 0-30 13.458-30 30v330c0 16.542 13.458 30 30 30h166v30h-30c-8.284 0-15 6.716-15 15s6.716 15 15 15h180c8.284 0 15-6.716 15-15s-6.716-15-15-15h-30v-30h166c16.542 0 30-13.458 30-30v-330c0-16.542-13.458-30-30-30zm0 30v270h-452.003l-.016-269.999c.011-.002 452.01-.001 452.019-.001zm-196 390h-60v-30h60zm-256-60-.002-30h452.002v30z" fill="#445cb4" data-original="#000000" style=""/><path xmlns="http://www.w3.org/2000/svg" d="m106 121h33.552l27.508 100.577c-9.811 8.261-16.06 20.623-16.06 34.423 0 24.813 20.187 45 45 45 19.555 0 36.228-12.541 42.42-30h35.16c6.192 17.459 22.865 30 42.42 30 24.813 0 45-20.187 45-45 0-15.385-7.765-28.987-19.578-37.106l19.159-79.375c2.278-9.435-4.886-18.519-14.581-18.519h-175.346l-5.185-18.957c-1.783-6.521-7.708-11.043-14.469-11.043h-45c-8.284 0-15 6.716-15 15s6.716 15 15 15zm90 150c-8.271 0-15-6.729-15-15s6.729-15 15-15 15 6.729 15 15-6.729 15-15 15zm120 0c-8.271 0-15-6.729-15-15s6.729-15 15-15 15 6.729 15 15-6.729 15-15 15zm10.948-120-14.52 60.155c-17.993 1.421-33.037 13.461-38.848 29.845h-35.16c-6.244-17.605-23.176-30.293-43.146-29.982l-16.415-60.018z" fill="#445cb4" data-original="#000000" style=""/></g></svg>
