<?xml version="1.0"?>
<svg xmlns="http://www.w3.org/2000/svg" xmlns:xlink="http://www.w3.org/1999/xlink" xmlns:svgjs="http://svgjs.com/svgjs" version="1.1" width="512" height="512" x="0" y="0" viewBox="0 0 512 512" style="enable-background:new 0 0 512 512" xml:space="preserve"><g><path xmlns="http://www.w3.org/2000/svg" d="m256 361c57.897 0 105-47.103 105-105v-151c0-57.897-47.103-105-105-105s-105 47.103-105 105v151c0 57.897 47.103 105 105 105z" fill="#445cb4" data-original="#000000" style=""/><path xmlns="http://www.w3.org/2000/svg" d="m406 211c-8.284 0-15 6.716-15 15v30c0 74.439-60.561 135-135 135s-135-60.561-135-135v-30c0-8.284-6.716-15-15-15s-15 6.716-15 15v30c0 85.925 66.023 156.707 150 164.311v61.689h-75c-8.284 0-15 6.716-15 15s6.716 15 15 15h180c8.284 0 15-6.716 15-15s-6.716-15-15-15h-75v-61.689c83.977-7.604 150-78.386 150-164.311v-30c0-8.284-6.716-15-15-15z" fill="#445cb4" data-original="#000000" style=""/><path xmlns="http://www.w3.org/2000/svg" d="m106 151c8.284 0 15-6.716 15-15v-75c0-8.284-6.716-15-15-15s-15 6.716-15 15v75c0 8.284 6.716 15 15 15z" fill="#445cb4" data-original="#000000" style=""/><path xmlns="http://www.w3.org/2000/svg" d="m46 0c-8.284 0-15 6.716-15 15v166c0 8.284 6.716 15 15 15s15-6.716 15-15v-166c0-8.284-6.716-15-15-15z" fill="#445cb4" data-original="#000000" style=""/><path xmlns="http://www.w3.org/2000/svg" d="m406 46c-8.284 0-15 6.716-15 15v75c0 8.284 6.716 15 15 15s15-6.716 15-15v-75c0-8.284-6.716-15-15-15z" fill="#445cb4" data-original="#000000" style=""/><path xmlns="http://www.w3.org/2000/svg" d="m466 0c-8.284 0-15 6.716-15 15v166c0 8.284 6.716 15 15 15s15-6.716 15-15v-166c0-8.284-6.716-15-15-15z" fill="#445cb4" data-original="#000000" style=""/></g></svg>
