<svg width="800" height="800" viewBox="0 0 800 800" fill="none" xmlns="http://www.w3.org/2000/svg">
<path d="M701.808 453.056H68.704" stroke="#263238" stroke-width="1.08162" stroke-miterlimit="10"/>
<path d="M184.832 268.544C184.832 264.144 186.864 260.912 191.44 260.912C196.016 260.912 198.128 264.112 198.128 268.544V284C198.128 288.4 196.096 291.632 191.44 291.632C186.784 291.632 184.832 288.432 184.832 284V268.544ZM186.816 284.128C186.816 287.328 188.112 289.824 191.44 289.824C194.768 289.824 196.144 287.408 196.144 284.128V268.416C196.144 265.216 194.8 262.72 191.44 262.72C188.08 262.72 186.816 265.136 186.816 268.416V284.128Z" fill="#263238"/>
<path d="M201.28 268.544C201.28 264.144 203.312 260.912 207.872 260.912C212.432 260.912 214.56 264.112 214.56 268.544V284C214.56 288.4 212.544 291.632 207.872 291.632C203.2 291.632 201.28 288.432 201.28 284V268.544ZM203.264 284.128C203.264 287.328 204.56 289.824 207.872 289.824C211.184 289.824 212.576 287.408 212.576 284.128V268.416C212.576 265.216 211.248 262.72 207.872 262.72C204.496 262.72 203.264 265.136 203.264 268.416V284.128Z" fill="#263238"/>
<path d="M224.096 261.168C228.768 261.168 230.576 264.112 230.576 268.512V271.792C230.576 276.592 228.368 278.944 223.584 278.944H219.824V291.376H217.84V261.168H224.096ZM223.584 277.168C227.072 277.168 228.592 275.568 228.592 271.952V268.416C228.592 265.136 227.472 263.024 224.096 263.024H219.824V277.168H223.584Z" fill="#263238"/>
<path d="M246.288 268.464V269.104H244.384V268.336C244.384 265.136 243.184 262.72 239.904 262.72C236.624 262.72 235.408 265.104 235.408 268.288C235.408 275.632 246.32 275.76 246.32 284.08C246.32 288.432 244.432 291.632 239.808 291.632C235.184 291.632 233.296 288.432 233.296 284.08V282.48H235.2V284.08C235.2 287.28 236.448 289.648 239.776 289.648C243.104 289.648 244.336 287.312 244.336 284.08C244.336 276.832 233.424 276.704 233.424 268.288C233.424 263.76 235.408 260.832 239.824 260.784C244.24 260.736 246.288 264.112 246.288 268.464Z" fill="#263238"/>
<path d="M251.2 287.584V291.376H249.264V287.584H251.2Z" fill="#263238"/>
<path d="M256.64 287.584V291.376H254.704V287.584H256.64Z" fill="#263238"/>
<path d="M262.032 287.584V291.376H260.096V287.584H262.032Z" fill="#263238"/>
<path d="M114.016 394.672L148.016 314.272H168.416V394.672H177.248V411.664H168.416V433.248H150.048V411.664H114.016V394.672ZM150.048 394.672V349.968L131.2 394.672H150.048Z" fill="#282D3C"/>
<path d="M184.224 342.816C184.224 323.792 194.256 312.912 212.608 312.912C230.96 312.912 240.992 323.792 240.992 342.816V404.688C240.992 423.728 230.96 434.608 212.608 434.608C194.256 434.608 184.224 423.728 184.224 404.688V342.816ZM202.912 405.888C202.912 414.384 206.656 417.616 212.608 417.616C218.56 417.616 222.304 414.416 222.304 405.888V341.632C222.304 333.136 218.56 329.904 212.608 329.904C206.656 329.904 202.912 333.104 202.912 341.632V405.888Z" fill="#282D3C"/>
<path d="M248.64 394.672L282.64 314.272H303.04V394.672H311.872V411.664H303.04V433.248H284.672V411.664H248.64V394.672ZM284.672 394.672V349.968L265.808 394.672H284.672Z" fill="#282D3C"/>
<path d="M122.208 461.824C126.784 461.824 128.608 464.704 128.608 469.008V472.208C128.608 476.896 126.448 479.232 121.76 479.232H118.08V491.392H116.08V461.824H122.208ZM121.712 477.472C125.136 477.472 126.608 475.872 126.608 472.352V468.88C126.608 465.68 125.52 463.6 122.208 463.6H118.032V477.472H121.712Z" fill="#263238"/>
<path d="M133.76 484.8L132.272 491.344H130.512L136.912 461.712H139.744L146.336 491.344H144.448L142.976 484.8H133.76ZM134.048 483.104H142.672L138.32 463.904L134.048 483.104Z" fill="#263238"/>
<path d="M161.968 469.056V471.248H160.096V468.928C160.096 465.728 158.88 463.344 155.616 463.344C152.352 463.344 151.136 465.76 151.136 468.928V484.32C151.136 487.52 152.368 489.856 155.616 489.856C158.864 489.856 160.096 487.488 160.096 484.32V477.92H156.176V476.16H161.968V484.16C161.968 488.432 160.096 491.632 155.568 491.632C151.04 491.632 149.168 488.432 149.168 484.16V469.024C149.168 464.752 151.024 461.536 155.568 461.536C160.112 461.536 161.968 464.784 161.968 469.056Z" fill="#263238"/>
<path d="M175.232 475.52V477.296H167.232V489.6H176.944V491.36H165.28V461.824H176.944V463.6H167.232V475.52H175.232Z" fill="#263238"/>
<path d="M188.384 491.408H186.608V461.824H189.152L198.032 486.8V461.824H199.808V491.408H197.648L188.384 465.04V491.408Z" fill="#263238"/>
<path d="M203.024 469.056C203.024 464.736 205.008 461.568 209.424 461.568C213.84 461.568 215.968 464.768 215.968 469.056V484.192C215.968 488.496 213.984 491.664 209.424 491.664C204.864 491.664 203.024 488.464 203.024 484.192V469.056ZM204.96 484.32C204.96 487.52 206.224 489.888 209.488 489.888C212.752 489.888 214.096 487.52 214.096 484.32V468.928C214.096 465.728 212.784 463.344 209.488 463.344C206.192 463.344 204.96 465.712 204.96 468.928V484.32Z" fill="#263238"/>
<path d="M224.24 491.408V463.6H218.24V461.824H232.224V463.6H226.192V491.408H224.24Z" fill="#263238"/>
<path d="M250.8 476.24V478.016H243.2V491.408H241.264V461.824H252.464V463.6H243.2V476.24H250.8Z" fill="#263238"/>
<path d="M255.28 469.056C255.28 464.736 257.264 461.568 261.68 461.568C266.096 461.568 268.24 464.768 268.24 469.056V484.192C268.24 488.496 266.24 491.664 261.68 491.664C257.12 491.664 255.28 488.464 255.28 484.192V469.056ZM257.216 484.32C257.216 487.52 258.496 489.888 261.744 489.888C264.992 489.888 266.352 487.52 266.352 484.32V468.928C266.352 465.728 265.04 463.344 261.744 463.344C258.448 463.344 257.216 465.712 257.216 468.928V484.32Z" fill="#263238"/>
<path d="M273.376 484.272C273.376 487.472 274.56 489.888 277.808 489.888C281.056 489.888 282.256 487.44 282.256 484.272V461.872H284.064V484.272C284.064 488.496 282.288 491.744 277.776 491.744C273.264 491.744 271.376 488.544 271.376 484.272V461.872H273.328L273.376 484.272Z" fill="#263238"/>
<path d="M289.184 491.408H287.408V461.824H289.952L298.832 486.8V461.824H300.608V491.408H298.448L289.184 465.04V491.408Z" fill="#263238"/>
<path d="M310.4 461.824C314.976 461.824 316.96 464.832 316.96 469.184V484.064C316.96 488.416 314.976 491.408 310.4 491.408H304V461.824H310.4ZM310.4 489.6C313.696 489.6 315.04 487.344 315.04 484.096V469.04C315.04 465.84 313.648 463.552 310.4 463.552H305.872V489.6H310.4Z" fill="#263238"/>
<path d="M608.512 526.864C607.232 526.867 605.972 526.543 604.851 525.923C603.731 525.304 602.787 524.409 602.108 523.324C601.429 522.238 601.038 520.998 600.971 519.719C600.905 518.44 601.165 517.166 601.728 516.016C603.187 513.095 603.474 509.727 602.531 506.601C601.589 503.475 599.487 500.827 596.656 499.2C585.36 491.968 559.088 490.816 549.888 490.96H549.76C547.757 490.979 545.829 490.202 544.399 488.799C542.969 487.396 542.155 485.483 542.136 483.48C542.117 481.477 542.894 479.549 544.297 478.119C545.7 476.689 547.613 475.875 549.616 475.856C553.472 475.776 587.632 475.504 604.784 486.48C621.696 497.312 619.072 514.816 615.312 522.576C614.696 523.857 613.731 524.939 612.528 525.698C611.326 526.456 609.934 526.86 608.512 526.864Z" fill="#263238"/>
<path d="M643.328 566.704L641.664 572.352L616.464 530.912L615.808 521.968L643.328 566.704Z" fill="white" stroke="#263238" stroke-width="1.08162" stroke-linecap="round" stroke-linejoin="round"/>
<path d="M641.664 572.352L649.536 568.464L650.944 563.072L643.328 566.704L641.664 572.352Z" fill="white" stroke="#263238" stroke-width="1.08162" stroke-linecap="round" stroke-linejoin="round"/>
<path d="M612.496 517.328L641.664 516.32L650.944 563.072L643.328 566.704L612.496 517.328Z" fill="white" stroke="#263238" stroke-width="1.08162" stroke-linecap="round" stroke-linejoin="round"/>
<path d="M608.512 519.312L637.68 568.368L628.08 573.008L584.976 537.872L608.512 519.312Z" fill="white" stroke="#263238" stroke-width="1.08162" stroke-linecap="round" stroke-linejoin="round"/>
<path d="M628.08 573.008L626.752 577.984L583.328 543.504L584.976 537.872L628.08 573.008Z" fill="white" stroke="#263238" stroke-width="1.08162" stroke-linecap="round" stroke-linejoin="round"/>
<path d="M628.08 573.008L637.68 568.368L636.368 573.344L626.752 577.984L628.08 573.008Z" fill="white" stroke="#263238" stroke-width="1.08162" stroke-linecap="round" stroke-linejoin="round"/>
<path d="M624.694 537.003C630.467 531.23 630.468 521.869 624.694 516.096C618.92 510.322 609.56 510.322 603.786 516.096C598.013 521.869 598.013 531.23 603.786 537.003C609.56 542.777 618.92 542.777 624.694 537.003Z" fill="#3A5589" stroke="#263238" stroke-width="1.08162" stroke-linecap="round" stroke-linejoin="round"/>
<path d="M302.672 566.704L304.336 572.352L329.52 530.912L330.192 521.968L302.672 566.704Z" fill="white" stroke="#263238" stroke-width="1.08162" stroke-linecap="round" stroke-linejoin="round"/>
<path d="M304.336 572.352L296.464 568.464L295.056 563.072L302.672 566.704L304.336 572.352Z" fill="white" stroke="#263238" stroke-width="1.08162" stroke-linecap="round" stroke-linejoin="round"/>
<path d="M333.504 517.328L304.336 516.32L295.056 563.072L302.672 566.704L333.504 517.328Z" fill="white" stroke="#263238" stroke-width="1.08162" stroke-linecap="round" stroke-linejoin="round"/>
<path d="M337.488 519.312L308.304 568.368L317.92 573.008L361.008 537.872L337.488 519.312Z" fill="white" stroke="#263238" stroke-width="1.08162" stroke-linecap="round" stroke-linejoin="round"/>
<path d="M317.92 573.008L319.248 577.984L362.672 543.504L361.008 537.872L317.92 573.008Z" fill="white" stroke="#263238" stroke-width="1.08162" stroke-linecap="round" stroke-linejoin="round"/>
<path d="M317.92 573.008L308.304 568.368L309.632 573.344L319.248 577.984L317.92 573.008Z" fill="white" stroke="#263238" stroke-width="1.08162" stroke-linecap="round" stroke-linejoin="round"/>
<path d="M332.704 531.888C331.142 531.894 329.616 531.416 328.337 530.52C327.058 529.623 326.089 528.352 325.562 526.881C325.036 525.411 324.979 523.813 325.398 522.308C325.817 520.804 326.693 519.466 327.904 518.48C387.936 469.632 375.712 396.784 375.584 396.048C375.285 394.1 375.76 392.112 376.906 390.509C378.053 388.906 379.78 387.815 381.72 387.468C383.66 387.122 385.659 387.547 387.29 388.654C388.92 389.761 390.054 391.461 390.448 393.392C391.04 396.736 404.304 475.792 337.44 530.192C336.103 531.284 334.431 531.883 332.704 531.888Z" fill="#263238"/>
<path d="M420.402 379.956C423.005 363.834 412.045 348.656 395.924 346.054C379.803 343.451 364.624 354.41 362.022 370.532C359.419 386.653 370.379 401.831 386.5 404.434C402.621 407.036 417.8 396.077 420.402 379.956Z" fill="#ADADAD" stroke="#263238" stroke-width="1.08162" stroke-linecap="round" stroke-linejoin="round"/>
<path d="M342.203 536.998C347.977 531.225 347.977 521.864 342.203 516.09C336.43 510.317 327.069 510.317 321.295 516.09C315.522 521.864 315.522 531.225 321.295 536.998C327.069 542.772 336.43 542.772 342.203 536.998Z" fill="#3A5589" stroke="#263238" stroke-width="1.08162" stroke-linecap="round" stroke-linejoin="round"/>
<path d="M470.384 497.008C496.302 497.008 517.312 477.409 517.312 453.232C517.312 429.055 496.302 409.456 470.384 409.456C444.466 409.456 423.456 429.055 423.456 453.232C423.456 477.409 444.466 497.008 470.384 497.008Z" fill="#ADADAD" stroke="#263238" stroke-width="1.08162" stroke-linecap="round" stroke-linejoin="round"/>
<path d="M445.936 434.528L450.32 451.632C451.615 455.864 454.361 459.505 458.074 461.913C461.788 464.322 466.231 465.344 470.624 464.8C475.011 464.252 479.065 462.173 482.07 458.93C485.076 455.687 486.842 451.488 487.056 447.072L487.92 429.824L445.936 434.528Z" fill="#263238" stroke="#263238" stroke-width="1.08162" stroke-linecap="round" stroke-linejoin="round"/>
<path d="M538.448 348.464C534.02 348.528 529.608 347.924 525.36 346.672L526.576 343.104C526.784 343.104 547.792 349.936 569.184 334.288L571.408 337.344C561.905 344.502 550.345 348.402 538.448 348.464Z" fill="#263238"/>
<path d="M562.032 376.848C544.72 351.552 525.024 353.456 524.832 353.472L524.416 349.728C525.312 349.632 546.576 347.568 565.136 374.72L562.032 376.848Z" fill="#263238"/>
<path d="M557.648 394.72C535.248 387.824 521.792 358 521.216 356.736L524.672 355.136C524.8 355.44 538.016 384.656 558.768 391.04L557.648 394.72Z" fill="#263238"/>
<path d="M569.296 336.832L575.344 332.8" stroke="#263238" stroke-width="1.08162" stroke-miterlimit="10"/>
<path d="M561.904 372.432L565.936 380.48" stroke="#263238" stroke-width="1.08162" stroke-miterlimit="10"/>
<path d="M554.848 391.568C558.036 392.379 561.304 392.829 564.592 392.912" stroke="#263238" stroke-width="1.08162" stroke-miterlimit="10"/>
<path d="M385.008 342.912L390.592 381.968L529.552 367.76L529.04 327.184L385.008 342.912Z" fill="white" stroke="#263238" stroke-width="1.08162" stroke-linecap="round" stroke-linejoin="round"/>
<path d="M390.592 381.968L415.44 444.848L522.448 434.192L529.552 367.76L390.592 381.968Z" fill="#E5E5E5" stroke="#263238" stroke-width="1.08162" stroke-linecap="round" stroke-linejoin="round"/>
<path d="M424.112 398.4L433.872 427.2C434.568 429.278 435.962 431.051 437.817 432.217C439.672 433.384 441.874 433.872 444.048 433.6L486.912 428.928C489.076 428.665 491.083 427.666 492.598 426.099C494.112 424.531 495.043 422.491 495.232 420.32L497.888 390.032C497.978 389.04 497.845 388.041 497.5 387.107C497.156 386.173 496.607 385.327 495.895 384.632C495.182 383.936 494.324 383.408 493.382 383.085C492.439 382.763 491.437 382.655 490.448 382.768L429.76 389.552C428.759 389.662 427.795 389.995 426.94 390.526C426.084 391.058 425.359 391.774 424.817 392.623C424.275 393.472 423.931 394.432 423.809 395.432C423.687 396.431 423.79 397.446 424.112 398.4Z" fill="#263238"/>
<mask id="mask0_4_6126" style="mask-type:luminance" maskUnits="userSpaceOnUse" x="423" y="382" width="75" height="52">
<path d="M424.112 398.4L433.872 427.2C434.568 429.278 435.962 431.051 437.817 432.217C439.672 433.384 441.874 433.872 444.048 433.6L486.912 428.928C489.076 428.665 491.083 427.666 492.598 426.099C494.112 424.531 495.043 422.491 495.232 420.32L497.888 390.032C497.978 389.04 497.845 388.041 497.5 387.107C497.156 386.173 496.607 385.327 495.895 384.632C495.182 383.936 494.324 383.408 493.382 383.085C492.439 382.763 491.437 382.655 490.448 382.768L429.76 389.552C428.759 389.662 427.795 389.995 426.94 390.526C426.084 391.058 425.359 391.774 424.817 392.623C424.275 393.472 423.931 394.432 423.809 395.432C423.687 396.431 423.79 397.446 424.112 398.4Z" fill="white"/>
</mask>
<g mask="url(#mask0_4_6126)">
<path d="M424.112 414.224L441.808 412.656L447.424 397.408L460.64 421.168L467.36 403.456L470.72 409.072L502.784 405.248" stroke="white" stroke-width="1.08162" stroke-linecap="round" stroke-linejoin="round"/>
</g>
<path d="M424.112 398.4L433.872 427.2C434.568 429.278 435.962 431.051 437.817 432.217C439.672 433.384 441.874 433.872 444.048 433.6L486.912 428.928C489.076 428.665 491.083 427.666 492.598 426.099C494.112 424.531 495.043 422.491 495.232 420.32L497.888 390.032C497.978 389.04 497.845 388.041 497.5 387.107C497.156 386.173 496.607 385.327 495.895 384.632C495.182 383.936 494.324 383.408 493.382 383.085C492.439 382.763 491.437 382.655 490.448 382.768L429.76 389.552C428.759 389.662 427.795 389.995 426.94 390.526C426.084 391.058 425.359 391.774 424.817 392.623C424.275 393.472 423.931 394.432 423.809 395.432C423.687 396.431 423.79 397.446 424.112 398.4Z" stroke="#263238" stroke-width="1.08162" stroke-linecap="round" stroke-linejoin="round"/>
<path d="M513.424 393.888C517.719 393.888 521.2 390.407 521.2 386.112C521.2 381.817 517.719 378.336 513.424 378.336C509.129 378.336 505.648 381.817 505.648 386.112C505.648 390.407 509.129 393.888 513.424 393.888Z" fill="white" stroke="#263238" stroke-width="1.08162" stroke-linecap="round" stroke-linejoin="round"/>
<path d="M519.76 410.432C519.76 411.875 519.332 413.286 518.53 414.485C517.729 415.685 516.589 416.62 515.256 417.173C513.923 417.725 512.456 417.869 511.041 417.588C509.625 417.306 508.325 416.611 507.305 415.591C506.285 414.571 505.59 413.271 505.308 411.855C505.027 410.44 505.171 408.973 505.723 407.64C506.276 406.307 507.211 405.167 508.411 404.366C509.61 403.564 511.021 403.136 512.464 403.136C514.399 403.136 516.255 403.905 517.623 405.273C518.991 406.641 519.76 408.497 519.76 410.432Z" fill="#3A5589" stroke="#263238" stroke-width="1.08162" stroke-linecap="round" stroke-linejoin="round"/>
<path d="M418.752 394.56C419.196 396.032 419.193 397.603 418.744 399.074C418.295 400.544 417.42 401.849 416.23 402.822C415.04 403.796 413.587 404.394 412.057 404.543C410.527 404.691 408.987 404.383 407.631 403.656C406.276 402.929 405.167 401.817 404.444 400.46C403.721 399.103 403.416 397.562 403.569 396.032C403.721 394.502 404.324 393.052 405.301 391.864C406.277 390.676 407.584 389.805 409.056 389.36C410.034 389.062 411.061 388.96 412.079 389.061C413.096 389.161 414.084 389.461 414.985 389.945C415.886 390.428 416.683 391.084 417.329 391.876C417.976 392.668 418.459 393.58 418.752 394.56Z" fill="#FF6F61" stroke="#263238" stroke-width="1.08162" stroke-linecap="round" stroke-linejoin="round"/>
<path d="M423.517 424.372C425.712 420.993 424.751 416.474 421.372 414.28C417.993 412.085 413.474 413.045 411.279 416.425C409.085 419.804 410.045 424.323 413.425 426.517C416.804 428.712 421.323 427.752 423.517 424.372Z" fill="white" stroke="#263238" stroke-width="1.08162" stroke-linecap="round" stroke-linejoin="round"/>
<path d="M442.192 504.288C453.609 504.288 462.864 495.362 462.864 484.352C462.864 473.342 453.609 464.416 442.192 464.416C430.775 464.416 421.52 473.342 421.52 484.352C421.52 495.362 430.775 504.288 442.192 504.288Z" fill="#3A5589" stroke="#263238" stroke-width="1.08162" stroke-linecap="round" stroke-linejoin="round"/>
<path d="M411.792 529.088L430.72 486.592C431.532 484.767 432.986 483.303 434.806 482.48C436.626 481.657 438.685 481.532 440.592 482.128C442.559 482.731 444.225 484.056 445.254 485.837C446.284 487.618 446.602 489.722 446.144 491.728L433.68 547.6L411.792 529.088Z" fill="#263238" stroke="#263238" stroke-width="1.08162" stroke-linecap="round" stroke-linejoin="round"/>
<path d="M405.472 464L446.8 561.264L397.2 568.08C397.2 568.08 367.536 537.92 347.6 480.544L405.472 464Z" fill="#ADADAD" stroke="#263238" stroke-width="1.08162" stroke-linecap="round" stroke-linejoin="round"/>
<path d="M405.472 463.92L407.408 454.688L448.752 553.888L446.8 561.184L405.472 463.92Z" fill="white" stroke="#263238" stroke-width="1.08162" stroke-linecap="round" stroke-linejoin="round"/>
<path d="M407.408 454.688L351.008 471.696L347.6 480.464L405.472 463.92L407.408 454.688Z" fill="white" stroke="#263238" stroke-width="1.08162" stroke-linecap="round" stroke-linejoin="round"/>
<path d="M351.488 489.696L408.384 472.192" stroke="#263238" stroke-width="1.08162" stroke-linecap="round" stroke-linejoin="round"/>
<path d="M355.856 499.904L413.248 484.352" stroke="#263238" stroke-width="1.08162" stroke-linecap="round" stroke-linejoin="round"/>
<path d="M360.24 510.608L418.112 495.056" stroke="#263238" stroke-width="1.08162" stroke-linecap="round" stroke-linejoin="round"/>
<path d="M366.56 523.744L422.976 507.2" stroke="#263238" stroke-width="1.08162" stroke-linecap="round" stroke-linejoin="round"/>
<path d="M372.544 534.176L428.816 519.36" stroke="#263238" stroke-width="1.08162" stroke-linecap="round" stroke-linejoin="round"/>
<path d="M378.72 543.712L433.68 530.544" stroke="#263238" stroke-width="1.08162" stroke-linecap="round" stroke-linejoin="round"/>
<path d="M385.84 552.88L437.072 540.768" stroke="#263238" stroke-width="1.08162" stroke-linecap="round" stroke-linejoin="round"/>
<path d="M390.88 560.368L441.776 551.952" stroke="#263238" stroke-width="1.08162" stroke-linecap="round" stroke-linejoin="round"/>
<path d="M497.248 504.288C508.665 504.288 517.92 495.362 517.92 484.352C517.92 473.342 508.665 464.416 497.248 464.416C485.831 464.416 476.576 473.342 476.576 484.352C476.576 495.362 485.831 504.288 497.248 504.288Z" fill="#3A5589" stroke="#263238" stroke-width="1.08162" stroke-linecap="round" stroke-linejoin="round"/>
<path d="M527.632 529.088L508.704 486.592C507.892 484.767 506.438 483.303 504.618 482.48C502.798 481.657 500.739 481.532 498.832 482.128C496.866 482.731 495.202 484.057 494.174 485.838C493.147 487.62 492.833 489.724 493.296 491.728L505.76 547.6L527.632 529.088Z" fill="#263238" stroke="#263238" stroke-width="1.08162" stroke-linecap="round" stroke-linejoin="round"/>
<path d="M533.968 464L492.624 561.264L542.224 568.08C542.224 568.08 571.888 537.92 591.824 480.544L533.968 464Z" fill="#ADADAD" stroke="#263238" stroke-width="1.08162" stroke-linecap="round" stroke-linejoin="round"/>
<path d="M533.968 463.92L532.016 454.688L490.672 553.888L492.624 561.184L533.968 463.92Z" fill="white" stroke="#263238" stroke-width="1.08162" stroke-linecap="round" stroke-linejoin="round"/>
<path d="M532.016 454.688L588.432 471.696L591.84 480.464L533.968 463.92L532.016 454.688Z" fill="white" stroke="#263238" stroke-width="1.08162" stroke-linecap="round" stroke-linejoin="round"/>
<path d="M587.936 489.696L531.04 472.192" stroke="#263238" stroke-width="1.08162" stroke-linecap="round" stroke-linejoin="round"/>
<path d="M583.568 499.904L526.176 484.352" stroke="#263238" stroke-width="1.08162" stroke-linecap="round" stroke-linejoin="round"/>
<path d="M579.184 510.608L521.312 495.056" stroke="#263238" stroke-width="1.08162" stroke-linecap="round" stroke-linejoin="round"/>
<path d="M572.864 523.744L516.448 507.2" stroke="#263238" stroke-width="1.08162" stroke-linecap="round" stroke-linejoin="round"/>
<path d="M566.88 534.176L510.624 519.36" stroke="#263238" stroke-width="1.08162" stroke-linecap="round" stroke-linejoin="round"/>
<path d="M560.704 543.712L505.76 530.544" stroke="#263238" stroke-width="1.08162" stroke-linecap="round" stroke-linejoin="round"/>
<path d="M553.6 552.88L502.352 540.768" stroke="#263238" stroke-width="1.08162" stroke-linecap="round" stroke-linejoin="round"/>
<path d="M548.544 560.368L497.648 551.952" stroke="#263238" stroke-width="1.08162" stroke-linecap="round" stroke-linejoin="round"/>
<path d="M571.648 380.816L577.024 383.168" stroke="#263238" stroke-width="1.08162" stroke-miterlimit="10"/>
<path d="M568.288 382.832L573.664 391.232" stroke="#263238" stroke-width="1.08162" stroke-miterlimit="10"/>
<path d="M565.264 383.168L564.256 388.544" stroke="#263238" stroke-width="1.08162" stroke-miterlimit="10"/>
<path d="M578.368 348.24H591.456" stroke="#263238" stroke-width="1.08162" stroke-miterlimit="10"/>
<path d="M568.288 348.912L587.088 354.288" stroke="#263238" stroke-width="1.08162" stroke-miterlimit="10"/>
<path d="M575.344 341.872L587.424 340.192" stroke="#263238" stroke-width="1.08162" stroke-miterlimit="10"/>
<path d="M532.016 383.504L535.376 393.248" stroke="#263238" stroke-width="1.08162" stroke-miterlimit="10"/>
<path d="M536.384 382.832L545.776 398.288" stroke="#263238" stroke-width="1.08162" stroke-miterlimit="10"/>
<path d="M539.744 373.776L548.8 376.8" stroke="#263238" stroke-width="1.08162" stroke-miterlimit="10"/>
<path d="M589.776 368.736L586.752 372.032L588.944 375.936L584.864 374.064L581.84 377.36L582.352 372.912L578.288 371.04L582.672 370.16L583.2 365.712L585.392 369.616L589.776 368.736Z" fill="#FF6F61" stroke="#263238" stroke-width="0.540812" stroke-linecap="round" stroke-linejoin="round"/>
<path d="M594.48 324.4L591.44 327.696L593.648 331.6L589.568 329.728L586.544 333.024L587.056 328.576L582.992 326.704L587.376 325.824L587.888 321.376L590.096 325.28L594.48 324.4Z" fill="#FF6F61" stroke="#263238" stroke-width="0.540812" stroke-linecap="round" stroke-linejoin="round"/>
<path d="M545.44 401.984L542.416 405.28L544.608 409.184L540.544 407.312L537.504 410.608L538.016 406.16L533.952 404.288L538.336 403.408L538.864 398.96L541.056 402.864L545.44 401.984Z" fill="#FF6F61" stroke="#263238" stroke-width="0.540812" stroke-linecap="round" stroke-linejoin="round"/>
<path d="M400.48 328.72C412.948 328.72 423.056 318.727 423.056 306.4C423.056 294.073 412.948 284.08 400.48 284.08C388.012 284.08 377.904 294.073 377.904 306.4C377.904 318.727 388.012 328.72 400.48 328.72Z" fill="#ADADAD" stroke="#263238" stroke-width="1.08162" stroke-linecap="round" stroke-linejoin="round"/>
<path d="M498.864 322.624C511.332 322.624 521.44 312.631 521.44 300.304C521.44 287.977 511.332 277.984 498.864 277.984C486.396 277.984 476.288 287.977 476.288 300.304C476.288 312.631 486.396 322.624 498.864 322.624Z" fill="#ADADAD" stroke="#263238" stroke-width="1.08162" stroke-linecap="round" stroke-linejoin="round"/>
<path d="M453.472 374.352C469.157 374.352 481.872 362.203 481.872 347.216C481.872 332.229 469.157 320.08 453.472 320.08C437.787 320.08 425.072 332.229 425.072 347.216C425.072 362.203 437.787 374.352 453.472 374.352Z" fill="#3A5589" stroke="#263238" stroke-width="1.08162" stroke-linecap="round" stroke-linejoin="round"/>
<path d="M432.688 333.28L436.608 350.496C437.779 354.763 440.42 358.479 444.065 360.988C447.71 363.497 452.124 364.637 456.528 364.208C460.929 363.781 465.039 361.816 468.135 358.658C471.231 355.501 473.115 351.353 473.456 346.944L474.784 329.728L432.688 333.28Z" fill="#263238" stroke="#263238" stroke-width="1.08162" stroke-linecap="round" stroke-linejoin="round"/>
<path d="M406.816 260.752L396.176 303.36L502.16 294.736L486.448 254.16L406.816 260.752Z" fill="white" stroke="#263238" stroke-width="1.08162" stroke-linecap="round" stroke-linejoin="round"/>
<path d="M396.176 303.36L414.928 350.016L498.112 341.904L502.16 294.736L396.176 303.36Z" fill="#E5E5E5" stroke="#263238" stroke-width="1.08162" stroke-linecap="round" stroke-linejoin="round"/>
<path d="M443.84 322.384C443.552 329.008 437.76 334.224 430.832 334.752C423.904 335.28 417.12 330.944 415.632 324.384C414.032 316.864 419.648 309.472 428.528 308.912C437.408 308.352 444.144 314.832 443.84 322.384Z" fill="#3A5589" stroke="#263238" stroke-width="1.08162" stroke-linecap="round" stroke-linejoin="round"/>
<path d="M438.544 322.752C438.457 324.846 437.587 326.831 436.105 328.313C434.623 329.795 432.638 330.665 430.544 330.752C428.418 330.982 426.282 330.422 424.542 329.181C422.802 327.939 421.578 326.101 421.104 324.016C420.32 319.472 423.888 315.2 429.104 314.848C430.248 314.72 431.405 314.825 432.507 315.158C433.609 315.49 434.632 316.042 435.515 316.781C436.397 317.52 437.12 318.43 437.641 319.456C438.162 320.482 438.469 321.604 438.544 322.752Z" fill="white" stroke="#263238" stroke-width="1.08162" stroke-linecap="round" stroke-linejoin="round"/>
<path d="M490.992 317.824C490.72 324.448 484.928 329.664 478 330.192C471.072 330.72 464.272 326.384 462.8 319.808C461.12 312.304 466.816 304.912 475.696 304.336C484.576 303.76 491.312 310.272 490.992 317.824Z" fill="#3A5589" stroke="#263238" stroke-width="1.08162" stroke-linecap="round" stroke-linejoin="round"/>
<path d="M485.696 318.192C485.613 320.287 484.744 322.274 483.261 323.757C481.778 325.239 479.791 326.109 477.696 326.192C475.569 326.417 473.433 325.855 471.693 324.61C469.953 323.366 468.73 321.526 468.256 319.44C467.472 314.896 471.04 310.64 476.256 310.288C477.401 310.155 478.56 310.257 479.664 310.588C480.768 310.918 481.792 311.47 482.676 312.21C483.559 312.949 484.283 313.861 484.802 314.89C485.321 315.918 485.625 317.042 485.696 318.192Z" fill="white" stroke="#263238" stroke-width="1.08162" stroke-linecap="round" stroke-linejoin="round"/>
<path d="M444.352 341.616C443.377 341.626 442.436 341.258 441.726 340.591C441.016 339.923 440.592 339.006 440.542 338.032C440.492 337.059 440.821 336.103 441.46 335.367C442.098 334.63 442.997 334.169 443.968 334.08L464.256 332.048C465.253 331.948 466.249 332.249 467.025 332.883C467.801 333.518 468.292 334.435 468.392 335.432C468.492 336.429 468.191 337.425 467.557 338.201C466.922 338.976 466.005 339.468 465.008 339.568L444.8 341.6L444.352 341.616Z" fill="#263238" stroke="#263238" stroke-width="1.08162" stroke-linecap="round" stroke-linejoin="round"/>
<path d="M408.768 281.712C413.001 281.712 416.432 278.281 416.432 274.048C416.432 269.815 413.001 266.384 408.768 266.384C404.535 266.384 401.104 269.815 401.104 274.048C401.104 278.281 404.535 281.712 408.768 281.712Z" fill="#3A5589" stroke="#263238" stroke-width="1.08162" stroke-linecap="round" stroke-linejoin="round"/>
<path d="M404.032 276.128C407.646 276.128 410.576 273.198 410.576 269.584C410.576 265.97 407.646 263.04 404.032 263.04C400.418 263.04 397.488 265.97 397.488 269.584C397.488 273.198 400.418 276.128 404.032 276.128Z" fill="#3A5589" stroke="#263238" stroke-width="1.08162" stroke-linecap="round" stroke-linejoin="round"/>
<path d="M402.768 262.624C402.765 263.642 402.46 264.637 401.892 265.482C401.324 266.327 400.518 266.985 399.577 267.372C398.635 267.76 397.599 267.859 396.601 267.659C395.603 267.458 394.686 266.966 393.967 266.245C393.248 265.524 392.759 264.606 392.562 263.607C392.364 262.608 392.467 261.573 392.858 260.633C393.248 259.692 393.909 258.888 394.755 258.323C395.602 257.758 396.598 257.456 397.616 257.456C398.294 257.456 398.965 257.59 399.591 257.85C400.217 258.109 400.786 258.49 401.265 258.97C401.743 259.451 402.122 260.02 402.38 260.647C402.638 261.274 402.77 261.946 402.768 262.624Z" fill="#3A5589" stroke="#263238" stroke-width="1.08162" stroke-linecap="round" stroke-linejoin="round"/>
<path d="M396.368 260.816L384.656 249.936" stroke="#263238" stroke-width="1.08162" stroke-linecap="round" stroke-linejoin="round"/>
<path d="M484.032 276.416C488.265 276.416 491.696 272.985 491.696 268.752C491.696 264.519 488.265 261.088 484.032 261.088C479.799 261.088 476.368 264.519 476.368 268.752C476.368 272.985 479.799 276.416 484.032 276.416Z" fill="#3A5589" stroke="#263238" stroke-width="1.08162" stroke-linecap="round" stroke-linejoin="round"/>
<path d="M488.768 270.832C492.382 270.832 495.312 267.902 495.312 264.288C495.312 260.674 492.382 257.744 488.768 257.744C485.154 257.744 482.224 260.674 482.224 264.288C482.224 267.902 485.154 270.832 488.768 270.832Z" fill="#3A5589" stroke="#263238" stroke-width="1.08162" stroke-linecap="round" stroke-linejoin="round"/>
<path d="M490.032 257.328C490.035 258.346 490.34 259.341 490.908 260.186C491.476 261.031 492.282 261.689 493.224 262.076C494.165 262.464 495.201 262.564 496.199 262.363C497.197 262.162 498.114 261.67 498.833 260.949C499.552 260.228 500.041 259.31 500.238 258.311C500.436 257.312 500.333 256.277 499.942 255.337C499.552 254.396 498.892 253.592 498.045 253.027C497.198 252.462 496.202 252.16 495.184 252.16C494.506 252.16 493.835 252.294 493.209 252.554C492.583 252.814 492.014 253.194 491.535 253.675C491.057 254.155 490.678 254.724 490.42 255.351C490.162 255.978 490.03 256.65 490.032 257.328Z" fill="#3A5589" stroke="#263238" stroke-width="1.08162" stroke-linecap="round" stroke-linejoin="round"/>
<path d="M496.432 255.504L508.144 244.64" stroke="#263238" stroke-width="1.08162" stroke-linecap="round" stroke-linejoin="round"/>
<path d="M479.28 536.928C479.28 540.624 476.832 543.616 473.808 543.616C470.784 543.616 468.352 540.624 468.352 536.928C468.352 533.232 470.8 530.24 473.808 530.24C476.816 530.24 479.28 533.232 479.28 536.928Z" fill="white" stroke="#263238" stroke-width="1.08162" stroke-linecap="round" stroke-linejoin="round"/>
<path d="M490.096 542.528H489.68L474.496 540.304C473.778 540.169 473.14 539.761 472.715 539.166C472.291 538.571 472.112 537.836 472.218 537.112C472.323 536.389 472.704 535.735 473.281 535.286C473.857 534.837 474.585 534.628 475.312 534.704L490.496 536.912C491.231 536.983 491.909 537.338 492.386 537.902C492.863 538.466 493.101 539.194 493.049 539.931C492.997 540.667 492.659 541.355 492.107 541.846C491.555 542.337 490.834 542.593 490.096 542.56V542.528Z" fill="white" stroke="#263238" stroke-width="1.08162" stroke-miterlimit="10"/>
<path d="M277.888 568.192C275.904 565.072 276.288 561.232 278.912 559.632C281.536 558.032 285.12 559.232 287.104 562.336C289.088 565.44 288.624 569.296 286.064 570.912C283.504 572.528 279.856 571.312 277.888 568.192Z" fill="white" stroke="#263238" stroke-width="1.08162" stroke-linecap="round" stroke-linejoin="round"/>
<path d="M265.744 569.264C265.862 569.191 265.985 569.126 266.112 569.072L280.128 562.816C280.807 562.549 281.562 562.554 282.237 562.831C282.912 563.107 283.454 563.632 283.751 564.298C284.048 564.964 284.076 565.719 283.831 566.406C283.585 567.092 283.084 567.658 282.432 567.984L268.416 574.24C267.763 574.53 267.025 574.562 266.349 574.33C265.673 574.099 265.11 573.621 264.772 572.991C264.434 572.362 264.347 571.628 264.527 570.937C264.707 570.246 265.142 569.648 265.744 569.264Z" fill="white" stroke="#263238" stroke-width="1.08162" stroke-miterlimit="10"/>
<path d="M640.496 496.512C638.512 493.392 638.976 489.568 641.52 487.952C644.064 486.336 647.728 487.552 649.712 490.656C651.696 493.76 651.232 497.616 648.688 499.232C646.144 500.848 642.464 499.632 640.496 496.512Z" fill="white" stroke="#263238" stroke-width="1.08162" stroke-linecap="round" stroke-linejoin="round"/>
<path d="M628.368 497.6L628.72 497.408L642.736 491.152C643.078 490.981 643.451 490.88 643.833 490.857C644.215 490.834 644.598 490.889 644.958 491.018C645.318 491.147 645.649 491.347 645.929 491.607C646.21 491.867 646.435 492.182 646.59 492.531C646.746 492.881 646.83 493.258 646.835 493.64C646.841 494.023 646.77 494.403 646.625 494.757C646.48 495.111 646.265 495.432 645.992 495.701C645.72 495.969 645.396 496.18 645.04 496.32L631.04 502.576C630.387 502.866 629.649 502.898 628.973 502.666C628.297 502.435 627.734 501.956 627.396 501.327C627.058 500.698 626.971 499.964 627.151 499.273C627.331 498.582 627.766 497.984 628.368 497.6Z" fill="white" stroke="#263238" stroke-width="1.08162" stroke-miterlimit="10"/>
<path d="M369.888 571.2C363.488 571.2 358.336 574.272 358.336 578.048C358.336 581.824 363.504 584.896 369.888 584.896C376.272 584.896 381.456 581.824 381.456 578.048C381.456 574.272 376.272 571.2 369.888 571.2ZM369.888 581.584C366.592 581.584 363.92 579.984 363.92 578.048C363.92 576.112 366.592 574.512 369.888 574.512C373.184 574.512 375.872 576.112 375.872 578.048C375.872 579.984 373.2 581.584 369.888 581.584Z" fill="white" stroke="#263238" stroke-width="1.08162" stroke-miterlimit="10"/>
<path d="M474.016 572.304L466.128 569.104L458.224 572.304L456.272 579.344L461.744 584.992H470.512L475.968 579.344L474.016 572.304ZM468.352 581.296H463.904L461.12 578.432L462.112 574.864L466.128 573.264L470.128 574.864L471.12 578.432L468.352 581.296Z" fill="white" stroke="#263238" stroke-width="1.08162" stroke-linecap="round" stroke-linejoin="round"/>
<path d="M623.712 470.08L615.808 466.88L607.904 470.08L605.952 477.136L611.424 482.784H620.192L625.664 477.136L623.712 470.08ZM618.032 479.088H613.584L610.816 476.224L611.792 472.64L615.808 471.04L619.824 472.64L620.816 476.224L618.032 479.088Z" fill="white" stroke="#263238" stroke-width="1.08162" stroke-linecap="round" stroke-linejoin="round"/>
<path d="M526.832 588.368C526.609 588.369 526.387 588.331 526.176 588.256C525.102 587.803 524.195 587.025 523.584 586.032C522.704 584.672 521.984 582.256 523.376 578.512C523.864 577.143 524.68 575.914 525.755 574.935C526.829 573.955 528.128 573.255 529.536 572.896C531.343 572.459 533.227 572.447 535.04 572.861C536.853 573.274 538.545 574.102 539.984 575.28C540.177 575.436 540.337 575.63 540.454 575.848C540.572 576.067 540.645 576.307 540.668 576.554C540.692 576.802 540.667 577.051 540.593 577.288C540.52 577.525 540.4 577.746 540.24 577.936C539.922 578.322 539.463 578.566 538.965 578.614C538.467 578.662 537.97 578.51 537.584 578.192C536.602 577.409 535.456 576.858 534.232 576.581C533.007 576.304 531.735 576.308 530.512 576.592C529.686 576.805 528.925 577.219 528.297 577.797C527.669 578.374 527.193 579.098 526.912 579.904C525.488 583.664 527.2 584.704 527.552 584.8C528.002 585.001 528.358 585.367 528.545 585.823C528.733 586.278 528.738 586.789 528.56 587.248C528.415 587.584 528.173 587.87 527.866 588.07C527.558 588.269 527.198 588.373 526.832 588.368Z" fill="white" stroke="#263238" stroke-width="1.08162" stroke-linecap="round" stroke-linejoin="round"/>
<path d="M565.84 595.312C565.243 595.314 564.649 595.222 564.08 595.04L533.376 585.04C532.65 584.825 531.975 584.468 531.39 583.988C530.804 583.508 530.321 582.915 529.969 582.246C529.616 581.576 529.402 580.842 529.337 580.088C529.273 579.334 529.361 578.575 529.595 577.855C529.829 577.136 530.205 576.47 530.701 575.898C531.196 575.326 531.802 574.859 532.481 574.525C533.16 574.191 533.899 573.997 534.655 573.953C535.41 573.91 536.167 574.018 536.88 574.272L567.6 584.272C568.875 584.695 569.959 585.557 570.657 586.705C571.355 587.854 571.622 589.213 571.41 590.539C571.199 591.866 570.522 593.075 569.502 593.949C568.482 594.823 567.184 595.306 565.84 595.312Z" fill="white" stroke="#263238" stroke-width="1.08162" stroke-linecap="round" stroke-linejoin="round"/>
<path d="M532.448 584.784C532.448 584.784 533.664 576.976 543.424 576.784" stroke="#263238" stroke-width="1.08162" stroke-linecap="round" stroke-linejoin="round"/>
<path d="M539.024 586.48C539.024 586.48 540.256 578.688 550 578.48" stroke="#263238" stroke-width="1.08162" stroke-linecap="round" stroke-linejoin="round"/>
<path d="M544.88 588.672C544.88 588.672 546.096 580.88 555.84 580.672" stroke="#263238" stroke-width="1.08162" stroke-linecap="round" stroke-linejoin="round"/>
<path d="M550.976 590.4C550.976 590.4 552.192 582.608 561.936 582.4" stroke="#263238" stroke-width="1.08162" stroke-linecap="round" stroke-linejoin="round"/>
<path d="M557.072 592.576C557.072 592.576 558.288 584.784 568.032 584.576" stroke="#263238" stroke-width="1.08162" stroke-linecap="round" stroke-linejoin="round"/>
<path d="M565.824 595.2C565.605 595.196 565.388 595.153 565.184 595.072C564.104 594.629 563.191 593.856 562.576 592.864C561.696 591.504 560.976 589.088 562.368 585.328C562.861 583.961 563.679 582.735 564.752 581.757C565.826 580.778 567.122 580.076 568.528 579.712C570.337 579.277 572.221 579.267 574.034 579.684C575.847 580.1 577.539 580.931 578.976 582.112C579.169 582.268 579.329 582.461 579.446 582.68C579.564 582.899 579.636 583.139 579.66 583.386C579.684 583.633 579.659 583.883 579.585 584.12C579.511 584.357 579.391 584.577 579.232 584.768C578.914 585.154 578.455 585.397 577.957 585.445C577.459 585.493 576.962 585.342 576.576 585.024C575.595 584.24 574.449 583.688 573.224 583.411C571.999 583.134 570.727 583.138 569.504 583.424C568.678 583.631 567.916 584.041 567.288 584.617C566.659 585.192 566.184 585.915 565.904 586.72C564.48 590.496 566.192 591.52 566.544 591.616C566.941 591.789 567.267 592.094 567.468 592.478C567.669 592.862 567.733 593.303 567.649 593.729C567.565 594.154 567.339 594.538 567.007 594.817C566.675 595.096 566.258 595.254 565.824 595.264V595.2Z" fill="white" stroke="#263238" stroke-width="1.08162" stroke-linecap="round" stroke-linejoin="round"/>
</svg>
