<?xml version="1.0" standalone="no"?>
<!DOCTYPE svg PUBLIC "-//W3C//DTD SVG 20010904//EN"
 "http://www.w3.org/TR/2001/REC-SVG-20010904/DTD/svg10.dtd">
<svg version="1.0" xmlns="http://www.w3.org/2000/svg"
 width="700.000000pt" height="700.000000pt" viewBox="0 0 700.000000 700.000000"
 preserveAspectRatio="xMidYMid meet">
<metadata>
Created by potrace 1.14, written by Peter Selinger 2001-2017
</metadata>
<g transform="translate(0.000000,700.000000) scale(0.100000,-0.100000)"
fill="#000000" stroke="none">
<path d="M2349 5939 c-19 -3 -45 -11 -59 -18 -37 -20 -88 -79 -102 -120 -9
-27 -12 -190 -12 -636 0 -596 0 -600 22 -641 26 -50 69 -88 119 -105 33 -11
434 -16 829 -10 l52 1 1 765 c0 421 -2 766 -7 766 -27 5 -816 3 -843 -2z"/>
<path d="M3422 5181 l2 -771 531 -1 c291 0 556 -2 588 -5 165 -14 365 -107
492 -231 103 -99 195 -258 231 -398 19 -73 26 -299 12 -360 -4 -16 -10 -43
-14 -60 -6 -33 -73 -194 -86 -210 -5 -5 -22 -31 -38 -56 -105 -162 -329 -309
-525 -344 -11 -2 -35 -6 -53 -9 -18 -4 -282 -7 -587 -8 l-553 -1 -1 -769 -1
-770 632 5 c348 2 642 6 653 9 16 4 95 16 150 22 203 24 604 170 792 289 24
15 45 27 48 27 8 0 132 87 225 159 102 78 304 277 387 381 205 257 353 548
439 859 19 69 37 141 40 160 3 18 7 41 9 50 26 135 35 239 35 411 0 208 -7
284 -41 458 -44 227 -100 395 -204 607 -211 429 -537 778 -947 1013 -110 63
-185 99 -343 162 -77 31 -245 81 -315 94 -14 2 -36 7 -50 10 -28 7 -67 13
-125 22 -22 3 -51 9 -65 12 -14 3 -316 7 -672 9 l-647 4 1 -770z"/>
<path d="M1100 4311 c-70 -37 -74 -56 -80 -336 l-5 -250 -397 -2 c-388 -1
-398 -2 -436 -23 -47 -27 -74 -69 -77 -124 -3 -46 25 -107 61 -131 12 -8 215
-91 451 -185 235 -94 437 -175 448 -180 11 -5 169 -69 350 -141 353 -142 384
-149 446 -113 18 11 42 35 53 54 19 32 21 54 22 276 1 133 4 246 7 251 3 5
175 8 389 8 214 -1 397 3 415 9 18 5 47 24 64 42 28 29 33 43 37 91 3 49 0 64
-20 92 -31 46 -45 53 -318 160 -58 23 -114 46 -125 50 -92 38 -192 78 -315
126 -80 32 -170 67 -200 80 -30 12 -86 35 -125 50 -38 15 -83 34 -100 41 -58
24 -190 77 -226 90 -20 7 -75 29 -122 48 -96 40 -146 45 -197 17z"/>
<path d="M2315 2710 c-51 -18 -97 -56 -122 -102 -17 -31 -18 -75 -17 -633 0
-330 3 -616 7 -636 9 -45 67 -113 115 -136 37 -18 162 -20 802 -14 l95 1 0
768 0 767 -418 0 c-353 1 -425 -1 -462 -15z"/>
</g>
</svg>
