<?xml version="1.0"?>
<svg xmlns="http://www.w3.org/2000/svg" xmlns:xlink="http://www.w3.org/1999/xlink" xmlns:svgjs="http://svgjs.com/svgjs" version="1.1" width="512" height="512" x="0" y="0" viewBox="0 0 512 512" style="enable-background:new 0 0 512 512" xml:space="preserve" class=""><g transform="matrix(1,0,0,1,0,0)"><path xmlns="http://www.w3.org/2000/svg" d="m477 0h-442c-19.300781 0-35 15.699219-35 35v300c0 19.300781 15.699219 35 35 35h161v60h-33c-8.285156 0-15 6.714844-15 15s6.714844 15 15 15h186c8.285156 0 15-6.714844 15-15s-6.714844-15-15-15h-33v-60h161c19.300781 0 35-15.699219 35-35v-300c0-19.300781-15.699219-35-35-35zm-447 35c0-2.757812 2.242188-5 5-5h442c2.757812 0 5 2.242188 5 5v245h-452zm256 395h-60v-60h60zm196-95c0 2.757812-2.242188 5-5 5h-442c-2.757812 0-5-2.242188-5-5v-25h452zm0 0" fill="#445cb4" data-original="#000000" style="" class=""/></g></svg>
