<?xml version="1.0"?>
<svg xmlns="http://www.w3.org/2000/svg" xmlns:xlink="http://www.w3.org/1999/xlink" xmlns:svgjs="http://svgjs.com/svgjs" version="1.1" width="512" height="512" x="0" y="0" viewBox="0 0 512 512" style="enable-background:new 0 0 512 512" xml:space="preserve" class=""><g><path xmlns="http://www.w3.org/2000/svg" d="m136 361h-121c-8.284 0-15 6.716-15 15v121c0 8.284 6.716 15 15 15h121c8.284 0 15-6.716 15-15v-121c0-8.284-6.716-15-15-15z" fill="#445cb4" data-original="#000000" style="" class=""/><path xmlns="http://www.w3.org/2000/svg" d="m316 361h-120c-8.284 0-15 6.716-15 15v121c0 8.284 6.716 15 15 15h120c8.284 0 15-6.716 15-15v-121c0-8.284-6.716-15-15-15z" fill="#445cb4" data-original="#000000" style="" class=""/><path xmlns="http://www.w3.org/2000/svg" d="m497 361h-121c-8.284 0-15 6.716-15 15v121c0 8.284 6.716 15 15 15h121c8.284 0 15-6.716 15-15v-121c0-8.284-6.716-15-15-15z" fill="#445cb4" data-original="#000000" style="" class=""/><path xmlns="http://www.w3.org/2000/svg" d="m91 301h150v30h30v-30h150v30h30v-45c0-8.28-6.72-15-15-15h-165v-30h-30v30h-165c-8.28 0-15 6.72-15 15v45h30z" fill="#445cb4" data-original="#000000" style="" class=""/><path xmlns="http://www.w3.org/2000/svg" d="m136 211h240c8.284 0 15-6.716 15-15v-181c0-8.284-6.716-15-15-15h-240c-8.284 0-15 6.716-15 15v181c0 8.284 6.716 15 15 15zm60-150h90c8.284 0 15 6.716 15 15s-6.716 15-15 15h-90c-8.284 0-15-6.716-15-15s6.716-15 15-15zm0 60h120c8.284 0 15 6.716 15 15s-6.716 15-15 15h-120c-8.284 0-15-6.716-15-15s6.716-15 15-15z" fill="#445cb4" data-original="#000000" style="" class=""/></g></svg>
