<?xml version="1.0"?>
<svg xmlns="http://www.w3.org/2000/svg" xmlns:xlink="http://www.w3.org/1999/xlink" xmlns:svgjs="http://svgjs.com/svgjs" version="1.1" width="512" height="512" x="0" y="0" viewBox="0 0 512 512" style="enable-background:new 0 0 512 512" xml:space="preserve" class=""><g><circle xmlns="http://www.w3.org/2000/svg" cx="256" cy="301" r="60" fill="#445cb4" data-original="#000000" style="" class=""/><path xmlns="http://www.w3.org/2000/svg" d="m328.39 354.43c-36.112 48.787-108.731 48.703-144.78 0-19.97 17.42-32.61 43.05-32.61 71.57v71c0 8.28 6.72 15 15 15h180c8.28 0 15-6.72 15-15v-71c0-28.52-12.64-54.15-32.61-71.57z" fill="#445cb4" data-original="#000000" style="" class=""/><circle xmlns="http://www.w3.org/2000/svg" cx="406" cy="301" r="60" fill="#445cb4" data-original="#000000" style="" class=""/><path xmlns="http://www.w3.org/2000/svg" d="m478.39 354.43c-21.873 29.55-58.678 42.331-93.12 34.16 3.73 11.82 5.73 24.38 5.73 37.41v71c0 5.26-.91 10.31-2.58 15h107.58c8.28 0 15-6.72 15-15v-71c0-28.52-12.64-54.15-32.61-71.57z" fill="#445cb4" data-original="#000000" style="" class=""/><circle xmlns="http://www.w3.org/2000/svg" cx="106" cy="301" r="60" fill="#445cb4" data-original="#000000" style="" class=""/><path xmlns="http://www.w3.org/2000/svg" d="m126.73 388.59c-34.461 8.176-71.259-4.626-93.12-34.16-19.97 17.42-32.61 43.05-32.61 71.57v71c0 8.28 6.72 15 15 15h107.58c-1.67-4.69-2.58-9.74-2.58-15v-71c0-13.03 2-25.6 5.73-37.41z" fill="#445cb4" data-original="#000000" style="" class=""/><path xmlns="http://www.w3.org/2000/svg" d="m166 181h15v30c0 12.403 14.183 19.365 24 12l56-42h85c24.813 0 45-20.187 45-45v-91c0-24.813-20.187-45-45-45h-180c-24.813 0-45 20.187-45 45v91c0 24.813 20.187 45 45 45z" fill="#445cb4" data-original="#000000" style="" class=""/></g></svg>
