<?xml version="1.0"?>
<svg xmlns="http://www.w3.org/2000/svg" xmlns:xlink="http://www.w3.org/1999/xlink" xmlns:svgjs="http://svgjs.com/svgjs" version="1.1" width="512" height="512" x="0" y="0" viewBox="0 0 512.004 512.004" style="enable-background:new 0 0 512 512" xml:space="preserve" class=""><g><path xmlns="http://www.w3.org/2000/svg" d="m414.336 228.563-9.336 4.63v-173.191c0-24.813-20.187-45-45-45h-315c-24.813 0-45 20.187-45 45v241c0 24.813 20.187 45 45 45h136v26c0 16.7 11.76 30.697 27.432 34.167l-12.228 73.368c-1.524 9.14 5.536 17.466 14.796 17.466h60c7.271 0 13.496-5.215 14.769-12.375l13.55-76.22 115.018 57.033c9.934 4.927 21.664-2.306 21.664-13.438v-210c-.001-11.125-11.714-18.375-21.665-13.44zm-384.336 72.439v-241c0-8.271 6.729-15 15-15h315c8.271 0 15 6.729 15 15v188.067l-78.515 38.933h-80.485c-17.252 0-31.62 12.551-34.475 29h-136.525c-8.271 0-15-6.729-15-15zm186 76c-2.757 0-5-2.243-5-5v-50c0-2.757 2.243-5 5-5h69v60zm12.707 90 10-60h30.391l-10.666 60zm177.293-39.181-91-45.124v-71.391l91-45.124z" fill="#445cb4" data-original="#000000" style="" class=""/><path xmlns="http://www.w3.org/2000/svg" d="m487.012 300.744 16-7c7.59-3.32 11.051-12.165 7.73-19.754-3.32-7.59-12.166-11.053-19.754-7.73l-16 7c-7.59 3.32-11.051 12.165-7.73 19.754 3.323 7.595 12.172 11.049 19.754 7.73z" fill="#445cb4" data-original="#000000" style="" class=""/><path xmlns="http://www.w3.org/2000/svg" d="m503.012 400.26-16-7c-7.589-3.32-16.434.14-19.754 7.73-3.321 7.59.14 16.434 7.73 19.754l16 7c7.589 3.321 16.435-.141 19.754-7.73 3.321-7.59-.14-16.434-7.73-19.754z" fill="#445cb4" data-original="#000000" style="" class=""/><path xmlns="http://www.w3.org/2000/svg" d="m497 332.002h-16c-8.284 0-15 6.716-15 15s6.716 15 15 15h16c8.284 0 15-6.716 15-15s-6.716-15-15-15z" fill="#445cb4" data-original="#000000" style="" class=""/><path xmlns="http://www.w3.org/2000/svg" d="m269.208 193.918c11.033-5.516 11.042-21.312 0-26.833l-120-60c-9.951-4.976-21.708 2.268-21.708 13.417v120c0 11.139 11.756 18.394 21.708 13.417zm-111.708-49.146 71.459 35.729-71.459 35.73z" fill="#445cb4" data-original="#000000" style="" class=""/></g></svg>
