<?xml version="1.0"?>
<svg xmlns="http://www.w3.org/2000/svg" xmlns:xlink="http://www.w3.org/1999/xlink" xmlns:svgjs="http://svgjs.com/svgjs" version="1.1" width="512" height="512" x="0" y="0" viewBox="0 0 512 512" style="enable-background:new 0 0 512 512" xml:space="preserve" class=""><g><path xmlns="http://www.w3.org/2000/svg" d="m512 121v-75c0-24.813-20.187-45-45-45h-422c-24.813 0-45 20.187-45 45v75zm-166-60h90c8.284 0 15 6.716 15 15s-6.716 15-15 15h-90c-8.284 0-15-6.716-15-15s6.716-15 15-15zm-150 0c8.284 0 15 6.716 15 15s-6.716 15-15 15-15-6.716-15-15 6.716-15 15-15zm-60 0c8.284 0 15 6.716 15 15s-6.716 15-15 15-15-6.716-15-15 6.716-15 15-15zm-60 0c8.284 0 15 6.716 15 15s-6.716 15-15 15-15-6.716-15-15 6.716-15 15-15z" fill="#445cb4" data-original="#000000" style="" class=""/><path xmlns="http://www.w3.org/2000/svg" d="m301 361h120v60h-120z" fill="#445cb4" data-original="#000000" style="" class=""/><path xmlns="http://www.w3.org/2000/svg" d="m91 361h120v60h-120z" fill="#445cb4" data-original="#000000" style="" class=""/><path xmlns="http://www.w3.org/2000/svg" d="m0 151v315c0 24.813 20.187 45 45 45h422c24.813 0 45-20.187 45-45v-315zm241 285c0 8.284-6.716 15-15 15h-150c-8.284 0-15-6.716-15-15v-90c0-8.284 6.716-15 15-15h150c8.284 0 15 6.716 15 15zm210 0c0 8.284-6.716 15-15 15h-150c-8.284 0-15-6.716-15-15v-90c0-8.284 6.716-15 15-15h150c8.284 0 15 6.716 15 15zm0-150c0 8.284-6.716 15-15 15h-360c-8.284 0-15-6.716-15-15v-90c0-8.284 6.716-15 15-15h360c8.284 0 15 6.716 15 15z" fill="#445cb4" data-original="#000000" style="" class=""/><path xmlns="http://www.w3.org/2000/svg" d="m91 211h330v60h-330z" fill="#445cb4" data-original="#000000" style="" class=""/></g></svg>
